<svg xmlns="http://www.w3.org/2000/svg" width="32" height="32" viewBox="0 0 32 32">
  <rect x="5" y="5" width="22" height="22" rx="2" fill="#e58f85" />
  <g transform="translate(9.25 9.25) scale(0.45)">
    <path fill="#fff" d="M19 4 A 1.0001 1.0001 0 0 0 18.059 5.336L19.367 9h-8.953l-.619-1H11a1 1 0 1 0 0-2H8.143a1 1 0 0 0-.286-.012A1 1 0 0 0 7.84 6H7a1 1 0 1 0 0 2l.443.001L8.812 10.21 7.486 13.195A5.99 5.99 0 0 0 6 13C2.698 13 0 15.698 0 19s2.698 6 6 6c2.96 0 5.428-2.172 5.908-5h3.508a1 1 0 0 0 .711-.29l.227-.207a1 1 0 0 0 .13-.169l.15-.257a1 1 0 0 0 .049-.091l.047-.092a1 1 0 0 0 .04-.092l.18-.318.07-.142.064-.14.049-.124.046-.129.038-.131L20.238 11.44l.832 2.33A6.976 6.976 0 0 0 18 19c0 3.302 2.698 6 6 6s6-2.698 6-6-2.698-6-6-6a5.96 5.96 0 0 0-1.047.097L20.418 6H22a1 1 0 1 0 0-2h-3zm-7.346 7h6.572L15.33 16.934 11.654 11zm-1.568 1.268L13.637 18h-1.729c-.282-1.659-1.244-3.094-2.594-3.994l.872-1.738zM6 15c.225 0 .44.029.654.064L5.086 18.594A1 1 0 0 0 6 20h3.861C9.419 21.728 7.873 23 6 23c-2.221 0-4-1.779-4-4s1.779-4 4-4zm18 0c2.221 0 4 1.779 4 4s-1.779 4-4 4-4-1.779-4-4c0-1.386.693-2.6 1.754-3.316l1.305 3.653a1 1 0 1 0 1.883-.671l-1.297-3.63A4.02 4.02 0 0 1 24 15zm-15.518.879A4.97 4.97 0 0 1 9.861 18H7.54l.942-2.121z"/>
  </g>
</svg>
