<svg xmlns="http://www.w3.org/2000/svg" width="48" height="48" viewBox="0 0 24 24">
  <circle cx="12" cy="12" r="11.25" fill="#0ea5e9" stroke="#1e293b" stroke-width="0.75"/>
  <g transform="translate(4.25 4.25) scale(1.033)"><path d="M6 1a2 2 0 0 0-2 2v3.5a.5.5 0 0 0 .5.5h2a.5.5 0 0 0 .5-.5v-2a.5.5 0 0 1 .5-.5H14V1Zm1 14H4a.5.5 0 0 1-.48-.38L2 8.62a.5.5 0 0 1 .365-.606A.6.6 0 0 1 2.5 8h6a.5.5 0 0 1 .514.485A.5.5 0 0 1 9 8.62l-1.5 6A.5.5 0 0 1 7 15m-3.35-4h3.71l.5-2H3.14Z" fill="#ffffff"/></g>
</svg>
