<svg xmlns="http://www.w3.org/2000/svg" width="48" height="48" viewBox="0 0 24 24">
  <circle cx="12" cy="12" r="11.25" fill="#10b981" stroke="#1e293b" stroke-width="0.75"/>
  <g transform="translate(8.771 4.25) scale(0.323)"><path d="M1 15h18a1 1 0 0 0 1-1a6 6 0 0 0-6-6V4a2 2 0 0 0 0-4H6a2 2 0 0 0 0 4v4a6 6 0 0 0-6 6a1 1 0 0 0 1 1m0 3h18a1 1 0 0 1 1 1v2a1 1 0 0 1-1 1H1a1 1 0 0 1-1-1v-2a1 1 0 0 1 1-1m0 7h18a1 1 0 0 1 1 1v2a1 1 0 0 1-1 1H1a1 1 0 0 1-1-1v-2a1 1 0 0 1 1-1m18 7H1a1 1 0 0 0-1 1v13a2 2 0 0 0 2 2h16a2 2 0 0 0 2-2V33a1 1 0 0 0-1-1" fill="#ffffff"/></g>
</svg>
