<?xml version="1.0" encoding="UTF-8"?>
<svg xmlns="http://www.w3.org/2000/svg" xmlns:xlink="http://www.w3.org/1999/xlink" width="200px" height="px" viewBox="0 0 200 243" version="1.1">
<g id="surface1">
<path style="fill:none;stroke-width:8.0752;stroke-linecap:butt;stroke-linejoin:miter;stroke:rgb(0%,0%,0%);stroke-opacity:1;stroke-miterlimit:10;" d="M 643.296711 554.496633 C 634.899839 556.69683 603.202267 550.303805 556.700339 548.900661 C 536.400299 548.20324 510.397349 554.695896 487.196119 555.700515 C 457.098347 557.103659 429.603357 553.400686 403.898815 552.396068 C 347.101807 550.09624 317.401912 553.998475 312.503046 553.799212 C 312.503046 551.89791 312.503046 549.896976 312.503046 547.896043 C 312.503046 543.097123 316.398929 539.402452 320.999387 539.402452 C 426.901106 539.402452 532.802824 539.402452 638.804011 539.402452 C 643.39618 539.402452 647.300353 543.097123 647.300353 547.896043 C 647.300353 549.797345 647.300353 551.798279 647.300353 553.799212 Z M 643.296711 554.496633 " transform="matrix(0.471251,0,0,0.470483,-126.157878,-39.506497)"/>
<path style=" stroke:none;fill-rule:evenodd;fill:rgb(0%,0%,0%);fill-opacity:1;" d="M 145.1875 216.484375 L 47.121094 217.046875 L 21.15625 220.90625 L 20.117188 222.082031 L 17.148438 221.1875 C 17.148438 142.523438 17.148438 86.675781 17.148438 8.011719 C 17.148438 3.589844 20.730469 0.015625 25.160156 0.015625 C 75.066406 0.015625 125.019531 0.015625 174.925781 0.015625 C 179.355469 0.015625 182.933594 3.589844 182.933594 8.011719 C 182.933594 86.675781 182.933594 142.710938 182.933594 221.328125 L 179.964844 221.847656 "/>
<path style=" stroke:none;fill-rule:evenodd;fill:rgb(100%,100%,100%);fill-opacity:1;" d="M 176.996094 221.375 C 173.039062 222.410156 158.101562 219.402344 136.1875 218.742188 C 126.621094 218.414062 114.367188 221.46875 103.433594 221.941406 C 89.25 222.601562 76.292969 220.859375 64.179688 220.386719 C 37.414062 219.304688 23.417969 221.140625 21.109375 221.046875 C 21.109375 220.152344 21.109375 219.210938 21.109375 218.269531 C 21.109375 216.011719 22.945312 214.273438 25.113281 214.273438 C 75.019531 214.273438 124.925781 214.273438 174.878906 214.273438 C 177.042969 214.273438 178.882812 216.011719 178.882812 218.269531 C 178.882812 219.164062 178.882812 220.105469 178.882812 221.046875 Z M 176.996094 221.375 "/>
<path style=" stroke:none;fill-rule:evenodd;fill:rgb(100%,100%,100%);fill-opacity:1;" d="M 178.929688 8.011719 C 178.929688 5.753906 177.09375 4.011719 174.878906 4.011719 C 125.019531 4.011719 75.113281 4.011719 25.207031 4.011719 C 22.945312 4.011719 21.203125 5.613281 21.203125 7.871094 C 21.203125 66.585938 21.203125 147.511719 21.203125 206.226562 C 21.203125 208.390625 22.945312 210.226562 25.207031 210.226562 C 75.066406 210.226562 124.972656 210.226562 174.878906 210.226562 C 177.140625 210.226562 178.929688 208.390625 178.929688 206.226562 C 178.929688 147.511719 178.929688 88.792969 178.929688 30.078125 Z M 178.929688 8.011719 "/>
<path style=" stroke:none;fill-rule:evenodd;fill:rgb(74.117649%,5.098039%,18.039216%);fill-opacity:1;" d="M 90.710938 97.59375 C 61.636719 102.625 42.171875 130.386719 47.308594 159.367188 C 52.398438 188.394531 80.15625 207.828125 109.230469 202.699219 C 138.214844 197.617188 157.722656 169.765625 152.632812 140.734375 C 147.496094 111.894531 119.695312 92.417969 90.710938 97.59375 Z M 90.710938 97.59375 "/>
<path style=" stroke:none;fill-rule:evenodd;fill:rgb(100%,100%,100%);fill-opacity:1;" d="M 92.550781 107.941406 C 69.410156 112.082031 53.859375 134.242188 57.914062 157.4375 C 61.964844 180.679688 84.351562 196.347656 107.441406 192.300781 C 130.578125 188.160156 146.226562 165.859375 142.125 142.617188 C 137.976562 119.46875 115.6875 103.898438 92.550781 107.941406 Z M 92.550781 107.941406 "/>
<path style=" stroke:none;fill-rule:evenodd;fill:rgb(0%,0%,0%);fill-opacity:1;" d="M 77.847656 134.902344 C 77.847656 138.902344 81.238281 142.242188 85.339844 142.242188 C 89.34375 142.242188 92.691406 138.902344 92.691406 134.902344 C 92.691406 130.761719 89.34375 127.46875 85.339844 127.46875 C 81.238281 127.421875 77.847656 130.761719 77.847656 134.902344 Z M 80.722656 134.902344 C 80.722656 137.347656 82.746094 139.371094 85.339844 139.371094 C 87.835938 139.371094 89.910156 137.347656 89.910156 134.902344 C 89.910156 132.3125 87.882812 130.289062 85.339844 130.289062 C 82.746094 130.289062 80.722656 132.3125 80.722656 134.902344 Z M 82.464844 134.902344 C 82.464844 136.3125 83.738281 137.628906 85.339844 137.628906 C 86.753906 137.628906 88.074219 136.359375 88.074219 134.902344 C 88.074219 133.347656 86.800781 132.03125 85.339844 132.03125 C 83.785156 132.03125 82.464844 133.300781 82.464844 134.902344 Z M 82.464844 134.902344 "/>
<path style=" stroke:none;fill-rule:evenodd;fill:rgb(0%,0%,0%);fill-opacity:1;" d="M 109.515625 134.902344 C 109.515625 138.902344 112.859375 142.242188 117.007812 142.242188 C 121.011719 142.242188 124.359375 138.902344 124.359375 134.902344 C 124.359375 130.761719 121.011719 127.46875 117.007812 127.46875 C 112.859375 127.421875 109.515625 130.761719 109.515625 134.902344 Z M 112.390625 134.902344 C 112.390625 137.347656 114.414062 139.371094 117.007812 139.371094 C 119.457031 139.371094 121.484375 137.347656 121.484375 134.902344 C 121.484375 132.3125 119.457031 130.289062 117.007812 130.289062 C 114.414062 130.289062 112.390625 132.3125 112.390625 134.902344 Z M 114.132812 134.902344 C 114.132812 136.3125 115.40625 137.628906 117.007812 137.628906 C 118.421875 137.628906 119.742188 136.359375 119.742188 134.902344 C 119.742188 133.347656 118.46875 132.03125 117.007812 132.03125 C 115.40625 132.03125 114.132812 133.300781 114.132812 134.902344 Z M 114.132812 134.902344 "/>
<path style=" stroke:none;fill-rule:evenodd;fill:rgb(0%,0%,0%);fill-opacity:1;" d="M 116.488281 129.726562 L 117.667969 132.691406 L 115.359375 133.394531 L 114.179688 130.386719 Z M 116.488281 129.726562 "/>
<path style=" stroke:none;fill-rule:evenodd;fill:rgb(0%,0%,0%);fill-opacity:1;" d="M 87.367188 133.914062 L 91.042969 127.984375 L 88.683594 126.621094 L 85.007812 132.597656 Z M 87.367188 133.914062 "/>
<path style=" stroke:none;fill-rule:evenodd;fill:rgb(0%,0%,0%);fill-opacity:1;" d="M 120.449219 126.480469 C 123.699219 127.984375 125.960938 131.089844 125.960938 134.902344 L 122.992188 134.902344 L 121.34375 130.855469 L 116.394531 128.738281 L 111.351562 132.125 L 111.351562 138.335938 L 104.894531 138.335938 C 101.832031 138.335938 99.664062 138.335938 97.027344 138.335938 C 94.386719 138.335938 93.585938 136.59375 93.585938 134.761719 C 93.585938 130.289062 89.769531 126.480469 85.292969 126.480469 L 85.105469 126.480469 L 85.105469 123.421875 L 86.988281 123.421875 C 88.402344 123.421875 90.710938 122.667969 91.652344 121.164062 L 95.519531 115.28125 C 95.988281 114.53125 96.273438 114.953125 96.179688 115.421875 L 94.621094 122.011719 C 94.339844 122.808594 95.28125 123.375 96.179688 122.574219 L 96.179688 122.527344 L 98.0625 120.789062 L 100.089844 117.445312 L 100.089844 116.976562 C 99.148438 116.976562 98.25 116.222656 98.25 115.472656 L 98.25 113.210938 L 97.6875 113.210938 C 97.875 111.566406 98.816406 110.296875 100.75 110.296875 C 102.585938 110.296875 103.625 111.566406 103.625 113.210938 C 103.625 114.625 103.292969 114.625 103.058594 115.09375 L 103.058594 116.128906 C 103.246094 116.128906 103.53125 116.128906 103.953125 116.269531 C 104.425781 116.457031 105.933594 117.164062 106.261719 117.304688 C 106.59375 117.492188 106.828125 117.589844 107.207031 117.964844 L 110.785156 121.773438 C 111.683594 122.574219 111.730469 123.46875 111.730469 124.363281 L 119.082031 124.363281 C 120.117188 124.363281 120.449219 124.925781 120.449219 126.199219 Z M 101.832031 122.152344 L 95.988281 125.492188 L 100.75 127.46875 L 103.859375 124.222656 C 102.917969 123.5625 102.445312 123.140625 101.832031 122.152344 Z M 109.703125 133.113281 C 110.03125 131.421875 111.070312 129.914062 112.4375 128.832031 C 112.578125 128.691406 112.578125 128.410156 112.246094 128.410156 L 109.277344 128.410156 L 109.277344 133.066406 C 109.230469 133.539062 109.5625 133.585938 109.703125 133.113281 Z M 109.703125 133.113281 "/>
<path style=" stroke:none;fill-rule:evenodd;fill:rgb(0%,0%,0%);fill-opacity:1;" d="M 81.144531 160.496094 L 83.453125 148.921875 C 83.738281 147.652344 85.292969 145.207031 88.402344 145.207031 L 111.683594 145.207031 C 114.792969 145.207031 116.347656 147.652344 116.628906 148.921875 L 118.941406 160.496094 C 120.351562 160.777344 121.910156 162.238281 121.910156 163.882812 L 121.910156 173.527344 C 121.910156 174.894531 120.636719 176.164062 120.023438 176.585938 L 120.023438 183.691406 C 119.082031 184.585938 118.136719 185.195312 116.820312 185.195312 C 115.59375 185.195312 114.179688 184.539062 113.425781 183.691406 L 113.425781 176.867188 L 107.394531 177.292969 L 92.644531 177.292969 L 86.613281 176.867188 L 86.613281 183.691406 C 85.859375 184.492188 84.445312 185.195312 83.171875 185.195312 C 81.945312 185.195312 81.003906 184.585938 80.0625 183.691406 L 80.0625 176.585938 C 79.449219 176.164062 78.175781 174.894531 78.175781 173.527344 L 78.175781 163.882812 C 78.128906 162.285156 79.683594 160.777344 81.144531 160.496094 Z M 113.378906 165.71875 C 113.378906 167.363281 114.746094 168.683594 116.441406 168.683594 C 118.089844 168.683594 119.410156 167.316406 119.410156 165.71875 C 119.410156 164.023438 118.042969 162.660156 116.441406 162.660156 C 114.746094 162.660156 113.378906 164.023438 113.378906 165.71875 Z M 80.675781 165.71875 C 80.675781 167.363281 82.039062 168.683594 83.738281 168.683594 C 85.386719 168.683594 86.707031 167.316406 86.707031 165.71875 C 86.707031 164.023438 85.339844 162.660156 83.738281 162.660156 C 81.992188 162.660156 80.675781 164.023438 80.675781 165.71875 Z M 84.253906 156.027344 L 84.820312 152.59375 C 85.621094 148.921875 89.4375 148.453125 93.492188 148.453125 L 106.59375 148.453125 C 110.550781 148.453125 114.460938 148.921875 115.265625 152.59375 L 115.828125 156.027344 C 116.160156 158.144531 115.027344 158.800781 112.765625 158.753906 L 99.996094 158.144531 L 87.320312 158.753906 C 85.007812 158.800781 83.925781 158.144531 84.253906 156.027344 Z M 88.921875 166 L 88.921875 167.269531 L 111.117188 167.269531 L 111.117188 166 L 104.1875 165.578125 L 95.847656 165.578125 Z M 100.136719 169.058594 L 111.210938 169.058594 L 111.210938 170.800781 L 88.875 170.800781 L 88.875 169.058594 Z M 88.921875 173.8125 L 88.921875 172.539062 L 111.117188 172.539062 L 111.117188 173.8125 L 104.1875 174.234375 L 95.847656 174.234375 Z M 88.921875 173.8125 "/>
<path style=" stroke:none;fill-rule:evenodd;fill:rgb(0%,0%,0%);fill-opacity:1;" d="M 33.21875 18.550781 L 36.28125 18.550781 C 38.96875 18.410156 38.875 14.503906 36.28125 14.410156 L 33.21875 14.410156 L 33.21875 18.550781 M 40.523438 13.847656 L 40.144531 13.328125 C 39.441406 12.292969 37.835938 11.589844 36.613281 11.636719 L 30.203125 11.636719 L 30.203125 26.597656 L 33.265625 26.597656 L 33.265625 21.328125 L 36.660156 21.328125 C 40.242188 21.328125 42.503906 17.234375 40.757812 14.175781 Z M 40.523438 13.847656 "/>
<path style=" stroke:none;fill-rule:evenodd;fill:rgb(0%,0%,0%);fill-opacity:1;" d="M 54.847656 23.679688 L 47.496094 23.679688 L 47.496094 20.386719 L 53.625 20.386719 L 53.625 17.609375 L 47.496094 17.609375 L 47.496094 14.550781 L 54.285156 14.550781 L 54.285156 11.636719 L 44.433594 11.636719 L 44.433594 26.597656 L 54.847656 26.597656 L 54.847656 23.679688 "/>
<path style=" stroke:none;fill-rule:evenodd;fill:rgb(0%,0%,0%);fill-opacity:1;" d="M 59.042969 26.597656 L 64.605469 26.597656 C 73.746094 26.550781 73.792969 11.777344 64.652344 11.636719 L 59.042969 11.636719 L 59.042969 26.597656 M 68.140625 20.996094 L 67.949219 21.515625 C 67.382812 22.785156 66.113281 23.585938 64.699219 23.585938 L 62.105469 23.585938 L 62.105469 14.644531 L 64.699219 14.644531 C 67.902344 14.789062 68.703125 17.796875 68.234375 20.527344 Z M 68.140625 20.996094 "/>
<path style=" stroke:none;fill-rule:evenodd;fill:rgb(0%,0%,0%);fill-opacity:1;" d="M 85.386719 23.679688 L 78.035156 23.679688 L 78.035156 20.386719 L 84.160156 20.386719 L 84.160156 17.609375 L 78.035156 17.609375 L 78.035156 14.550781 L 84.820312 14.550781 L 84.820312 11.636719 L 74.972656 11.636719 L 74.972656 26.597656 L 85.386719 26.597656 L 85.386719 23.679688 "/>
<path style=" stroke:none;fill-rule:evenodd;fill:rgb(0%,0%,0%);fill-opacity:1;" d="M 97.402344 17.890625 L 98.015625 18.082031 L 98.394531 18.222656 C 101.078125 19.492188 101.832031 22.316406 100.277344 24.714844 L 99.902344 25.183594 L 99.429688 25.609375 C 96.933594 27.632812 91.371094 27.300781 89.0625 24.996094 L 88.449219 24.433594 L 88.074219 23.960938 L 90.664062 21.984375 L 91.230469 22.503906 L 91.84375 22.972656 L 92.457031 23.351562 C 93.679688 24.007812 96.082031 24.433594 97.167969 23.304688 L 97.402344 23.019531 L 97.542969 22.691406 L 97.640625 22.363281 L 97.59375 22.03125 L 97.496094 21.703125 L 97.355469 21.421875 L 97.167969 21.1875 L 96.886719 20.996094 L 96.601562 20.855469 L 96.507812 20.808594 L 92.972656 20.007812 L 92.359375 19.867188 L 91.84375 19.679688 L 91.277344 19.351562 L 91.136719 19.257812 L 90.664062 18.832031 L 90.289062 18.363281 C 89.0625 16.621094 89.390625 14.316406 90.898438 12.859375 L 91.417969 12.433594 L 91.984375 12.058594 C 94.339844 10.789062 97.828125 11.117188 99.996094 12.625 L 100.65625 13.09375 L 101.269531 13.609375 L 101.316406 13.65625 L 99.003906 15.773438 L 98.488281 15.304688 L 97.875 14.929688 C 96.839844 14.363281 95.378906 14.035156 94.246094 14.363281 L 93.867188 14.550781 L 93.492188 14.835938 C 92.785156 15.351562 92.925781 16.527344 93.679688 16.90625 L 93.964844 17 L 97.402344 17.890625 "/>
<path style=" stroke:none;fill-rule:evenodd;fill:rgb(0%,0%,0%);fill-opacity:1;" d="M 103.246094 11.636719 L 103.246094 14.550781 L 107.535156 14.550781 L 107.535156 26.597656 L 110.550781 26.597656 L 110.550781 14.550781 L 114.839844 14.550781 L 114.839844 11.636719 L 103.246094 11.636719 "/>
<path style=" stroke:none;fill-rule:evenodd;fill:rgb(0%,0%,0%);fill-opacity:1;" d="M 120.824219 14.410156 L 120.824219 17.941406 L 124.40625 17.941406 C 126.761719 17.84375 126.761719 14.457031 124.40625 14.410156 L 120.824219 14.410156 M 117.761719 26.597656 L 117.761719 11.636719 L 124.6875 11.636719 C 129.636719 11.730469 131.003906 18.269531 126.480469 20.339844 L 126.195312 20.480469 L 129.730469 26.597656 L 126.195312 26.597656 L 122.757812 20.761719 L 120.777344 20.761719 L 120.777344 26.597656 Z M 117.761719 26.597656 "/>
<path style=" stroke:none;fill-rule:nonzero;fill:rgb(0%,0%,0%);fill-opacity:1;" d="M 133.546875 11.636719 L 136.613281 11.636719 L 136.613281 26.597656 L 133.546875 26.597656 Z M 133.546875 11.636719 "/>
<path style=" stroke:none;fill-rule:evenodd;fill:rgb(0%,0%,0%);fill-opacity:1;" d="M 144.574219 11.636719 L 148.535156 11.636719 L 153.53125 26.597656 L 150.183594 26.597656 L 149.382812 23.960938 L 143.726562 23.960938 L 142.925781 26.597656 L 139.582031 26.597656 L 144.574219 11.636719 M 146.601562 14.742188 L 144.574219 21.328125 L 148.628906 21.328125 Z M 146.601562 14.742188 "/>
<path style=" stroke:none;fill-rule:evenodd;fill:rgb(0%,0%,0%);fill-opacity:1;" d="M 160.03125 11.636719 L 156.5 11.636719 L 156.5 26.597656 L 159.609375 26.597656 L 159.609375 16.480469 L 166.300781 26.597656 L 169.742188 26.597656 L 169.742188 11.636719 L 166.722656 11.636719 L 166.722656 21.75 L 160.03125 11.636719 "/>
<path style=" stroke:none;fill-rule:evenodd;fill:rgb(0%,0%,0%);fill-opacity:1;" d="M 47.6875 45.699219 L 47.96875 45.605469 L 48.15625 45.460938 L 48.347656 45.226562 L 48.488281 44.992188 L 48.535156 44.710938 L 48.535156 43.15625 L 47.496094 43.296875 L 46.460938 43.488281 C 45.707031 43.675781 45.332031 43.675781 45.1875 44.523438 L 45.234375 44.804688 L 45.28125 44.992188 C 45.660156 45.699219 45.941406 45.652344 46.695312 45.792969 L 47.261719 45.746094 L 47.6875 45.699219 M 43.726562 47.53125 L 44.339844 47.816406 C 45.519531 48.332031 48.0625 48.425781 48.957031 47.203125 L 49.007812 47.0625 L 49.242188 47.34375 L 49.523438 47.578125 L 49.808594 47.722656 L 49.855469 47.722656 L 50.46875 47.957031 L 51.125 48.097656 L 51.644531 48.144531 L 52.683594 45.886719 L 52.445312 45.839844 L 52.164062 45.792969 L 51.925781 45.652344 L 51.738281 45.511719 L 51.597656 45.320312 L 51.503906 45.085938 L 51.457031 44.851562 L 51.457031 39.816406 L 51.410156 39.347656 L 51.269531 38.875 L 51.078125 38.453125 L 50.796875 38.078125 L 50.46875 37.746094 L 50.089844 37.464844 C 47.921875 36.382812 45.894531 36.476562 43.726562 37.464844 L 42.832031 37.886719 L 42.265625 38.21875 L 43.679688 40.382812 L 44.339844 40.003906 C 45.140625 39.535156 48.300781 38.5 48.488281 40.195312 L 48.488281 40.851562 L 47.546875 40.898438 L 46.601562 40.992188 C 45.378906 41.226562 43.398438 41.558594 42.691406 42.78125 L 42.410156 43.25 L 42.21875 43.769531 C 41.84375 44.757812 42.171875 45.980469 42.832031 46.734375 L 43.210938 47.109375 Z M 43.726562 47.53125 "/>
<path style=" stroke:none;fill-rule:evenodd;fill:rgb(0%,0%,0%);fill-opacity:1;" d="M 64.367188 47.910156 L 64.367188 41.558594 C 64.414062 37.933594 60.644531 35.628906 57.722656 37.839844 L 57.535156 38.027344 L 57.535156 37.277344 L 54.613281 37.277344 L 54.613281 47.957031 L 57.535156 47.957031 L 57.535156 41.558594 C 57.675781 39.253906 61.542969 38.96875 61.445312 41.605469 L 61.445312 47.957031 L 64.367188 47.910156 L 61.445312 47.910156 L 64.367188 47.910156 "/>
<path style=" stroke:none;fill-rule:evenodd;fill:rgb(0%,0%,0%);fill-opacity:1;" d="M 67.855469 38.40625 L 67.996094 38.265625 C 69.648438 36.570312 72.332031 36.335938 74.265625 37.746094 L 74.3125 37.792969 L 74.3125 32.996094 L 77.234375 32.996094 L 77.234375 47.910156 L 74.3125 47.910156 L 74.3125 47.203125 L 73.933594 47.53125 L 73.558594 47.769531 C 72.097656 48.472656 69.976562 48.378906 68.65625 47.390625 L 68.1875 47.015625 L 67.761719 46.546875 C 66.347656 44.570312 66.253906 41.464844 67.289062 39.300781 L 67.527344 38.828125 L 67.855469 38.40625 M 70.402344 39.910156 L 70.777344 39.675781 L 71.203125 39.488281 L 71.625 39.347656 C 72.519531 39.300781 73.324219 39.582031 73.886719 40.335938 L 74.078125 40.664062 L 74.21875 41.039062 L 74.265625 41.324219 L 74.265625 43.628906 L 74.21875 44.003906 L 74.078125 44.332031 L 73.886719 44.617188 L 73.839844 44.664062 L 73.558594 44.992188 L 73.179688 45.273438 L 72.804688 45.460938 C 69.550781 46.449219 68.84375 42.640625 69.976562 40.429688 L 70.210938 40.144531 Z M 70.402344 39.910156 "/>
<path style=" stroke:none;fill-rule:evenodd;fill:rgb(0%,0%,0%);fill-opacity:1;" d="M 93.820312 35.535156 L 94.433594 35.582031 C 95.894531 35.722656 96.839844 36.804688 97.308594 38.171875 L 97.355469 38.546875 L 100.417969 37.324219 L 100.042969 36.523438 L 99.617188 35.769531 L 99.429688 35.441406 L 98.910156 34.828125 L 98.394531 34.265625 L 97.828125 33.792969 L 97.214844 33.417969 L 96.507812 33.136719 L 95.800781 32.902344 L 95.09375 32.757812 L 94.339844 32.710938 L 94.199219 32.710938 L 93.398438 32.664062 L 93.351562 32.710938 L 92.644531 32.757812 L 91.9375 32.902344 C 88.875 33.652344 87.128906 36.289062 86.707031 39.253906 L 86.660156 40.003906 L 86.660156 41.039062 L 86.707031 41.839844 C 86.988281 44.617188 88.921875 47.4375 91.796875 48.097656 L 92.503906 48.238281 L 93.257812 48.332031 C 95.707031 48.472656 98.015625 47.675781 99.429688 45.605469 L 99.855469 44.898438 L 100.230469 44.144531 L 100.417969 43.628906 L 97.355469 42.40625 L 97.214844 42.96875 L 96.980469 43.488281 C 95.800781 45.933594 92.21875 46.074219 90.710938 43.863281 L 90.429688 43.394531 L 90.242188 42.828125 L 90.242188 42.78125 C 89.863281 41.558594 89.769531 40.195312 90.050781 38.921875 L 90.242188 38.171875 L 90.429688 37.605469 C 90.804688 36.757812 91.605469 36.054688 92.503906 35.722656 L 93.066406 35.582031 L 93.679688 35.535156 L 93.820312 35.535156 "/>
<path style=" stroke:none;fill-rule:evenodd;fill:rgb(0%,0%,0%);fill-opacity:1;" d="M 106.78125 42.027344 L 101.785156 32.996094 L 105.273438 32.996094 L 108.335938 38.453125 L 111.398438 32.996094 L 114.886719 32.996094 L 109.84375 42.027344 L 109.84375 47.910156 L 106.78125 47.910156 L 106.78125 42.027344 "/>
<path style=" stroke:none;fill-rule:evenodd;fill:rgb(0%,0%,0%);fill-opacity:1;" d="M 123.652344 35.535156 L 124.265625 35.582031 C 125.679688 35.722656 126.808594 36.851562 127.140625 38.171875 L 127.1875 38.546875 L 130.25 37.324219 L 129.871094 36.523438 L 129.496094 35.769531 L 129.308594 35.441406 L 128.789062 34.828125 L 128.222656 34.265625 L 127.65625 33.792969 L 127.046875 33.417969 L 126.386719 33.136719 L 125.679688 32.902344 L 124.972656 32.757812 L 124.265625 32.710938 L 124.125 32.710938 L 123.320312 32.664062 L 123.273438 32.710938 L 122.566406 32.757812 L 121.859375 32.902344 C 118.890625 33.605469 116.960938 36.335938 116.675781 39.253906 L 116.628906 40.003906 L 116.628906 41.039062 L 116.675781 41.839844 C 116.960938 44.664062 118.890625 47.390625 121.765625 48.097656 L 122.472656 48.238281 L 123.179688 48.332031 C 125.632812 48.472656 127.941406 47.675781 129.355469 45.605469 L 129.824219 44.898438 L 130.15625 44.144531 L 130.34375 43.628906 L 127.28125 42.40625 L 127.140625 42.96875 L 126.949219 43.488281 C 125.773438 45.933594 122.191406 46.074219 120.683594 43.863281 L 120.402344 43.394531 L 120.210938 42.828125 L 120.210938 42.78125 C 119.882812 41.699219 119.789062 40.003906 120.023438 38.921875 L 120.210938 38.171875 L 120.402344 37.605469 C 120.730469 36.804688 121.671875 35.960938 122.472656 35.722656 L 123.039062 35.582031 L 123.652344 35.535156 "/>
<path style=" stroke:none;fill-rule:evenodd;fill:rgb(0%,0%,0%);fill-opacity:1;" d="M 133.738281 32.996094 L 136.800781 32.996094 L 136.800781 45.039062 L 143.398438 45.039062 L 143.398438 47.910156 L 133.738281 47.910156 L 133.738281 32.996094 "/>
<path style=" stroke:none;fill-rule:evenodd;fill:rgb(0%,0%,0%);fill-opacity:1;" d="M 156.6875 45.039062 L 149.382812 45.039062 L 149.382812 41.746094 L 155.460938 41.746094 L 155.460938 38.96875 L 149.382812 38.96875 L 149.382812 35.910156 L 156.121094 35.910156 L 156.121094 32.996094 L 146.273438 32.996094 L 146.273438 47.910156 L 156.6875 47.910156 L 156.6875 45.039062 "/>
<path style=" stroke:none;fill-rule:evenodd;fill:rgb(0%,0%,0%);fill-opacity:1;" d="M 49.949219 63.292969 L 49.949219 58.164062 L 67.195312 58.164062 L 67.195312 63.292969 L 55.933594 77.972656 L 67.527344 77.972656 L 67.527344 83.054688 L 49.523438 83.054688 L 49.523438 77.972656 L 60.738281 63.292969 L 49.949219 63.292969 "/>
<path style=" stroke:none;fill-rule:evenodd;fill:rgb(0%,0%,0%);fill-opacity:1;" d="M 95.378906 71.480469 L 95.378906 69.691406 L 95.328125 68.75 C 94.71875 62.777344 90.570312 57.835938 84.300781 57.554688 L 84.207031 57.554688 L 83.21875 57.507812 C 76.855469 57.601562 72.804688 61.929688 71.71875 67.953125 L 71.625 68.941406 L 71.578125 69.644531 L 71.53125 70.867188 L 71.578125 71.433594 C 71.71875 77.265625 75.585938 82.867188 81.710938 83.523438 L 82.652344 83.617188 L 82.746094 83.617188 C 88.96875 83.949219 93.492188 80.277344 94.953125 74.351562 L 95.140625 73.410156 L 95.28125 72.421875 L 95.378906 71.480469 M 83.453125 62.449219 L 84.207031 62.496094 L 84.960938 62.636719 L 85.667969 62.824219 C 89.109375 64.09375 89.863281 67.246094 89.910156 70.585938 L 89.910156 70.679688 L 89.863281 71.667969 C 89.722656 75.246094 88.261719 78.253906 84.398438 78.820312 L 83.644531 78.867188 L 83.453125 78.867188 L 82.746094 78.820312 L 82.039062 78.679688 C 78.601562 77.878906 77.28125 75.007812 77.140625 71.714844 L 77.09375 70.726562 L 77.09375 70.679688 C 77.09375 67.199219 78.082031 63.671875 81.851562 62.683594 L 82.558594 62.542969 L 83.3125 62.496094 Z M 83.453125 62.449219 "/>
<path style=" stroke:none;fill-rule:evenodd;fill:rgb(0%,0%,0%);fill-opacity:1;" d="M 107.300781 58.164062 L 101.503906 58.164062 L 101.503906 83.054688 L 106.59375 83.054688 L 106.59375 66.210938 L 117.761719 83.054688 L 123.558594 83.054688 L 123.558594 58.164062 L 118.46875 58.164062 L 118.46875 75.007812 L 107.300781 58.164062 "/>
<path style=" stroke:none;fill-rule:evenodd;fill:rgb(0%,0%,0%);fill-opacity:1;" d="M 148.722656 78.207031 L 136.515625 78.207031 L 136.515625 72.75 L 146.695312 72.75 L 146.695312 68.140625 L 136.515625 68.140625 L 136.515625 63.011719 L 147.78125 63.011719 L 147.78125 58.164062 L 131.378906 58.164062 L 131.378906 83.054688 L 148.722656 83.054688 L 148.722656 78.207031 "/>
</g>
</svg>
