<?xml version="1.0" encoding="UTF-8"?>
<svg xmlns="http://www.w3.org/2000/svg" xmlns:xlink="http://www.w3.org/1999/xlink" width="200px" height="px" viewBox="0 0 200 246" version="1.1">
<g id="surface1">
<path style="fill-rule:evenodd;fill:rgb(96.078432%,82.352942%,6.666667%);fill-opacity:1;stroke-width:7.3937;stroke-linecap:butt;stroke-linejoin:miter;stroke:rgb(0%,0%,0%);stroke-opacity:1;stroke-miterlimit:10;" d="M 627.498352 535.001051 C 619.999832 536.90281 591.296791 531.30277 549.398157 529.799403 C 531.098467 529.401011 507.499523 535.196489 486.497664 536.00079 C 459.400912 537.301202 434.398341 533.903594 411.302301 532.896338 C 360.103701 530.799142 333.202106 534.399705 328.803575 534.399705 C 328.803575 532.700901 328.803575 530.896861 328.803575 529.002619 C 328.803575 524.80071 332.301383 521.297867 336.497251 521.297867 C 432.101497 521.297867 527.698237 521.297867 623.602724 521.297867 C 627.798593 521.297867 631.296401 524.80071 631.296401 529.002619 C 631.296401 530.701423 631.296401 532.497946 631.296401 534.399705 Z M 627.498352 535.001051 " transform="matrix(0.520415,0,0,0.519667,-149.825327,-53.827116)"/>
<path style=" stroke:none;fill-rule:evenodd;fill:rgb(0%,0%,0%);fill-opacity:1;" d="M 17.226562 223.988281 C 17.226562 145.621094 17.226562 86.378906 17.226562 8.011719 C 17.226562 3.597656 20.820312 0.0117188 25.242188 0.0117188 C 74.992188 0.0117188 124.902344 0.0117188 174.652344 0.0117188 C 179.078125 0.0117188 182.667969 3.597656 182.667969 8.011719 C 182.667969 86.378906 182.667969 145.726562 182.667969 224.195312 L 179.648438 224.714844 L 178.660156 223.832031 L 145.042969 219.414062 L 47.152344 219.933594 L 21.234375 223.726562 L 20.246094 224.921875 Z M 17.226562 223.988281 "/>
<path style=" stroke:none;fill-rule:evenodd;fill:rgb(100%,100%,100%);fill-opacity:1;" d="M 176.734375 224.195312 C 172.832031 225.183594 157.894531 222.273438 136.089844 221.492188 C 126.566406 221.285156 114.285156 224.296875 103.355469 224.714844 C 89.253906 225.390625 76.242188 223.625 64.222656 223.101562 C 37.578125 222.011719 23.578125 223.882812 21.289062 223.882812 C 21.289062 223 21.289062 222.0625 21.289062 221.078125 C 21.289062 218.894531 23.109375 217.074219 25.292969 217.074219 C 75.046875 217.074219 124.796875 217.074219 174.707031 217.074219 C 176.890625 217.074219 178.710938 218.894531 178.710938 221.078125 C 178.710938 221.960938 178.710938 222.894531 178.710938 223.882812 Z M 176.734375 224.195312 "/>
<path style=" stroke:none;fill-rule:evenodd;fill:rgb(100%,100%,100%);fill-opacity:1;" d="M 178.710938 8.011719 C 178.710938 5.726562 176.890625 4.011719 174.707031 4.011719 C 124.953125 4.011719 75.148438 4.011719 25.292969 4.011719 C 23.109375 4.011719 21.289062 5.726562 21.289062 8.011719 C 21.289062 75.050781 21.289062 142.035156 21.289062 209.074219 C 21.289062 211.359375 23.109375 213.074219 25.292969 213.074219 C 75.046875 213.074219 124.796875 213.074219 174.707031 213.074219 C 176.890625 213.074219 178.710938 211.359375 178.710938 209.074219 C 178.710938 142.035156 178.710938 75 178.710938 8.011719 Z M 178.710938 8.011719 "/>
<path style=" stroke:none;fill-rule:evenodd;fill:rgb(0%,0%,0%);fill-opacity:1;" d="M 36.222656 14.351562 L 33.308594 14.351562 L 33.308594 18.5625 L 36.117188 18.5625 C 37.421875 18.5625 38.410156 17.472656 38.410156 16.378906 C 38.410156 15.445312 37.523438 14.351562 36.222656 14.351562 Z M 37.210938 11.652344 L 30.238281 11.652344 L 30.238281 26.566406 L 33.257812 26.566406 L 33.257812 21.265625 L 36.640625 21.265625 C 39.761719 21.265625 41.425781 18.976562 41.425781 16.378906 C 41.425781 13.9375 39.710938 11.652344 37.210938 11.652344 Z M 37.210938 11.652344 "/>
<path style=" stroke:none;fill-rule:evenodd;fill:rgb(0%,0%,0%);fill-opacity:1;" d="M 49.546875 11.652344 L 44.707031 11.652344 L 44.707031 26.617188 L 54.75 26.617188 L 54.75 23.8125 L 47.621094 23.8125 L 47.621094 20.539062 L 53.65625 20.539062 L 53.65625 17.730469 L 47.621094 17.730469 L 47.621094 14.507812 L 54.332031 14.507812 L 54.332031 11.652344 Z M 49.546875 11.652344 "/>
<path style=" stroke:none;fill-rule:evenodd;fill:rgb(0%,0%,0%);fill-opacity:1;" d="M 64.324219 14.351562 L 62.140625 14.351562 L 62.140625 23.863281 L 64.324219 23.863281 C 66.148438 23.863281 68.332031 22.667969 68.332031 19.082031 C 68.332031 15.546875 66.042969 14.351562 64.324219 14.351562 Z M 64.324219 11.652344 L 59.121094 11.652344 L 59.121094 26.566406 L 64.324219 26.566406 C 68.332031 26.566406 71.351562 23.96875 71.351562 19.082031 C 71.351562 14.042969 67.761719 11.652344 64.324219 11.652344 Z M 64.324219 11.652344 "/>
<path style=" stroke:none;fill-rule:evenodd;fill:rgb(0%,0%,0%);fill-opacity:1;" d="M 80.042969 11.652344 L 75.148438 11.652344 L 75.148438 26.617188 L 85.351562 26.617188 L 85.351562 23.8125 L 78.066406 23.8125 L 78.066406 20.539062 L 84.152344 20.539062 L 84.152344 17.730469 L 78.066406 17.730469 L 78.066406 14.507812 L 84.882812 14.507812 L 84.882812 11.652344 Z M 80.042969 11.652344 "/>
<path style=" stroke:none;fill-rule:evenodd;fill:rgb(0%,0%,0%);fill-opacity:1;" d="M 88.367188 24.121094 L 90.554688 22.042969 C 93.261719 23.96875 95.550781 24.121094 96.070312 24.121094 C 96.957031 24.121094 97.683594 23.34375 97.683594 22.511719 C 97.683594 21.523438 97.058594 21.003906 96.488281 20.902344 C 96.070312 20.796875 93.988281 20.382812 93.105469 20.121094 C 92.21875 19.914062 89.511719 19.132812 89.511719 15.914062 C 89.511719 12.535156 91.804688 11.339844 94.507812 11.339844 C 97.214844 11.339844 99.195312 12.222656 100.910156 13.730469 L 98.828125 15.808594 C 97.734375 14.925781 96.332031 14.300781 94.25 14.300781 C 93.050781 14.300781 92.84375 15.390625 92.84375 15.808594 C 92.84375 16.121094 93.15625 17.003906 93.9375 17.210938 C 94.71875 17.316406 96.746094 17.886719 97.058594 17.886719 C 97.945312 17.992188 100.859375 19.1875 100.859375 22.304688 C 100.859375 25.109375 99.039062 26.980469 95.550781 26.980469 C 92.273438 26.929688 89.460938 25.316406 88.367188 24.121094 Z M 88.367188 24.121094 "/>
<path style=" stroke:none;fill-rule:evenodd;fill:rgb(0%,0%,0%);fill-opacity:1;" d="M 112.101562 14.507812 L 110.488281 14.507812 L 110.488281 26.617188 L 107.570312 26.617188 L 107.570312 14.507812 L 103.355469 14.507812 L 103.355469 11.652344 L 114.597656 11.652344 L 114.597656 14.507812 Z M 112.101562 14.507812 "/>
<path style=" stroke:none;fill-rule:evenodd;fill:rgb(0%,0%,0%);fill-opacity:1;" d="M 124.070312 14.25 L 120.789062 14.25 L 120.789062 18.042969 L 124.070312 18.042969 C 125.472656 18.042969 125.996094 16.953125 125.996094 16.222656 C 125.996094 15.339844 125.472656 14.25 124.070312 14.25 Z M 124.796875 11.652344 L 117.773438 11.652344 L 117.773438 26.566406 L 120.789062 26.566406 L 120.789062 20.589844 L 122.976562 20.589844 L 126.359375 26.566406 L 129.636719 26.566406 L 126.152344 20.589844 C 127.242188 20.382812 129.273438 19.082031 129.273438 16.171875 C 129.273438 13.3125 127.191406 11.652344 124.796875 11.652344 Z M 124.796875 11.652344 "/>
<path style=" stroke:none;fill-rule:evenodd;fill:rgb(0%,0%,0%);fill-opacity:1;" d="M 133.59375 11.652344 L 136.609375 11.652344 L 136.609375 26.617188 L 133.59375 26.617188 Z M 133.59375 11.652344 "/>
<path style=" stroke:none;fill-rule:evenodd;fill:rgb(0%,0%,0%);fill-opacity:1;" d="M 145.613281 21.316406 L 144.3125 21.316406 L 146.238281 15.496094 L 148.058594 21.316406 Z M 145.199219 23.914062 L 143.480469 23.914062 L 142.597656 26.617188 L 139.527344 26.617188 L 144.3125 11.703125 L 148.113281 11.703125 L 153.003906 26.617188 L 149.882812 26.617188 L 148.996094 23.914062 L 147.175781 23.914062 C 147.125 23.914062 145.199219 23.914062 145.199219 23.914062 Z M 145.199219 23.914062 "/>
<path style=" stroke:none;fill-rule:evenodd;fill:rgb(0%,0%,0%);fill-opacity:1;" d="M 158.207031 11.652344 L 159.40625 11.652344 L 166.640625 21.941406 L 166.640625 11.652344 L 169.605469 11.652344 L 169.605469 26.617188 L 166.117188 26.617188 L 159.40625 16.433594 L 159.40625 26.617188 L 156.4375 26.617188 L 156.4375 11.652344 Z M 158.207031 11.652344 "/>
<path style=" stroke:none;fill-rule:evenodd;fill:rgb(0%,0%,0%);fill-opacity:1;" d="M 58.132812 36.335938 L 49.910156 36.335938 L 49.910156 40.804688 L 60.941406 40.804688 L 49.546875 56.394531 L 49.546875 61.277344 L 67.550781 61.277344 L 67.550781 56.394531 L 55.53125 56.394531 L 67.136719 40.804688 L 67.136719 36.335938 Z M 58.132812 36.335938 "/>
<path style=" stroke:none;fill-rule:evenodd;fill:rgb(0%,0%,0%);fill-opacity:1;" d="M 83.476562 40.90625 C 79.988281 40.90625 76.867188 43.507812 76.867188 48.910156 C 76.867188 54.316406 80.25 56.914062 83.476562 56.914062 C 86.753906 56.914062 89.980469 54.316406 89.980469 48.910156 C 89.980469 43.507812 86.859375 40.90625 83.476562 40.90625 Z M 83.476562 36.023438 C 78.585938 36.023438 71.664062 39.816406 71.664062 48.808594 C 71.664062 57.902344 78.480469 61.488281 83.476562 61.488281 C 88.367188 61.488281 95.1875 57.902344 95.1875 48.808594 C 95.1875 39.816406 88.265625 36.023438 83.476562 36.023438 Z M 83.476562 36.023438 "/>
<path style=" stroke:none;fill-rule:evenodd;fill:rgb(0%,0%,0%);fill-opacity:1;" d="M 104.398438 36.335938 L 106.375 36.335938 L 118.5 53.484375 L 118.5 36.335938 L 123.394531 36.335938 L 123.394531 61.277344 L 117.773438 61.277344 L 106.480469 44.390625 L 106.480469 61.277344 L 101.585938 61.277344 L 101.585938 36.335938 Z M 104.398438 36.335938 "/>
<path style=" stroke:none;fill-rule:evenodd;fill:rgb(0%,0%,0%);fill-opacity:1;" d="M 139.785156 36.335938 L 131.613281 36.335938 L 131.613281 61.277344 L 148.527344 61.277344 L 148.527344 56.601562 L 136.507812 56.601562 L 136.507812 51.09375 L 146.707031 51.09375 L 146.707031 46.417969 L 136.507812 46.417969 L 136.507812 41.011719 L 147.800781 41.011719 L 147.800781 36.335938 Z M 139.785156 36.335938 "/>
<path style=" stroke:none;fill-rule:evenodd;fill:rgb(74.117649%,5.098039%,18.039216%);fill-opacity:1;" d="M 90.660156 75.308594 C 61.722656 80.402344 42.3125 108.101562 47.410156 137.046875 C 52.511719 165.941406 80.25 185.425781 109.238281 180.230469 C 138.171875 175.136719 157.582031 147.441406 152.484375 118.390625 C 147.332031 89.601562 119.59375 70.21875 90.660156 75.308594 Z M 90.660156 75.308594 "/>
<path style=" stroke:none;fill-rule:evenodd;fill:rgb(100%,100%,100%);fill-opacity:1;" d="M 92.375 85.808594 C 69.269531 89.914062 53.761719 112 57.925781 135.070312 C 61.929688 158.25 84.257812 173.839844 107.261719 169.835938 C 130.46875 165.730469 146.082031 143.4375 141.972656 120.367188 C 137.808594 97.292969 115.585938 81.804688 92.375 85.808594 Z M 92.375 85.808594 "/>
<path style=" stroke:none;fill-rule:evenodd;fill:rgb(0%,0%,0%);fill-opacity:1;" d="M 129.792969 195.925781 L 127.191406 196.808594 C 126.984375 196.027344 126.203125 195.09375 125.007812 195.09375 C 123.808594 195.09375 122.507812 196.289062 122.507812 198.574219 C 122.507812 200.757812 123.703125 201.953125 125.007812 201.953125 C 126.308594 201.953125 127.085938 200.757812 127.191406 200.132812 L 129.898438 200.652344 C 129.585938 202.058594 127.972656 204.449219 125.109375 204.449219 C 122.300781 204.449219 119.699219 202.058594 119.699219 198.472656 C 119.699219 194.886719 122.507812 192.753906 124.902344 192.753906 C 127.296875 192.703125 129.273438 194.3125 129.792969 195.925781 Z M 129.792969 195.925781 "/>
<path style=" stroke:none;fill-rule:evenodd;fill:rgb(0%,0%,0%);fill-opacity:1;" d="M 92.273438 197.328125 L 96.589844 197.328125 C 96.589844 196.339844 95.8125 195.144531 94.40625 195.144531 C 93.15625 195.199219 92.273438 196.238281 92.273438 197.328125 Z M 92.273438 199.40625 L 99.453125 199.40625 C 99.558594 198.109375 99.039062 192.808594 94.457031 192.808594 C 90.449219 192.808594 89.566406 197.015625 89.566406 198.417969 C 89.566406 199.71875 90.347656 204.03125 94.769531 204.03125 C 97.269531 204.03125 98.570312 202.628906 98.882812 202.316406 L 97.164062 200.601562 C 97.164062 200.601562 96.382812 201.691406 94.769531 201.691406 C 93.15625 201.691406 92.273438 200.496094 92.273438 199.40625 Z M 92.273438 199.40625 "/>
<path style=" stroke:none;fill-rule:evenodd;fill:rgb(0%,0%,0%);fill-opacity:1;" d="M 104.554688 193.636719 L 104.554688 188.855469 L 101.847656 188.855469 L 101.847656 203.773438 L 104.554688 203.773438 L 104.554688 197.378906 C 104.554688 196.390625 105.542969 195.457031 106.480469 195.457031 C 107.46875 195.457031 108.5625 196.238281 108.5625 197.378906 L 108.5625 203.773438 L 111.371094 203.773438 L 111.371094 196.390625 C 111.371094 194.3125 109.445312 192.808594 107.46875 192.808594 C 105.59375 192.910156 104.96875 193.429688 104.554688 193.636719 Z M 104.554688 193.636719 "/>
<path style=" stroke:none;fill-rule:evenodd;fill:rgb(0%,0%,0%);fill-opacity:1;" d="M 114.597656 193.117188 L 117.304688 193.117188 L 117.304688 203.824219 L 114.597656 203.824219 Z M 114.597656 193.117188 "/>
<path style=" stroke:none;fill-rule:evenodd;fill:rgb(0%,0%,0%);fill-opacity:1;" d="M 115.636719 188.703125 C 116.472656 188.703125 117.148438 189.378906 117.148438 190.207031 C 117.148438 191.039062 116.472656 191.714844 115.636719 191.714844 C 114.804688 191.714844 114.128906 191.039062 114.128906 190.207031 C 114.128906 189.378906 114.804688 188.703125 115.636719 188.703125 "/>
<path style=" stroke:none;fill-rule:evenodd;fill:rgb(0%,0%,0%);fill-opacity:1;" d="M 136.921875 203.71875 L 136.609375 201.328125 C 135.308594 201.640625 134.6875 201.328125 134.6875 200.808594 L 134.6875 188.910156 L 131.875 188.910156 L 131.875 201.902344 C 131.875 202.992188 132.65625 204.1875 134.6875 204.1875 C 135.777344 204.1875 136.921875 203.71875 136.921875 203.71875 Z M 136.921875 203.71875 "/>
<path style=" stroke:none;fill-rule:evenodd;fill:rgb(0%,0%,0%);fill-opacity:1;" d="M 149.414062 202.003906 L 151.496094 200.289062 C 152.277344 201.171875 153.890625 201.902344 154.617188 201.902344 C 155.398438 201.902344 156.023438 201.382812 156.023438 200.808594 C 156.023438 200.289062 155.605469 200.03125 155.242188 199.925781 C 154.824219 199.824219 153.421875 199.40625 153.054688 199.40625 C 152.847656 199.300781 150.246094 198.886719 150.246094 196.289062 C 150.246094 193.691406 153.054688 192.910156 154.824219 192.910156 C 156.4375 192.910156 157.949219 193.429688 159.144531 194.523438 L 157.429688 196.339844 C 156.335938 195.457031 155.605469 195.144531 154.824219 195.144531 C 153.941406 195.144531 153.316406 195.457031 153.316406 196.132812 C 153.316406 196.808594 153.734375 196.914062 154.097656 196.914062 C 154.304688 197.015625 156.179688 197.433594 156.492188 197.433594 C 156.90625 197.535156 159.09375 198.210938 159.09375 200.652344 C 159.09375 203.148438 156.804688 204.136719 154.511719 204.136719 C 152.328125 204.1875 150.089844 202.992188 149.414062 202.003906 Z M 149.414062 202.003906 "/>
<path style=" stroke:none;fill-rule:evenodd;fill:rgb(0%,0%,0%);fill-opacity:1;" d="M 44.339844 188.804688 L 45.539062 188.804688 L 52.929688 199.09375 L 52.929688 188.804688 L 55.84375 188.804688 L 55.84375 203.71875 L 52.355469 203.71875 L 45.644531 193.636719 L 45.644531 203.71875 L 42.625 203.71875 L 42.625 188.804688 Z M 44.339844 188.804688 "/>
<path style=" stroke:none;fill-rule:evenodd;fill:rgb(0%,0%,0%);fill-opacity:1;" d="M 64.222656 195.199219 C 63.023438 195.199219 61.722656 196.183594 61.722656 198.574219 C 61.722656 200.863281 63.023438 201.953125 64.222656 201.953125 C 65.3125 201.953125 66.617188 200.863281 66.617188 198.574219 C 66.5625 196.132812 65.367188 195.199219 64.222656 195.199219 Z M 64.222656 192.703125 C 61.621094 192.703125 58.914062 194.886719 58.914062 198.523438 C 58.914062 202.210938 61.515625 204.394531 64.222656 204.394531 C 66.824219 204.394531 69.425781 202.210938 69.425781 198.523438 C 69.425781 194.832031 66.824219 192.703125 64.222656 192.703125 Z M 64.222656 192.703125 "/>
<path style=" stroke:none;fill-rule:evenodd;fill:rgb(0%,0%,0%);fill-opacity:1;" d="M 83.476562 203.824219 L 84.570312 203.824219 L 88.265625 193.117188 L 85.039062 193.117188 L 82.851562 200.394531 L 80.5625 193.117188 L 77.542969 193.117188 L 81.34375 203.824219 Z M 83.476562 203.824219 "/>
<path style=" stroke:none;fill-rule:evenodd;fill:rgb(0%,0%,0%);fill-opacity:1;" d="M 140.984375 197.328125 L 145.199219 197.328125 C 145.199219 196.339844 144.417969 195.144531 143.011719 195.144531 C 141.710938 195.199219 140.984375 196.238281 140.984375 197.328125 Z M 140.828125 199.40625 L 148.007812 199.40625 C 148.113281 198.109375 147.59375 192.808594 143.011719 192.808594 C 139.003906 192.808594 138.121094 197.015625 138.121094 198.417969 C 138.121094 199.71875 138.902344 204.03125 143.324219 204.03125 C 145.824219 204.03125 147.125 202.628906 147.4375 202.316406 L 145.71875 200.601562 C 145.71875 200.601562 144.9375 201.691406 143.324219 201.691406 C 141.710938 201.691406 140.828125 200.496094 140.828125 199.40625 Z M 140.828125 199.40625 "/>
</g>
</svg>
