<?xml version="1.0" encoding="UTF-8"?>
<svg xmlns="http://www.w3.org/2000/svg" xmlns:xlink="http://www.w3.org/1999/xlink" width="200px" height="px" viewBox="0 0 200 200" version="1.1">
<g id="surface1">
<path style=" stroke:none;fill-rule:nonzero;fill:rgb(92.54902%,11.372549%,14.117648%);fill-opacity:1;" d="M 100.042969 200.042969 C 44.816406 200.042969 0.0429688 155.273438 0.0429688 100.042969 C 0.0429688 44.816406 44.816406 0.0429688 100.042969 0.0429688 C 155.273438 0.0429688 200.042969 44.816406 200.042969 100.042969 C 200.042969 155.273438 155.273438 200.042969 100.042969 200.042969 Z M 100.042969 200.042969 "/>
<path style=" stroke:none;fill-rule:nonzero;fill:rgb(100%,100%,100%);fill-opacity:1;" d="M 100.042969 180.042969 C 55.863281 180.042969 20.042969 144.226562 20.042969 100.042969 C 20.042969 55.863281 55.863281 20.042969 100.042969 20.042969 C 144.226562 20.042969 180.042969 55.863281 180.042969 100.042969 C 180.042969 144.226562 144.226562 180.042969 100.042969 180.042969 Z M 100.042969 180.042969 "/>
<path style=" stroke:none;fill-rule:nonzero;fill:rgb(0%,0%,0%);fill-opacity:1;" d="M 145.996094 92.722656 C 142.570312 92.722656 139.300781 93.402344 136.328125 94.652344 L 126.386719 77.328125 L 128.273438 72.132812 C 133.234375 71.648438 135.023438 67.089844 135.023438 66.316406 C 135.023438 65.542969 134.101562 65.542969 134.101562 65.542969 L 112.601562 65.542969 C 112.121094 65.542969 110.539062 65.949219 110.539062 67.644531 C 110.539062 69.335938 112.34375 69.632812 112.34375 69.632812 L 121.769531 71.707031 L 119.484375 77.988281 L 73.800781 77.988281 C 74.363281 75.878906 74.710938 74.578125 74.710938 74.578125 C 74.710938 74.578125 75.105469 73.300781 75.105469 72.761719 C 75.105469 70.203125 73.207031 68.289062 72.40625 67.859375 C 72.246094 67.773438 71.710938 67.53125 71.710938 66.816406 C 71.710938 66.097656 72.128906 65.496094 73.042969 65.496094 L 82.566406 65.496094 L 82.566406 59.164062 L 70.589844 59.164062 C 70.589844 59.164062 64.304688 59.75 64.304688 66.183594 C 64.304688 69.941406 66.171875 70.796875 67.644531 71.679688 C 68.132812 71.976562 68.574219 73.203125 68.378906 73.890625 C 68.265625 74.292969 65.339844 85.265625 62.925781 94.332031 C 60.179688 93.292969 57.203125 92.722656 54.09375 92.722656 C 40.289062 92.722656 29.101562 103.914062 29.101562 117.71875 C 29.101562 131.519531 40.289062 142.710938 54.09375 142.710938 C 67.898438 142.710938 79.085938 131.519531 79.085938 117.71875 C 79.085938 109.324219 74.949219 101.902344 68.605469 97.367188 C 68.878906 96.351562 69.15625 95.316406 69.433594 94.277344 L 98.460938 114.554688 C 98.144531 115.554688 97.972656 116.617188 97.972656 117.71875 C 97.972656 123.496094 102.660156 128.183594 108.4375 128.183594 C 109.472656 128.183594 110.472656 128.03125 111.414062 127.753906 L 112.964844 131.132812 L 110.300781 131.132812 L 110.300781 134.519531 L 113.289062 134.519531 C 113.757812 135.261719 114.585938 135.753906 115.527344 135.753906 C 116.46875 135.753906 117.296875 135.261719 117.765625 134.519531 L 120.683594 134.519531 L 120.683594 131.132812 L 116.316406 131.132812 L 114.136719 126.5 C 116.386719 125.035156 118.035156 122.734375 118.648438 120.039062 L 121.035156 120.074219 C 122.242188 132.753906 133 142.710938 145.996094 142.710938 C 159.796875 142.710938 170.988281 131.519531 170.988281 117.71875 C 170.988281 103.914062 159.796875 92.722656 145.996094 92.722656 Z M 145.996094 92.722656 "/>
<path style=" stroke:none;fill-rule:nonzero;fill:rgb(100%,100%,100%);fill-opacity:1;" d="M 108.4375 111.15625 C 112.0625 111.15625 115 114.09375 115 117.71875 C 115 121.339844 112.0625 124.277344 108.4375 124.277344 C 104.816406 124.277344 101.878906 121.339844 101.878906 117.71875 C 101.878906 114.09375 104.816406 111.15625 108.4375 111.15625 Z M 108.4375 111.15625 "/>
<path style=" stroke:none;fill-rule:nonzero;fill:rgb(100%,100%,100%);fill-opacity:1;" d="M 108.847656 107.261719 C 108.710938 107.253906 108.578125 107.25 108.4375 107.25 C 107.347656 107.25 106.296875 107.417969 105.304688 107.730469 L 103.753906 104.425781 L 106.597656 104.425781 L 106.597656 101.039062 L 103.683594 101.039062 C 103.214844 100.296875 102.386719 99.804688 101.445312 99.804688 C 100.5 99.804688 99.671875 100.296875 99.203125 101.039062 L 96.214844 101.039062 L 96.214844 104.425781 L 100.703125 104.425781 L 102.765625 108.921875 C 102.519531 109.082031 102.28125 109.25 102.050781 109.429688 L 71.160156 87.84375 C 71.492188 86.605469 71.8125 85.398438 72.121094 84.25 L 117.210938 84.25 Z M 108.847656 107.261719 "/>
<path style=" stroke:none;fill-rule:nonzero;fill:rgb(100%,100%,100%);fill-opacity:1;" d="M 130.886719 97.808594 L 123.582031 85.039062 L 114.742188 109.363281 C 116.699219 110.84375 118.121094 112.992188 118.664062 115.472656 L 121.101562 115.472656 C 121.742188 108.269531 125.441406 101.945312 130.886719 97.808594 Z M 130.886719 97.808594 "/>
<path style=" stroke:none;fill-rule:nonzero;fill:rgb(100%,100%,100%);fill-opacity:1;" d="M 134.554688 104.328125 C 131.304688 107.121094 129.019531 111.019531 128.472656 115.488281 L 140.988281 115.488281 Z M 134.554688 104.328125 "/>
<path style=" stroke:none;fill-rule:nonzero;fill:rgb(100%,100%,100%);fill-opacity:1;" d="M 140.050781 101.183594 L 148.792969 116.355469 C 148.792969 116.355469 149.21875 117.054688 149.21875 117.808594 C 149.21875 120.039062 146.933594 120.039062 145.847656 120.039062 L 128.523438 120.070312 C 129.6875 128.691406 137.058594 135.371094 145.996094 135.371094 C 155.742188 135.371094 163.648438 127.464844 163.648438 117.71875 C 163.648438 107.96875 155.742188 100.066406 145.996094 100.066406 C 143.882812 100.066406 141.925781 100.503906 140.050781 101.183594 Z M 140.050781 101.183594 "/>
<path style=" stroke:none;fill-rule:nonzero;fill:rgb(100%,100%,100%);fill-opacity:1;" d="M 66.515625 105.175781 C 65.664062 108.355469 65.074219 110.554688 64.992188 110.855469 C 63.0625 118.023438 55.695312 120.234375 54.191406 120.234375 C 52.570312 120.234375 51.589844 119.152344 51.589844 117.632812 C 51.589844 116.109375 52.816406 115.667969 53.257812 115.324219 C 58.855469 110.957031 59.738281 106.292969 59.738281 106.292969 C 59.738281 106.292969 60.25 104.375 61.019531 101.476562 C 58.894531 100.570312 56.554688 100.066406 54.09375 100.066406 C 44.34375 100.066406 36.441406 107.96875 36.441406 117.71875 C 36.441406 127.464844 44.34375 135.371094 54.09375 135.371094 C 63.84375 135.371094 71.746094 127.464844 71.746094 117.71875 C 71.746094 112.8125 69.746094 108.375 66.515625 105.175781 Z M 66.515625 105.175781 "/>
</g>
</svg>
