<?xml version="1.0" encoding="UTF-8"?>
<svg xmlns="http://www.w3.org/2000/svg" xmlns:xlink="http://www.w3.org/1999/xlink" width="200px" height="px" viewBox="0 0 200 200" version="1.1">
<defs>
<clipPath id="clip1">
  <path d="M 0 0 L 199.792969 0 L 199.792969 200 L 0 200 Z M 0 0 "/>
</clipPath>
</defs>
<g id="surface1">
<path style=" stroke:none;fill-rule:evenodd;fill:rgb(100%,100%,100%);fill-opacity:1;" d="M 99.886719 0.980469 C 154.488281 0.980469 198.808594 45.285156 198.808594 99.886719 C 198.808594 154.484375 154.488281 198.792969 99.886719 198.792969 C 45.28125 198.792969 0.960938 154.484375 0.960938 99.886719 C 0.960938 45.289062 45.28125 0.984375 99.886719 0.984375 "/>
<g clip-path="url(#clip1)" clip-rule="nonzero">
<path style="fill:none;stroke-width:1.7;stroke-linecap:butt;stroke-linejoin:miter;stroke:rgb(0%,47.450981%,75.686276%);stroke-opacity:1;stroke-miterlimit:10;" d="M 0.00167454 -0.00104688 C 47.395831 -0.00104688 85.865862 -38.457516 85.865862 -85.851672 C 85.865862 -133.242438 47.395831 -171.702297 0.00167454 -171.702297 C -47.395872 -171.702297 -85.865904 -133.242438 -85.865904 -85.851672 C -85.865904 -38.460906 -47.395872 -0.0044375 0.00167454 -0.0044375 " transform="matrix(1.152074,0,0,-1.152074,99.88479,0.979263)"/>
</g>
<path style=" stroke:none;fill-rule:evenodd;fill:rgb(0%,47.450981%,75.686276%);fill-opacity:1;" d="M 99.886719 5.785156 C 151.835938 5.785156 193.992188 47.941406 193.992188 99.878906 C 193.992188 151.816406 151.835938 193.976562 99.886719 193.976562 C 47.933594 193.976562 5.777344 151.816406 5.777344 99.878906 C 5.777344 47.941406 47.933594 5.785156 99.886719 5.785156 "/>
<path style=" stroke:none;fill-rule:evenodd;fill:rgb(100%,100%,100%);fill-opacity:1;" d="M 82.285156 38.304688 C 83.28125 34.824219 84.273438 31.335938 85.269531 27.851562 L 85.4375 27.851562 C 85.4375 27.683594 85.269531 27.519531 85.105469 27.351562 C 83.777344 26.855469 83.113281 25.695312 83.113281 24.367188 C 83.113281 22.542969 84.441406 21.214844 86.265625 21.050781 L 91.90625 21.050781 L 91.90625 24.367188 L 87.09375 24.367188 C 86.929688 24.367188 86.765625 24.535156 86.765625 24.699219 C 86.765625 24.863281 86.765625 25.03125 86.929688 25.195312 C 87.925781 25.695312 88.589844 26.523438 88.589844 27.683594 C 88.589844 28.183594 88.589844 28.347656 88.421875 28.847656 C 88.421875 29.015625 87.925781 30.503906 87.925781 30.503906 L 110.164062 30.503906 C 110.496094 29.511719 110.996094 28.347656 111.492188 27.1875 C 109.832031 26.855469 108.171875 26.523438 106.351562 26.027344 C 106.015625 25.859375 105.851562 25.527344 105.851562 25.195312 C 105.851562 24.699219 106.183594 24.367188 106.679688 24.367188 L 117.964844 24.367188 C 117.964844 26.191406 116.640625 27.683594 114.816406 27.683594 C 114.480469 28.515625 114.148438 29.511719 113.652344 30.503906 C 114.980469 32.996094 116.308594 35.652344 117.804688 38.304688 C 119.296875 37.644531 120.785156 37.3125 122.453125 37.3125 C 129.089844 37.3125 134.566406 42.785156 134.566406 49.59375 C 134.566406 56.230469 129.089844 61.707031 122.453125 61.707031 C 116.144531 61.707031 110.996094 57.058594 110.332031 50.753906 L 108.839844 50.753906 C 108.503906 51.914062 107.839844 52.914062 106.847656 53.574219 C 107.183594 54.40625 107.511719 55.234375 108.011719 56.066406 L 110 56.066406 L 110 57.722656 L 108.671875 57.722656 C 108.503906 57.886719 108.171875 58.054688 107.839844 58.054688 C 107.511719 58.054688 107.183594 57.886719 106.847656 57.722656 L 105.1875 57.722656 L 105.1875 56.066406 L 106.679688 56.066406 C 106.351562 55.402344 106.015625 54.738281 105.6875 54.074219 C 105.023438 54.40625 104.855469 54.40625 104.195312 54.40625 C 101.535156 54.40625 99.210938 52.25 99.210938 49.59375 C 99.210938 49.09375 99.375 48.597656 99.542969 48.097656 C 94.898438 44.945312 90.246094 41.792969 85.605469 38.472656 C 85.4375 38.804688 85.269531 39.304688 85.105469 39.800781 L 85.269531 39.964844 C 88.257812 42.289062 89.917969 45.773438 89.917969 49.59375 C 89.917969 56.230469 84.441406 61.707031 77.800781 61.707031 C 70.996094 61.707031 65.519531 56.230469 65.519531 49.59375 C 65.519531 42.785156 70.996094 37.3125 77.800781 37.3125 C 79.625 37.3125 80.453125 37.476562 82.121094 38.140625 Z M 100.875 49.59375 C 100.875 51.25 102.367188 52.746094 104.195312 52.746094 C 105.851562 52.746094 107.34375 51.25 107.34375 49.59375 C 107.34375 47.769531 105.851562 46.273438 104.195312 46.273438 C 102.367188 46.273438 100.875 47.769531 100.875 49.59375 M 84.109375 43.785156 C 83.945312 44.445312 83.777344 45.109375 83.445312 45.9375 C 82.617188 48.265625 80.289062 50.089844 77.964844 50.753906 L 77.800781 50.753906 C 77.136719 50.753906 76.476562 50.257812 76.476562 49.59375 C 76.476562 49.09375 76.804688 48.761719 76.972656 48.597656 C 76.972656 48.597656 77.136719 48.597656 77.304688 48.433594 C 78.628906 47.433594 79.792969 46.4375 80.289062 44.945312 C 80.621094 43.945312 80.953125 42.953125 81.285156 41.792969 C 80.125 41.296875 78.964844 40.960938 77.800781 40.960938 C 72.988281 40.960938 69.171875 44.777344 69.171875 49.59375 C 69.171875 54.238281 72.988281 58.054688 77.800781 58.054688 C 82.453125 58.054688 86.265625 54.238281 86.265625 49.59375 C 86.265625 47.265625 85.4375 45.273438 84.109375 43.785156 M 107.34375 45.9375 C 108.839844 41.957031 110.496094 37.976562 112.160156 33.828125 C 113.160156 35.652344 114.148438 37.644531 115.308594 39.632812 C 112.324219 41.792969 110.664062 44.777344 110.332031 48.265625 L 108.839844 48.265625 C 108.671875 47.433594 108.171875 46.601562 107.511719 45.9375 Z M 116.976562 42.953125 C 115.308594 44.28125 114.320312 46.105469 113.988281 48.265625 L 119.957031 48.265625 C 118.964844 46.601562 117.964844 44.777344 116.976562 42.953125 M 123.445312 49.09375 C 123.613281 49.261719 123.613281 49.425781 123.613281 49.59375 C 123.613281 50.257812 123.113281 50.753906 122.453125 50.753906 L 113.988281 50.753906 C 114.648438 54.902344 118.136719 58.054688 122.453125 58.054688 C 127.09375 58.054688 130.914062 54.238281 130.914062 49.59375 C 130.914062 44.777344 127.09375 40.960938 122.453125 40.960938 C 121.449219 40.960938 120.457031 41.128906 119.625 41.457031 C 120.785156 43.945312 122.117188 46.4375 123.445312 49.09375 M 101.367188 45.441406 C 101.035156 44.777344 100.703125 43.945312 100.207031 43.121094 L 98.214844 43.121094 L 98.214844 41.457031 L 99.542969 41.457031 C 99.875 41.128906 100.207031 40.960938 100.539062 40.960938 C 100.875 40.960938 101.203125 41.128906 101.367188 41.457031 L 103.035156 41.457031 L 103.035156 43.121094 L 101.535156 43.121094 C 101.863281 43.617188 102.203125 44.28125 102.535156 44.945312 L 102.699219 44.945312 C 103.035156 44.777344 103.695312 44.613281 104.195312 44.613281 L 104.355469 44.613281 C 105.851562 40.960938 107.34375 37.144531 109.003906 33.328125 L 87.09375 33.328125 C 86.929688 33.996094 86.765625 34.824219 86.433594 35.652344 C 91.246094 38.96875 96.058594 42.289062 101.035156 45.773438 C 101.035156 45.773438 101.203125 45.609375 101.367188 45.441406 "/>
<path style="fill:none;stroke-width:0.144;stroke-linecap:butt;stroke-linejoin:miter;stroke:rgb(100%,100%,100%);stroke-opacity:1;stroke-miterlimit:10;" d="M 0.000517578 0.00153125 C 0.865127 3.022578 1.726346 6.050406 2.590955 9.074844 L 2.736752 9.074844 C 2.736752 9.220641 2.590955 9.363047 2.448549 9.508844 C 1.295736 9.939453 0.71933 10.946469 0.71933 12.099281 C 0.71933 13.682703 1.872143 14.835516 3.455564 14.977922 L 8.351627 14.977922 L 8.351627 12.099281 L 4.174377 12.099281 C 4.031971 12.099281 3.889564 11.953484 3.889564 11.811078 C 3.889564 11.668672 3.889564 11.522875 4.031971 11.380469 C 4.89658 10.946469 5.472986 10.227656 5.472986 9.220641 C 5.472986 8.786641 5.472986 8.644234 5.327189 8.210234 C 5.327189 8.064437 4.89658 6.772609 4.89658 6.772609 L 24.199408 6.772609 C 24.487611 7.633828 24.921611 8.644234 25.352221 9.65125 C 23.911205 9.939453 22.470189 10.227656 20.890158 10.658266 C 20.598564 10.804062 20.456158 11.092266 20.456158 11.380469 C 20.456158 11.811078 20.744361 12.099281 21.174971 12.099281 L 30.970486 12.099281 C 30.970486 10.515859 29.821064 9.220641 28.237643 9.220641 C 27.946049 8.498437 27.657846 7.633828 27.227236 6.772609 C 28.380049 4.609391 29.532861 2.303766 30.831471 0.00153125 C 32.126689 0.574547 33.418518 0.86275 34.866314 0.86275 C 40.626986 0.86275 45.380643 -3.887516 45.380643 -9.797375 C 45.380643 -15.558047 40.626986 -20.311703 34.866314 -20.311703 C 29.390455 -20.311703 24.921611 -16.276859 24.345205 -10.804391 L 23.049986 -10.804391 C 22.758393 -11.811406 22.181986 -12.679406 21.320768 -13.252422 C 21.612361 -13.974625 21.897174 -14.693438 22.331174 -15.415641 L 24.057002 -15.415641 L 24.057002 -16.853266 L 22.904189 -16.853266 C 22.758393 -16.995672 22.470189 -17.141469 22.181986 -17.141469 C 21.897174 -17.141469 21.612361 -16.995672 21.320768 -16.853266 L 19.879752 -16.853266 L 19.879752 -15.415641 L 21.174971 -15.415641 C 20.890158 -14.839234 20.598564 -14.262828 20.313752 -13.686422 C 19.737346 -13.974625 19.591549 -13.974625 19.018533 -13.974625 C 16.709518 -13.974625 14.692096 -12.103 14.692096 -9.797375 C 14.692096 -9.363375 14.834502 -8.932766 14.980299 -8.498766 C 10.948846 -5.762531 6.910611 -3.026297 2.882549 -0.144266 C 2.736752 -0.432469 2.590955 -0.866469 2.448549 -1.297078 L 2.590955 -1.439484 C 5.184783 -3.456906 6.625799 -6.481344 6.625799 -9.797375 C 6.625799 -15.558047 1.872143 -20.311703 -3.89192 -20.311703 C -9.798389 -20.311703 -14.552045 -15.558047 -14.552045 -9.797375 C -14.552045 -3.887516 -9.798389 0.86275 -3.89192 0.86275 C -2.308498 0.86275 -1.589686 0.720344 -0.141889 0.143937 Z M 0.000517578 0.00153125 " transform="matrix(1.152074,0,0,-1.152074,82.28456,38.306452)"/>
<path style="fill:none;stroke-width:0.144;stroke-linecap:butt;stroke-linejoin:miter;stroke:rgb(100%,100%,100%);stroke-opacity:1;stroke-miterlimit:10;" d="M 0.00150172 -0.000375069 C 0.00150172 -1.441391 1.29672 -2.736609 2.883533 -2.736609 C 4.321158 -2.736609 5.616377 -1.441391 5.616377 -0.000375069 C 5.616377 1.583047 4.321158 2.881656 2.883533 2.881656 C 1.29672 2.881656 0.00150172 1.583047 0.00150172 -0.000375069 Z M 0.00150172 -0.000375069 " transform="matrix(1.152074,0,0,-1.152074,100.87327,49.593318)"/>
<path style="fill:none;stroke-width:0.144;stroke-linecap:butt;stroke-linejoin:miter;stroke:rgb(100%,100%,100%);stroke-opacity:1;stroke-miterlimit:10;" d="M -0.0000611343 -0.00151591 C -0.142467 -0.574532 -0.288264 -1.150938 -0.576467 -1.86975 C -1.29528 -3.890563 -3.316092 -5.473985 -5.333514 -6.050391 L -5.475921 -6.050391 C -6.052327 -6.050391 -6.625342 -5.619782 -6.625342 -5.043375 C -6.625342 -4.609375 -6.34053 -4.321172 -6.194733 -4.178766 C -6.194733 -4.178766 -6.052327 -4.178766 -5.90653 -4.03636 C -4.757108 -3.16836 -3.746702 -2.30375 -3.316092 -1.008532 C -3.027889 -0.143922 -2.739686 0.720687 -2.451483 1.727703 C -3.458499 2.158312 -4.465514 2.449906 -5.475921 2.449906 C -9.653171 2.449906 -12.965811 -0.862735 -12.965811 -5.043375 C -12.965811 -9.074828 -9.653171 -12.387469 -5.475921 -12.387469 C -1.437686 -12.387469 1.871564 -9.074828 1.871564 -5.043375 C 1.871564 -3.022563 1.152751 -1.293344 -0.0000611343 -0.00151591 Z M -0.0000611343 -0.00151591 " transform="matrix(1.152074,0,0,-1.152074,84.109445,43.78341)"/>
<path style="fill:none;stroke-width:0.144;stroke-linecap:butt;stroke-linejoin:miter;stroke:rgb(100%,100%,100%);stroke-opacity:1;stroke-miterlimit:10;" d="M -0.000622902 0.00124976 C 1.297986 3.456297 2.735611 6.911344 4.180018 10.512187 C 5.048018 8.928765 5.905846 7.199547 6.912861 5.473719 C 4.322424 3.598703 2.881408 1.008265 2.593205 -2.019563 L 1.297986 -2.019563 C 1.15219 -1.29736 0.71819 -0.575156 0.145174 0.00124976 Z M -0.000622902 0.00124976 " transform="matrix(1.152074,0,0,-1.152074,107.344468,45.93894)"/>
<path style="fill:none;stroke-width:0.144;stroke-linecap:butt;stroke-linejoin:miter;stroke:rgb(100%,100%,100%);stroke-opacity:1;stroke-miterlimit:10;" d="M 0.00165814 -0.000312746 C -1.446139 -1.153125 -2.303967 -2.736547 -2.59217 -4.611563 L 2.588705 -4.611563 C 1.727486 -3.167156 0.859486 -1.583735 0.00165814 -0.000312746 Z M 0.00165814 -0.000312746 " transform="matrix(1.152074,0,0,-1.152074,116.974652,42.952765)"/>
<path style="fill:none;stroke-width:0.144;stroke-linecap:butt;stroke-linejoin:miter;stroke:rgb(100%,100%,100%);stroke-opacity:1;stroke-miterlimit:10;" d="M -0.00146689 0.00162453 C 0.14433 -0.144172 0.14433 -0.286579 0.14433 -0.432375 C 0.14433 -1.008782 -0.28967 -1.439391 -0.862686 -1.439391 L -8.21017 -1.439391 C -7.637154 -5.040235 -4.609326 -7.776469 -0.862686 -7.776469 C 3.165377 -7.776469 6.481408 -4.463829 6.481408 -0.432375 C 6.481408 3.748265 3.165377 7.060906 -0.862686 7.060906 C -1.734076 7.060906 -2.595295 6.915109 -3.317498 6.630296 C -2.310483 4.470468 -1.154279 2.31064 -0.00146689 0.00162453 Z M -0.00146689 0.00162453 " transform="matrix(1.152074,0,0,-1.152074,123.447002,49.095622)"/>
<path style="fill:none;stroke-width:0.144;stroke-linecap:butt;stroke-linejoin:miter;stroke:rgb(100%,100%,100%);stroke-opacity:1;stroke-miterlimit:10;" d="M -0.000278473 -0.000141024 C -0.288482 0.576265 -0.576685 1.298468 -1.007294 2.017281 L -2.736513 2.017281 L -2.736513 3.458296 L -1.5837 3.458296 C -1.295497 3.743109 -1.007294 3.888906 -0.719091 3.888906 C -0.430888 3.888906 -0.146075 3.743109 -0.000278473 3.458296 L 1.444128 3.458296 L 1.444128 2.017281 L 0.145518 2.017281 C 0.430331 1.583281 0.725315 1.006875 1.013518 0.430468 L 1.155925 0.430468 C 1.444128 0.576265 2.020534 0.722062 2.454534 0.722062 L 2.59355 0.722062 C 3.892159 3.888906 5.187378 7.201546 6.628393 10.517578 L -12.389622 10.517578 C -12.532028 9.93439 -12.674435 9.215578 -12.966028 8.496765 C -8.785388 5.618125 -4.608138 2.736093 -0.288482 -0.288344 C -0.288482 -0.288344 -0.146075 -0.145938 -0.000278473 -0.000141024 Z M -0.000278473 -0.000141024 " transform="matrix(1.152074,0,0,-1.152074,101.367508,45.441244)"/>
<path style=" stroke:none;fill-rule:evenodd;fill:rgb(100%,100%,100%);fill-opacity:1;" d="M 22.863281 120.785156 L 22.863281 120.945312 C 22.8125 120.945312 22.753906 120.949219 22.699219 120.949219 C 20.496094 120.949219 18.714844 119.160156 18.714844 116.964844 L 18.714844 99.703125 C 18.714844 98.609375 19.605469 97.714844 20.703125 97.714844 L 21.707031 75.140625 C 21.796875 74.113281 22.65625 73.316406 23.695312 73.316406 C 23.753906 73.316406 23.804688 73.320312 23.863281 73.324219 L 24.855469 73.316406 L 171.238281 73.316406 C 176.828125 73.316406 181.359375 77.851562 181.359375 83.441406 L 181.359375 113.976562 L 146.347656 121.113281 C 146.675781 120.121094 146.84375 119.125 146.84375 117.957031 C 146.84375 112.484375 142.199219 107.839844 136.71875 107.839844 C 131.074219 107.839844 126.59375 112.484375 126.59375 117.957031 C 126.59375 119.125 126.59375 120.121094 126.925781 121.113281 L 65.015625 121.113281 C 65.351562 120.121094 65.515625 119.125 65.515625 117.957031 C 65.515625 112.484375 60.863281 107.839844 55.390625 107.839844 C 49.746094 107.839844 45.101562 112.484375 45.101562 117.957031 C 45.101562 119.125 45.265625 120.121094 45.597656 121.113281 L 22.878906 120.785156 Z M 38.964844 83.441406 C 38.964844 82.339844 38.074219 81.453125 36.972656 81.453125 L 31 81.457031 C 30.945312 81.453125 30.886719 81.453125 30.828125 81.453125 C 29.734375 81.453125 28.839844 82.339844 28.839844 83.441406 L 28.847656 112.980469 C 28.9375 114.011719 29.796875 114.804688 30.828125 114.804688 C 30.886719 114.804688 30.945312 114.804688 31 114.800781 L 36.972656 114.804688 C 38.007812 114.804688 38.871094 114.011719 38.957031 112.980469 Z M 48.257812 95.390625 L 48.257812 95.546875 C 48.203125 95.554688 48.148438 95.558594 48.09375 95.558594 C 46.996094 95.558594 46.101562 94.664062 46.101562 93.566406 L 46.101562 83.441406 C 46.101562 82.339844 46.996094 81.453125 48.09375 81.453125 C 48.148438 81.453125 48.203125 81.453125 48.257812 81.457031 L 72.660156 81.453125 C 73.753906 81.453125 74.648438 82.339844 74.648438 83.441406 L 74.648438 93.566406 C 74.648438 94.664062 73.753906 95.558594 72.660156 95.558594 Z M 81.789062 95.558594 C 80.6875 95.558594 79.792969 94.664062 79.792969 93.566406 L 79.792969 83.441406 C 79.792969 82.339844 80.6875 81.453125 81.789062 81.453125 L 106.183594 81.453125 C 107.28125 81.453125 108.171875 82.339844 108.171875 83.441406 L 108.171875 93.566406 C 108.171875 94.664062 107.28125 95.558594 106.183594 95.558594 Z M 115.308594 95.558594 C 114.210938 95.558594 113.320312 94.664062 113.320312 93.566406 L 113.320312 83.441406 C 113.320312 82.339844 114.210938 81.453125 115.308594 81.453125 L 139.710938 81.453125 C 140.808594 81.453125 141.699219 82.339844 141.699219 83.441406 L 141.699219 93.566406 C 141.699219 94.664062 140.808594 95.558594 139.710938 95.558594 Z M 148.835938 95.558594 C 147.738281 95.558594 146.847656 94.664062 146.847656 93.566406 L 146.847656 83.441406 C 146.847656 82.339844 147.738281 81.453125 148.835938 81.453125 L 169.25 81.453125 C 172.644531 81.453125 175.398438 84.128906 175.398438 87.421875 L 175.226562 93.566406 C 175.226562 94.664062 174.335938 95.558594 173.238281 95.558594 L 148.835938 95.558594 "/>
<path style="fill:none;stroke-width:0.144;stroke-linecap:butt;stroke-linejoin:miter;stroke:rgb(100%,100%,100%);stroke-opacity:1;stroke-miterlimit:10;" d="M -0.001672 -0.00151318 L -0.001672 -0.140529 C -0.0457501 -0.140529 -0.0966095 -0.143919 -0.144078 -0.143919 C -2.056391 -0.143919 -3.602516 1.408987 -3.602516 3.314518 L -3.602516 18.29769 C -3.602516 19.247065 -2.829453 20.023518 -1.876688 20.023518 L -1.005297 39.61794 C -0.927313 40.509674 -0.181375 41.201362 0.720531 41.201362 C 0.771391 41.201362 0.815469 41.197971 0.866328 41.194581 L 1.727547 41.201362 L 128.787828 41.201362 C 133.639812 41.201362 137.572937 37.264846 137.572937 32.412862 L 137.572937 5.908346 L 107.182766 -0.286326 C 107.467578 0.574893 107.613375 1.439502 107.613375 2.453299 C 107.613375 7.203565 103.581922 11.235018 98.824875 11.235018 C 93.925422 11.235018 90.036375 7.203565 90.036375 2.453299 C 90.036375 1.439502 90.036375 0.574893 90.324578 -0.286326 L 36.586562 -0.286326 C 36.878156 0.574893 37.020562 1.439502 37.020562 2.453299 C 37.020562 7.203565 32.982328 11.235018 28.232062 11.235018 C 23.332609 11.235018 19.301156 7.203565 19.301156 2.453299 C 19.301156 1.439502 19.443562 0.574893 19.731766 -0.286326 L 0.0118905 -0.00151318 Z M -0.001672 -0.00151318 " transform="matrix(1.152074,0,0,-1.152074,22.865208,120.783413)"/>
<path style="fill:none;stroke-width:0.144;stroke-linecap:butt;stroke-linejoin:miter;stroke:rgb(100%,100%,100%);stroke-opacity:1;stroke-miterlimit:10;" d="M 0.00148468 0.000863068 C 0.00148468 0.957019 -0.771578 1.730082 -1.727734 1.730082 L -6.912 1.726691 C -6.959468 1.730082 -7.010328 1.730082 -7.061187 1.730082 C -8.010562 1.730082 -8.787015 0.957019 -8.787015 0.000863068 L -8.780234 -25.639043 C -8.70225 -26.534168 -7.956312 -27.222465 -7.061187 -27.222465 C -7.010328 -27.222465 -6.959468 -27.222465 -6.912 -27.219074 L -1.727734 -27.222465 C -0.829218 -27.222465 -0.0798903 -26.534168 -0.00529657 -25.639043 Z M 0.00148468 0.000863068 " transform="matrix(1.152074,0,0,-1.152074,38.963133,83.442401)"/>
<path style="fill:none;stroke-width:0.144;stroke-linecap:butt;stroke-linejoin:miter;stroke:rgb(100%,100%,100%);stroke-opacity:1;stroke-miterlimit:10;" d="M -0.000218285 -0.0000585175 L -0.000218285 -0.135684 C -0.047687 -0.142465 -0.0951558 -0.145855 -0.142625 -0.145855 C -1.09539 -0.145855 -1.871843 0.630598 -1.871843 1.583363 L -1.871843 10.371863 C -1.871843 11.32802 -1.09539 12.101082 -0.142625 12.101082 C -0.0951558 12.101082 -0.047687 12.101082 -0.000218285 12.097691 L 21.181016 12.101082 C 22.130391 12.101082 22.906844 11.32802 22.906844 10.371863 L 22.906844 1.583363 C 22.906844 0.630598 22.130391 -0.145855 21.181016 -0.145855 Z M -0.000218285 -0.0000585175 " transform="matrix(1.152074,0,0,-1.152074,48.258064,95.390558)"/>
<path style="fill:none;stroke-width:0.144;stroke-linecap:butt;stroke-linejoin:miter;stroke:rgb(100%,100%,100%);stroke-opacity:1;stroke-miterlimit:10;" d="M 0.000906624 -0.000855397 C -0.95525 -0.000855397 -1.731703 0.775598 -1.731703 1.728363 L -1.731703 10.516863 C -1.731703 11.47302 -0.95525 12.242691 0.000906624 12.242691 L 21.17536 12.242691 C 22.128125 12.242691 22.901188 11.47302 22.901188 10.516863 L 22.901188 1.728363 C 22.901188 0.775598 22.128125 -0.000855397 21.17536 -0.000855397 Z M 0.000906624 -0.000855397 " transform="matrix(1.152074,0,0,-1.152074,81.788018,95.557608)"/>
<path style="fill:none;stroke-width:0.144;stroke-linecap:butt;stroke-linejoin:miter;stroke:rgb(100%,100%,100%);stroke-opacity:1;stroke-miterlimit:10;" d="M 0.0012508 -0.000855397 C -0.951515 -0.000855397 -1.727968 0.775598 -1.727968 1.728363 L -1.727968 10.516863 C -1.727968 11.47302 -0.951515 12.242691 0.0012508 12.242691 L 21.179095 12.242691 C 22.13186 12.242691 22.904923 11.47302 22.904923 10.516863 L 22.904923 1.728363 C 22.904923 0.775598 22.13186 -0.000855397 21.179095 -0.000855397 Z M 0.0012508 -0.000855397 " transform="matrix(1.152074,0,0,-1.152074,115.311059,95.557608)"/>
<path style="fill:none;stroke-width:0.144;stroke-linecap:butt;stroke-linejoin:miter;stroke:rgb(100%,100%,100%);stroke-opacity:1;stroke-miterlimit:10;" d="M 0.000985893 -0.000855397 C -0.95517 -0.000855397 -1.728233 0.775598 -1.728233 1.728363 L -1.728233 10.516863 C -1.728233 11.47302 -0.95517 12.242691 0.000985893 12.242691 L 17.717002 12.242691 C 20.663455 12.242691 23.053845 9.920113 23.053845 7.061816 L 22.904658 1.728363 C 22.904658 0.775598 22.131595 -0.000855397 21.17883 -0.000855397 Z M 0.000985893 -0.000855397 " transform="matrix(1.152074,0,0,-1.152074,148.838708,95.557608)"/>
<path style=" stroke:none;fill-rule:evenodd;fill:rgb(100%,100%,100%);fill-opacity:1;" d="M 55.230469 113.984375 C 57.425781 113.984375 59.210938 115.769531 59.210938 117.964844 C 59.210938 120.167969 57.425781 121.953125 55.230469 121.953125 C 53.035156 121.953125 51.246094 120.167969 51.246094 117.964844 C 51.246094 115.769531 53.035156 113.984375 55.230469 113.984375 M 55.394531 109.839844 C 59.886719 109.839844 63.53125 113.476562 63.53125 117.964844 C 63.53125 122.457031 59.886719 126.101562 55.394531 126.101562 C 50.90625 126.101562 47.261719 122.457031 47.261719 117.964844 C 47.261719 113.476562 50.90625 109.839844 55.394531 109.839844 "/>
<path style="fill:none;stroke-width:0.144;stroke-linecap:butt;stroke-linejoin:miter;stroke:rgb(100%,100%,100%);stroke-opacity:1;stroke-miterlimit:10;" d="M 0.00104541 0.00156494 C 1.906577 0.00156494 3.456092 -1.547951 3.456092 -3.453482 C 3.456092 -5.365794 1.906577 -6.91531 0.00104541 -6.91531 C -1.904486 -6.91531 -3.457392 -5.365794 -3.457392 -3.453482 C -3.457392 -1.547951 -1.904486 0.00156494 0.00104541 0.00156494 Z M 0.00104541 0.00156494 " transform="matrix(1.152074,0,0,-1.152074,55.229264,113.986178)"/>
<path style="fill:none;stroke-width:0.144;stroke-linecap:butt;stroke-linejoin:miter;stroke:rgb(100%,100%,100%);stroke-opacity:1;stroke-miterlimit:10;" d="M -0.000548334 -0.000981838 C 3.89528 -0.000981838 7.062124 -3.157654 7.062124 -7.053482 C 7.062124 -10.952701 3.89528 -14.116154 -0.000548334 -14.116154 C -3.896376 -14.116154 -7.05983 -10.952701 -7.05983 -7.053482 C -7.05983 -3.157654 -3.896376 -0.000981838 -0.000548334 -0.000981838 Z M -0.000548334 -0.000981838 " transform="matrix(1.152074,0,0,-1.152074,55.395163,109.838713)"/>
<path style=" stroke:none;fill-rule:evenodd;fill:rgb(100%,100%,100%);fill-opacity:1;" d="M 136.5625 113.984375 C 138.757812 113.984375 140.539062 115.769531 140.539062 117.964844 C 140.539062 120.167969 138.757812 121.953125 136.5625 121.953125 C 134.359375 121.953125 132.574219 120.167969 132.574219 117.964844 C 132.574219 115.769531 134.359375 113.984375 136.5625 113.984375 M 136.722656 109.839844 C 141.214844 109.839844 144.859375 113.476562 144.859375 117.964844 C 144.859375 122.457031 141.214844 126.101562 136.722656 126.101562 C 132.234375 126.101562 128.589844 122.457031 128.589844 117.964844 C 128.589844 113.476562 132.234375 109.839844 136.722656 109.839844 "/>
<path style="fill:none;stroke-width:0.144;stroke-linecap:butt;stroke-linejoin:miter;stroke:rgb(100%,100%,100%);stroke-opacity:1;stroke-miterlimit:10;" d="M 0.00125244 0.00156494 C 1.906784 0.00156494 3.452909 -1.547951 3.452909 -3.453482 C 3.452909 -5.365794 1.906784 -6.91531 0.00125244 -6.91531 C -1.91106 -6.91531 -3.460576 -5.365794 -3.460576 -3.453482 C -3.460576 -1.547951 -1.91106 0.00156494 0.00125244 0.00156494 Z M 0.00125244 0.00156494 " transform="matrix(1.152074,0,0,-1.152074,136.561057,113.986178)"/>
<path style="fill:none;stroke-width:0.144;stroke-linecap:butt;stroke-linejoin:miter;stroke:rgb(100%,100%,100%);stroke-opacity:1;stroke-miterlimit:10;" d="M -0.000731936 -0.000981838 C 3.898487 -0.000981838 7.06194 -3.157654 7.06194 -7.053482 C 7.06194 -10.952701 3.898487 -14.116154 -0.000731936 -14.116154 C -3.89656 -14.116154 -7.060013 -10.952701 -7.060013 -7.053482 C -7.060013 -3.157654 -3.89656 -0.000981838 -0.000731936 -0.000981838 Z M -0.000731936 -0.000981838 " transform="matrix(1.152074,0,0,-1.152074,136.723499,109.838713)"/>
</g>
</svg>
