<?xml version="1.0" encoding="UTF-8"?>
<svg xmlns="http://www.w3.org/2000/svg" xmlns:xlink="http://www.w3.org/1999/xlink" width="200px" height="px" viewBox="0 0 200 200" version="1.1">
<g id="surface1">
<path style=" stroke:none;fill-rule:nonzero;fill:rgb(0%,0%,0%);fill-opacity:1;" d="M 199.585938 100.011719 C 199.585938 45.019531 155.003906 0.441406 100.011719 0.441406 C 45.019531 0.441406 0.441406 45.019531 0.441406 100.011719 C 0.441406 155.003906 45.019531 199.585938 100.011719 199.585938 C 155.003906 199.585938 199.585938 155.003906 199.585938 100.011719 Z M 199.585938 100.011719 "/>
<path style=" stroke:none;fill-rule:nonzero;fill:rgb(100%,100%,100%);fill-opacity:1;" d="M 198.925781 100.011719 C 198.925781 45.382812 154.640625 1.097656 100.011719 1.097656 C 45.382812 1.097656 1.097656 45.382812 1.097656 100.011719 C 1.097656 154.640625 45.382812 198.925781 100.011719 198.925781 C 154.640625 198.925781 198.925781 154.640625 198.925781 100.011719 Z M 198.925781 100.011719 "/>
<path style=" stroke:none;fill-rule:nonzero;fill:rgb(0.392157%,38.039216%,61.960787%);fill-opacity:1;" d="M 194.96875 100.011719 C 194.96875 47.570312 152.457031 5.054688 100.011719 5.054688 C 47.570312 5.054688 5.054688 47.570312 5.054688 100.011719 C 5.054688 152.457031 47.570312 194.96875 100.011719 194.96875 C 152.457031 194.96875 194.96875 152.457031 194.96875 100.011719 Z M 194.96875 100.011719 "/>
<path style=" stroke:none;fill-rule:nonzero;fill:rgb(100%,100%,100%);fill-opacity:1;" d="M 150.839844 90.9375 C 147.046875 90.9375 143.433594 91.6875 140.148438 93.070312 L 129.148438 73.925781 L 131.238281 68.183594 C 136.722656 67.648438 138.703125 62.613281 138.703125 61.757812 C 138.703125 60.90625 137.683594 60.90625 137.683594 60.90625 L 113.898438 60.90625 C 113.371094 60.90625 111.621094 61.351562 111.621094 63.222656 C 111.621094 65.097656 113.617188 65.421875 113.617188 65.421875 L 124.042969 67.714844 L 121.515625 74.65625 L 70.980469 74.65625 C 71.605469 72.324219 71.992188 70.886719 71.992188 70.886719 C 71.992188 70.886719 72.425781 69.476562 72.425781 68.878906 C 72.425781 66.050781 70.328125 63.9375 69.441406 63.460938 C 69.265625 63.367188 68.675781 63.101562 68.675781 62.308594 C 68.675781 61.515625 69.136719 60.851562 70.148438 60.851562 L 80.683594 60.851562 L 80.683594 53.851562 L 67.433594 53.851562 C 67.433594 53.851562 60.480469 54.503906 60.480469 61.609375 C 60.480469 65.765625 62.542969 66.710938 64.175781 67.683594 C 64.71875 68.011719 65.207031 69.367188 64.988281 70.125 C 64.863281 70.570312 61.625 82.695312 58.953125 92.714844 C 55.917969 91.566406 52.625 90.9375 49.1875 90.9375 C 33.917969 90.9375 21.542969 103.304688 21.542969 118.554688 C 21.542969 133.808594 33.917969 146.171875 49.1875 146.171875 C 64.453125 146.171875 76.832031 133.808594 76.832031 118.554688 C 76.832031 109.28125 72.257812 101.078125 65.238281 96.070312 C 65.539062 94.949219 65.847656 93.804688 66.15625 92.652344 L 98.261719 115.0625 C 97.910156 116.164062 97.722656 117.335938 97.722656 118.554688 C 97.722656 124.941406 102.90625 130.121094 109.296875 130.121094 C 110.441406 130.121094 111.546875 129.953125 112.589844 129.644531 L 114.304688 133.378906 L 111.355469 133.378906 L 111.355469 137.121094 L 114.660156 137.121094 C 115.179688 137.941406 116.09375 138.484375 117.136719 138.484375 C 118.179688 138.484375 119.09375 137.941406 119.613281 137.121094 L 122.839844 137.121094 L 122.839844 133.378906 L 118.011719 133.378906 L 115.601562 128.257812 C 118.085938 126.644531 119.914062 124.097656 120.589844 121.117188 L 123.230469 121.160156 C 124.5625 135.171875 136.464844 146.171875 150.839844 146.171875 C 166.105469 146.171875 178.484375 133.808594 178.484375 118.554688 C 178.484375 103.304688 166.105469 90.9375 150.839844 90.9375 "/>
<path style=" stroke:none;fill-rule:nonzero;fill:rgb(0.392157%,38.039216%,61.960787%);fill-opacity:1;" d="M 109.75 107 C 109.601562 106.992188 109.449219 106.988281 109.296875 106.988281 C 108.089844 106.988281 106.925781 107.175781 105.832031 107.515625 L 104.113281 103.867188 L 107.261719 103.867188 L 107.261719 100.125 L 104.039062 100.125 C 103.515625 99.304688 102.601562 98.761719 101.558594 98.761719 C 100.519531 98.761719 99.601562 99.304688 99.082031 100.125 L 95.777344 100.125 L 95.777344 103.867188 L 100.738281 103.867188 L 103.023438 108.835938 C 102.75 109.011719 102.488281 109.199219 102.230469 109.394531 L 68.0625 85.546875 C 68.429688 84.175781 68.789062 82.839844 69.128906 81.570312 L 119 81.570312 L 109.75 107 "/>
<path style=" stroke:none;fill-rule:nonzero;fill:rgb(0.392157%,38.039216%,61.960787%);fill-opacity:1;" d="M 134.125 96.554688 L 126.050781 82.445312 L 116.273438 109.324219 C 118.433594 110.957031 120.007812 113.335938 120.605469 116.074219 L 123.304688 116.074219 C 124.015625 108.117188 128.101562 101.128906 134.125 96.554688 "/>
<path style=" stroke:none;fill-rule:nonzero;fill:rgb(0.392157%,38.039216%,61.960787%);fill-opacity:1;" d="M 138.1875 103.761719 C 134.589844 106.847656 132.0625 111.152344 131.457031 116.09375 L 145.300781 116.09375 L 138.1875 103.761719 "/>
<path style=" stroke:none;fill-rule:nonzero;fill:rgb(0.392157%,38.039216%,61.960787%);fill-opacity:1;" d="M 144.261719 100.285156 L 153.933594 117.050781 C 153.933594 117.050781 154.402344 117.824219 154.402344 118.65625 C 154.402344 121.117188 151.878906 121.117188 150.675781 121.117188 L 131.511719 121.15625 C 132.800781 130.679688 140.953125 138.058594 150.839844 138.058594 C 161.621094 138.058594 170.363281 129.328125 170.363281 118.554688 C 170.363281 107.785156 161.621094 99.050781 150.839844 99.050781 C 148.5 99.050781 146.339844 99.53125 144.261719 100.285156 "/>
<path style=" stroke:none;fill-rule:nonzero;fill:rgb(0.392157%,38.039216%,61.960787%);fill-opacity:1;" d="M 62.925781 104.699219 C 61.984375 108.210938 61.332031 110.640625 61.242188 110.972656 C 59.105469 118.894531 50.960938 121.335938 49.296875 121.335938 C 47.503906 121.335938 46.417969 120.140625 46.417969 118.460938 C 46.417969 116.777344 47.773438 116.289062 48.261719 115.910156 C 54.453125 111.082031 55.429688 105.929688 55.429688 105.929688 C 55.429688 105.929688 55.996094 103.8125 56.847656 100.609375 C 54.496094 99.605469 51.90625 99.050781 49.1875 99.050781 C 38.402344 99.050781 29.664062 107.785156 29.664062 118.554688 C 29.664062 129.328125 38.402344 138.058594 49.1875 138.058594 C 59.96875 138.058594 68.710938 129.328125 68.710938 118.554688 C 68.710938 113.136719 66.496094 108.234375 62.925781 104.699219 "/>
<path style=" stroke:none;fill-rule:nonzero;fill:rgb(0.392157%,38.039216%,61.960787%);fill-opacity:1;" d="M 116.542969 118.542969 C 116.542969 114.535156 113.292969 111.289062 109.289062 111.289062 C 105.28125 111.289062 102.035156 114.535156 102.035156 118.542969 C 102.035156 122.546875 105.28125 125.796875 109.289062 125.796875 C 113.292969 125.796875 116.542969 122.546875 116.542969 118.542969 Z M 116.542969 118.542969 "/>
</g>
</svg>
