<?xml version="1.0" encoding="UTF-8"?>
<svg xmlns="http://www.w3.org/2000/svg" xmlns:xlink="http://www.w3.org/1999/xlink" width="200px" height="px" viewBox="0 0 200 200" version="1.1">
<g id="surface1">
<path style=" stroke:none;fill-rule:nonzero;fill:rgb(0%,0%,0%);fill-opacity:1;" d="M 199.585938 100.011719 C 199.585938 45.019531 155.003906 0.441406 100.011719 0.441406 C 45.019531 0.441406 0.441406 45.019531 0.441406 100.011719 C 0.441406 155.003906 45.019531 199.585938 100.011719 199.585938 C 155.003906 199.585938 199.585938 155.003906 199.585938 100.011719 Z M 199.585938 100.011719 "/>
<path style=" stroke:none;fill-rule:nonzero;fill:rgb(100%,100%,100%);fill-opacity:1;" d="M 198.925781 100.011719 C 198.925781 45.382812 154.640625 1.097656 100.011719 1.097656 C 45.382812 1.097656 1.097656 45.382812 1.097656 100.011719 C 1.097656 154.640625 45.382812 198.925781 100.011719 198.925781 C 154.640625 198.925781 198.925781 154.640625 198.925781 100.011719 Z M 198.925781 100.011719 "/>
<path style=" stroke:none;fill-rule:nonzero;fill:rgb(0.392157%,38.039216%,61.960787%);fill-opacity:1;" d="M 194.96875 100.011719 C 194.96875 47.570312 152.457031 5.054688 100.011719 5.054688 C 47.570312 5.054688 5.054688 47.570312 5.054688 100.011719 C 5.054688 152.457031 47.570312 194.96875 100.011719 194.96875 C 152.457031 194.96875 194.96875 152.457031 194.96875 100.011719 Z M 194.96875 100.011719 "/>
<path style=" stroke:none;fill-rule:nonzero;fill:rgb(100%,100%,100%);fill-opacity:1;" d="M 66.214844 97.570312 C 63.355469 97.570312 61.238281 99.84375 61.238281 102.648438 C 61.238281 104.40625 63.058594 106.929688 63.214844 107.121094 C 63.375 107.3125 63.597656 108.144531 63.023438 108.335938 C 61.625 108.800781 59.527344 109.441406 57.917969 110.476562 C 57.46875 110.761719 56.542969 111.210938 56.351562 112.167969 L 50.910156 135.433594 C 50.910156 135.433594 49.554688 135.519531 49.554688 136.636719 C 49.554688 137.46875 49.761719 137.515625 49.761719 137.515625 C 49.761719 137.515625 47.03125 137.730469 46.171875 137.492188 C 45.308594 137.253906 44.949219 136.726562 45.644531 136.054688 C 46.339844 135.382812 46.792969 134.472656 46.792969 133.46875 C 46.792969 132.460938 45.597656 130.015625 43.320312 130.015625 C 41.046875 130.015625 39.804688 132.054688 39.804688 133.394531 C 39.804688 134.738281 40.570312 135.792969 40.878906 136.101562 C 41.191406 136.414062 41.429688 136.871094 40.59375 137.277344 C 37.335938 138.859375 36.839844 140.648438 36.425781 144.535156 C 36.308594 145.660156 36.234375 151.03125 36.285156 151.460938 C 36.332031 151.890625 36.929688 152.847656 37.933594 152.847656 C 38.941406 152.847656 39.394531 152.226562 39.394531 151.746094 C 39.394531 151.269531 39.011719 151.03125 38.84375 150.859375 C 38.675781 150.695312 38.484375 150.238281 38.605469 149.878906 C 38.726562 149.519531 39.417969 145.472656 39.394531 145.160156 C 39.539062 145.039062 39.945312 144.34375 40.1875 143.9375 C 41.484375 146.375 40.546875 150.609375 39.992188 153.738281 C 39.921875 154.144531 39.898438 154.40625 40.59375 154.597656 C 40.59375 154.8125 40.570312 163.390625 40.570312 163.390625 C 40.570312 163.390625 40.519531 164.011719 40.378906 164.15625 C 40.234375 164.300781 39.851562 164.636719 39.851562 164.972656 C 39.851562 165.308594 40.113281 165.453125 40.355469 165.453125 C 40.59375 165.453125 40.738281 165.332031 40.878906 165.234375 C 41.023438 165.140625 42.269531 164.253906 42.269531 164.253906 C 42.269531 164.253906 42.722656 163.847656 42.867188 163.246094 L 44.207031 156.945312 C 44.207031 156.945312 44.207031 156.5625 44.496094 156.300781 C 44.78125 156.035156 44.972656 155.867188 45.140625 155.796875 C 45.308594 155.726562 45.546875 155.652344 45.546875 155.988281 C 45.546875 156.324219 45.546875 163.511719 45.546875 163.511719 C 45.546875 163.511719 45.570312 163.917969 45.789062 164.109375 C 46.003906 164.300781 48.0625 165.644531 48.132812 165.738281 C 48.207031 165.835938 48.539062 165.929688 48.636719 165.929688 C 48.730469 165.929688 49.164062 165.785156 49.164062 165.425781 C 49.164062 165.066406 48.972656 164.875 48.851562 164.707031 C 48.730469 164.542969 48.253906 163.941406 48.179688 163.871094 C 48.109375 163.796875 47.789062 163.335938 47.988281 162.601562 C 48.0625 162.335938 48.996094 157.234375 49.019531 156.707031 C 49.308594 156.609375 51.460938 155.675781 50.765625 153.160156 L 48.0625 142.046875 C 48.0625 142.046875 47.757812 141.382812 48.375 141.15625 C 50.933594 140.222656 52.441406 139.527344 54.574219 137.925781 C 54.832031 137.730469 55.578125 137.039062 54.238281 136.078125 L 60.605469 119.714844 L 60.222656 137.566406 C 60.222656 137.566406 60.128906 138.667969 60.199219 139.554688 L 62.117188 162.9375 C 62.117188 162.9375 62.066406 163.273438 61.949219 163.4375 C 61.828125 163.605469 61.039062 164.78125 60.941406 164.875 C 60.847656 164.972656 60.703125 165.210938 60.773438 165.402344 C 60.847656 165.59375 61.085938 165.957031 61.371094 165.957031 C 61.660156 165.957031 61.804688 165.8125 62.019531 165.691406 L 65.515625 163.128906 C 65.515625 163.128906 65.992188 162.863281 66.015625 161.859375 C 66.015625 161.859375 66.160156 154.679688 66.304688 150.238281 C 66.472656 145.136719 66.78125 143.792969 67.882812 138.808594 L 68.628906 148.632812 C 68.628906 148.632812 68.816406 153.089844 68.816406 153.425781 C 68.816406 155.671875 68.875 160.519531 68.460938 162.742188 C 68.386719 163.128906 68.507812 163.152344 68.601562 163.246094 C 68.699219 163.34375 70.902344 165.453125 70.996094 165.59375 C 71.09375 165.738281 71.453125 165.929688 71.621094 165.929688 C 71.785156 165.929688 72.503906 165.714844 72.503906 165.285156 C 72.503906 165.140625 72.480469 164.925781 72.335938 164.707031 C 72.195312 164.492188 71.929688 164.039062 71.882812 163.964844 C 71.835938 163.894531 71.738281 163.773438 71.808594 163.367188 C 71.882812 162.960938 73.65625 148.074219 73.75 147.660156 C 73.84375 147.242188 74.421875 137.914062 74.421875 136.863281 C 74.421875 135.808594 72.824219 119.738281 72.824219 119.484375 C 72.824219 119.484375 76.78125 124.511719 76.78125 131.65625 C 76.78125 132.773438 76.671875 134.4375 76.621094 134.722656 C 76.589844 134.914062 76.558594 135.265625 76.464844 135.488281 C 76.367188 135.710938 76.113281 136.414062 76.113281 136.894531 C 76.113281 137.375 76.527344 138.9375 78.25 138.9375 C 79.207031 138.9375 80.179688 137.773438 80.179688 137.003906 C 80.179688 136.238281 79.972656 135.777344 79.878906 135.648438 C 79.785156 135.519531 79.6875 134.914062 79.816406 134.308594 C 79.941406 133.699219 80.230469 129.484375 80.230469 128.429688 C 80.230469 124.539062 78.824219 117.984375 77.898438 113.894531 C 77.777344 113.355469 77.164062 112.203125 76.367188 111.65625 C 74.058594 110.085938 72.011719 108.828125 69.632812 108.429688 C 69.25 108.367188 68.449219 108.046875 69.121094 106.992188 C 69.792969 105.941406 71.003906 104.214844 71.003906 102.394531 C 71.003906 100.574219 69.695312 97.570312 66.214844 97.570312 "/>
<path style=" stroke:none;fill-rule:nonzero;fill:rgb(100%,100%,100%);fill-opacity:1;" d="M 111.628906 142.746094 C 113.222656 142.746094 114.738281 143.0625 116.121094 143.644531 L 120.742188 135.597656 L 119.863281 133.1875 C 117.558594 132.960938 116.726562 130.847656 116.726562 130.488281 C 116.726562 130.128906 117.15625 130.128906 117.15625 130.128906 L 127.148438 130.128906 C 127.371094 130.128906 128.105469 130.316406 128.105469 131.101562 C 128.105469 131.890625 127.269531 132.027344 127.269531 132.027344 L 122.886719 132.988281 L 123.949219 135.90625 L 145.179688 135.90625 C 144.917969 134.925781 144.757812 134.320312 144.757812 134.320312 C 144.757812 134.320312 144.574219 133.730469 144.574219 133.480469 C 144.574219 132.289062 145.457031 131.402344 145.828125 131.203125 C 145.902344 131.164062 146.152344 131.050781 146.152344 130.71875 C 146.152344 130.386719 145.957031 130.105469 145.53125 130.105469 L 141.105469 130.105469 L 141.105469 127.164062 L 146.671875 127.164062 C 146.671875 127.164062 149.59375 127.4375 149.59375 130.425781 C 149.59375 132.171875 148.726562 132.566406 148.042969 132.976562 C 147.8125 133.113281 147.609375 133.683594 147.699219 134.003906 C 147.753906 134.191406 149.113281 139.285156 150.234375 143.492188 C 151.511719 143.011719 152.894531 142.746094 154.339844 142.746094 C 160.753906 142.746094 165.957031 147.941406 165.957031 154.351562 C 165.957031 160.761719 160.753906 165.957031 154.339844 165.957031 C 147.925781 165.957031 142.722656 160.761719 142.722656 154.351562 C 142.722656 150.457031 144.644531 147.007812 147.59375 144.902344 C 147.46875 144.433594 147.339844 143.953125 147.210938 143.46875 L 133.71875 152.882812 C 133.867188 153.347656 133.945312 153.839844 133.945312 154.351562 C 133.945312 157.035156 131.769531 159.210938 129.082031 159.210938 C 128.601562 159.210938 128.136719 159.140625 127.699219 159.011719 L 126.980469 160.578125 L 128.21875 160.578125 L 128.21875 162.152344 L 126.828125 162.152344 C 126.609375 162.496094 126.226562 162.726562 125.789062 162.726562 C 125.351562 162.726562 124.964844 162.496094 124.746094 162.152344 L 123.394531 162.152344 L 123.394531 160.578125 L 125.421875 160.578125 L 126.433594 158.429688 C 125.390625 157.75 124.621094 156.679688 124.339844 155.429688 L 123.226562 155.445312 C 122.667969 161.332031 117.667969 165.957031 111.628906 165.957031 C 105.214844 165.957031 100.011719 160.761719 100.011719 154.351562 C 100.011719 147.941406 105.214844 142.746094 111.628906 142.746094 "/>
<path style=" stroke:none;fill-rule:nonzero;fill:rgb(0.392157%,38.039216%,61.960787%);fill-opacity:1;" d="M 128.890625 149.496094 C 128.957031 149.492188 129.019531 149.492188 129.082031 149.492188 C 129.589844 149.492188 130.078125 149.570312 130.539062 149.714844 L 131.261719 148.179688 L 129.9375 148.179688 L 129.9375 146.605469 L 131.292969 146.605469 C 131.511719 146.261719 131.894531 146.035156 132.332031 146.035156 C 132.773438 146.035156 133.15625 146.261719 133.375 146.605469 L 134.761719 146.605469 L 134.761719 148.179688 L 132.679688 148.179688 L 131.71875 150.265625 C 131.832031 150.339844 131.945312 150.417969 132.050781 150.503906 L 146.410156 140.480469 C 146.253906 139.90625 146.105469 139.34375 145.960938 138.8125 L 125.007812 138.8125 L 128.890625 149.496094 "/>
<path style=" stroke:none;fill-rule:nonzero;fill:rgb(0.392157%,38.039216%,61.960787%);fill-opacity:1;" d="M 118.652344 145.109375 L 122.042969 139.179688 L 126.152344 150.472656 C 125.242188 151.160156 124.582031 152.15625 124.332031 153.308594 L 123.195312 153.308594 C 122.898438 149.964844 121.183594 147.03125 118.652344 145.109375 "/>
<path style=" stroke:none;fill-rule:nonzero;fill:rgb(0.392157%,38.039216%,61.960787%);fill-opacity:1;" d="M 116.945312 148.136719 C 118.453125 149.433594 119.515625 151.242188 119.773438 153.316406 L 113.957031 153.316406 L 116.945312 148.136719 "/>
<path style=" stroke:none;fill-rule:nonzero;fill:rgb(0.392157%,38.039216%,61.960787%);fill-opacity:1;" d="M 114.390625 146.675781 L 110.328125 153.71875 C 110.328125 153.71875 110.132812 154.042969 110.132812 154.394531 C 110.132812 155.429688 111.191406 155.429688 111.695312 155.429688 L 119.75 155.445312 C 119.207031 159.445312 115.78125 162.546875 111.628906 162.546875 C 107.097656 162.546875 103.425781 158.878906 103.425781 154.351562 C 103.425781 149.824219 107.097656 146.15625 111.628906 146.15625 C 112.609375 146.15625 113.519531 146.359375 114.390625 146.675781 "/>
<path style=" stroke:none;fill-rule:nonzero;fill:rgb(0.392157%,38.039216%,61.960787%);fill-opacity:1;" d="M 148.566406 148.527344 C 148.960938 150.003906 149.238281 151.027344 149.273438 151.164062 C 150.171875 154.492188 153.59375 155.519531 154.292969 155.519531 C 155.046875 155.519531 155.503906 155.019531 155.503906 154.3125 C 155.503906 153.605469 154.933594 153.398438 154.726562 153.242188 C 152.125 151.210938 151.714844 149.046875 151.714844 149.046875 C 151.714844 149.046875 151.480469 148.15625 151.121094 146.8125 C 152.109375 146.390625 153.195312 146.15625 154.339844 146.15625 C 158.871094 146.15625 162.542969 149.824219 162.542969 154.351562 C 162.542969 158.878906 158.871094 162.546875 154.339844 162.546875 C 149.808594 162.546875 146.136719 158.878906 146.136719 154.351562 C 146.136719 152.074219 147.066406 150.015625 148.566406 148.527344 "/>
<path style=" stroke:none;fill-rule:nonzero;fill:rgb(0.392157%,38.039216%,61.960787%);fill-opacity:1;" d="M 126.039062 154.347656 C 126.039062 152.664062 127.402344 151.296875 129.085938 151.296875 C 130.769531 151.296875 132.132812 152.664062 132.132812 154.347656 C 132.132812 156.027344 130.769531 157.394531 129.085938 157.394531 C 127.402344 157.394531 126.039062 156.027344 126.039062 154.347656 Z M 126.039062 154.347656 "/>
<path style=" stroke:none;fill-rule:nonzero;fill:rgb(100%,100%,100%);fill-opacity:1;" d="M 102.238281 21.285156 C 102.238281 21.285156 100.765625 20.269531 102.195312 19.613281 C 103.371094 19.050781 103.207031 18.160156 103.207031 18.160156 L 103.207031 16.402344 L 104.441406 16.402344 C 104.441406 16.402344 104.578125 16.273438 104.441406 16.136719 C 104.261719 16.027344 103.515625 15.390625 103.515625 15.390625 C 103.515625 15.390625 102.972656 12.089844 100.347656 12.089844 C 97.828125 12.089844 97.445312 14.507812 97.445312 14.507812 L 97.179688 17.015625 L 97.664062 17.238281 C 97.664062 17.238281 97.570312 18.949219 98.191406 19.613281 C 98.347656 19.804688 98.4375 20.300781 98.105469 20.492188 C 97.800781 20.6875 96.417969 21.386719 95.90625 22.429688 C 93.742188 26.734375 93.34375 29.945312 93.355469 32.371094 C 93.34375 35.210938 93.632812 37.292969 94.058594 38.972656 C 94.140625 39.3125 94.296875 39.894531 93.574219 39.632812 C 92.867188 39.363281 88.816406 38.148438 85.832031 38.136719 C 82.832031 38.144531 79.710938 38.941406 76.460938 40.335938 C 76.460938 40.335938 74.917969 40.183594 73.996094 40.203125 C 69.871094 40.183594 68.28125 40.75 66.652344 42.578125 C 64.820312 44.617188 63.347656 47 63.351562 50.234375 C 63.347656 54.394531 61.980469 58.21875 59.085938 58.199219 C 58.742188 58.21875 58.25 58.023438 58.25 58.023438 C 58.25 58.023438 59.113281 59.859375 61.855469 59.871094 C 66.90625 59.859375 69.109375 52.070312 68.808594 49.265625 C 68.191406 43.734375 72.667969 42.117188 74.128906 42.050781 C 74.128906 42.050781 72.667969 45.058594 72.679688 48.828125 C 72.667969 52.632812 74.574219 55.703125 74.527344 57.144531 C 74.46875 58.5625 73.867188 59.605469 73.867188 59.605469 C 73.867188 59.605469 72.191406 60.601562 72.019531 60.75 C 71.820312 60.867188 71.582031 61.023438 71.621094 61.675781 C 71.621094 61.675781 71.921875 69.128906 71.621094 70.871094 C 71.421875 71.910156 71.105469 72.226562 70.960938 72.367188 C 70.789062 72.492188 70.679688 72.582031 70.742188 72.761719 C 70.789062 72.980469 70.589844 73.617188 70.082031 73.597656 C 69.582031 73.617188 68.453125 73.113281 68.453125 73.113281 C 68.453125 73.113281 67.742188 75.429688 68.71875 77.820312 C 68.71875 77.820312 68.988281 77.957031 69.554688 77.953125 C 71.199219 77.957031 72.710938 77.011719 73.46875 75.535156 C 73.660156 75.113281 73.660156 74.488281 73.515625 74.039062 C 73.34375 73.617188 73.382812 73.167969 73.425781 72.761719 C 73.460938 72.320312 73.929688 67.910156 73.953125 67.660156 C 73.972656 67.398438 73.976562 67.050781 74.261719 66.777344 C 75.460938 65.703125 75.40625 65.636719 75.84375 64.007812 C 75.96875 63.550781 76.285156 62.597656 76.285156 62.597656 C 76.285156 62.597656 81.546875 60.195312 81.828125 60.046875 C 82.109375 59.914062 82.5 59.894531 82.621094 60.003906 C 82.710938 60.144531 82.921875 60.371094 82.707031 60.75 C 82.464844 61.148438 81.667969 62.453125 81.5625 62.730469 C 81.308594 63.605469 81.253906 63.832031 81.960938 65.019531 C 83.644531 67.84375 84.746094 71.765625 84.863281 74.476562 C 84.859375 74.847656 84.929688 75.972656 86.183594 75.796875 C 86.648438 75.765625 87.230469 75.695312 87.460938 75.929688 C 87.652344 76.1875 87.582031 76.402344 87.546875 76.632812 C 87.546875 76.859375 87.636719 78.5 88.117188 79.097656 C 88.339844 79.191406 91.484375 79.347656 92.210938 79.273438 C 92.511719 79.226562 92.59375 78.695312 92.386719 78.351562 C 90.855469 75.679688 89.871094 74.269531 87.414062 72.71875 C 86.558594 72.160156 86.472656 71.679688 86.402344 70.253906 C 86.34375 68.375 85.953125 66.96875 85.65625 64.972656 C 85.585938 64.644531 85.394531 64.21875 85.964844 63.480469 C 86.878906 62.3125 87.195312 60.375 87.0625 58.242188 C 87.035156 57.972656 87.070312 57.757812 87.28125 57.582031 C 87.699219 57.289062 88.238281 56.890625 88.558594 56.261719 C 88.695312 56.046875 89.011719 55.835938 89.527344 56.085938 C 90.035156 56.363281 95.066406 58.800781 102.285156 58.816406 C 108.382812 58.800781 112.050781 57.320312 112.050781 57.320312 C 112.050781 57.320312 111.839844 59.734375 112.136719 61.453125 C 112.222656 61.898438 112.117188 62.03125 112.007812 62.246094 C 109.746094 66.097656 109.558594 67.40625 109.542969 70.078125 C 109.558594 70.539062 109.46875 72.09375 109.058594 72.675781 C 108.65625 73.257812 108.179688 74.175781 108.089844 74.476562 C 108.003906 74.742188 107.792969 75.429688 108.488281 75.84375 C 109.203125 76.277344 109.308594 76.347656 109.324219 76.855469 C 109.308594 77.371094 109.273438 77.335938 109.148438 77.515625 C 109.148438 77.515625 108.496094 78.359375 108.3125 78.789062 C 108.3125 78.789062 109.414062 79.382812 110.90625 79.40625 C 112.382812 79.382812 113.085938 78.960938 113.324219 78.832031 C 113.582031 78.714844 113.8125 78.574219 113.546875 78.128906 C 113.28125 77.726562 111.871094 75.5 111.699219 75.183594 C 111.300781 74.421875 111.199219 74.136719 111.214844 73.246094 C 111.199219 72.921875 111.214844 71.882812 111.214844 71.882812 C 111.214844 71.882812 111.164062 71.6875 111.433594 71.179688 C 112.304688 69.691406 113.785156 66.847656 115.171875 65.152344 C 115.644531 64.574219 116.28125 63.566406 116.316406 62.421875 C 116.320312 60.898438 117.304688 59.230469 117.945312 58.640625 C 118.152344 58.449219 118.648438 58.128906 119.265625 58.683594 C 119.847656 59.222656 124.640625 63.222656 125.863281 64.535156 C 127.410156 66.175781 128.125 66.960938 128.722656 68.847656 C 128.875 69.339844 129.148438 70.203125 129.207031 70.605469 C 129.300781 71.300781 129.324219 71.765625 129.691406 72.234375 C 129.871094 72.464844 130.457031 72.992188 129.910156 73.289062 C 129.359375 73.558594 128.992188 73.753906 128.457031 74.347656 C 128.457031 74.347656 128.21875 75.746094 130.175781 77.867188 C 130.402344 78.097656 130.660156 77.921875 130.921875 77.601562 C 131.441406 76.878906 132.726562 73.828125 132.902344 72.453125 C 132.925781 72.148438 133.015625 71.722656 132.59375 70.957031 C 132.167969 70.167969 130.277344 66.390625 130.128906 66.074219 C 129.996094 65.792969 129.835938 65.226562 129.824219 64.710938 C 129.742188 63.816406 129.089844 62.601562 128.503906 61.9375 C 128.195312 61.609375 122.757812 55.976562 122.609375 55.777344 C 122.097656 55.144531 122.011719 54.808594 122.34375 53.929688 C 123.011719 52.179688 123.21875 49.417969 123.222656 49.003906 C 123.21875 48.597656 123.183594 47.785156 123.75 47.199219 C 124.542969 46.339844 126.21875 43.460938 126.699219 39.632812 C 126.730469 39.347656 126.785156 39.023438 127.09375 38.972656 C 127.296875 38.976562 127.402344 39.097656 127.535156 39.234375 C 128.140625 39.835938 128.757812 40.484375 129.691406 40.777344 C 129.996094 40.847656 130.808594 41.078125 130.703125 41.789062 C 130.632812 42.523438 130.296875 44.394531 131.671875 45.085938 C 131.671875 45.085938 132.007812 44.535156 132.152344 44.425781 C 132.152344 44.425781 132.996094 45.121094 133.339844 45.21875 C 133.703125 45.332031 134.109375 45.347656 134.351562 44.910156 C 134.566406 44.464844 134.921875 43.460938 135.011719 43.285156 C 135.097656 43.140625 135.292969 42.773438 135.101562 41.964844 C 134.867188 41.113281 134.125 38.410156 134.132812 35.496094 C 134.125 34.667969 134.339844 33.238281 134.351562 32.636719 C 134.339844 32.074219 133.351562 29.550781 133.253906 29.335938 C 133.171875 29.089844 133.085938 28.613281 133.78125 28.589844 C 134.496094 28.578125 134.617188 28.542969 134.617188 28.542969 C 134.617188 28.542969 133.808594 27.996094 133.648438 27.972656 C 133.527344 27.925781 133.261719 27.730469 133.472656 27.488281 C 133.648438 27.273438 133.84375 27.023438 133.957031 26.828125 C 134.054688 26.601562 133.984375 26.125 133.386719 26.34375 C 132.785156 26.582031 130.4375 27.484375 130.261719 27.578125 C 130.085938 27.660156 129.820312 27.75 129.25 27.707031 C 128.65625 27.644531 128.53125 27.484375 126.832031 27.488281 C 123.761719 27.484375 120.839844 28.488281 119.441406 29.425781 C 116.527344 31.367188 114.144531 32.964844 111.742188 35.363281 C 111.613281 35.5 111.214844 35.871094 110.730469 35.585938 C 110.210938 35.285156 109.839844 35.3125 109.453125 35.320312 C 109.046875 35.3125 108.542969 35.207031 108.089844 34.792969 C 107.640625 34.359375 105.390625 32.507812 105.054688 32.285156 C 104.757812 32.082031 104.4375 31.949219 104.484375 30.875 C 104.628906 28.058594 103.828125 25.050781 103.207031 22.867188 C 103.089844 22.390625 103.078125 21.824219 102.238281 21.285156 "/>
<path style=" stroke:none;fill-rule:nonzero;fill:rgb(0.392157%,38.039216%,61.960787%);fill-opacity:1;" d="M 104.570312 35.40625 C 104.40625 35.324219 103.960938 35.140625 103.78125 35.363281 C 103.566406 35.5625 103.816406 36.054688 103.910156 36.199219 C 104 36.320312 105.074219 38.492188 105.1875 38.796875 C 105.3125 39.097656 105.695312 39.695312 106.417969 39.148438 C 107.097656 38.636719 107.628906 38.304688 107.914062 38.179688 C 108.210938 38.039062 108.34375 37.628906 108.046875 37.519531 C 107.707031 37.390625 107.511719 37.191406 107.34375 36.949219 C 107.21875 36.714844 106.847656 36.4375 106.683594 36.375 C 106.476562 36.332031 104.691406 35.433594 104.570312 35.40625 "/>
</g>
</svg>
