<?xml version="1.0" encoding="UTF-8"?>
<svg xmlns="http://www.w3.org/2000/svg" xmlns:xlink="http://www.w3.org/1999/xlink" width="200px" height="px" viewBox="0 0 200 200" version="1.1">
<g id="surface1">
<path style=" stroke:none;fill-rule:nonzero;fill:rgb(0%,0%,0%);fill-opacity:1;" d="M 199.585938 100.011719 C 199.585938 45.019531 155.003906 0.441406 100.011719 0.441406 C 45.019531 0.441406 0.441406 45.019531 0.441406 100.011719 C 0.441406 155.003906 45.019531 199.585938 100.011719 199.585938 C 155.003906 199.585938 199.585938 155.003906 199.585938 100.011719 Z M 199.585938 100.011719 "/>
<path style=" stroke:none;fill-rule:nonzero;fill:rgb(100%,100%,100%);fill-opacity:1;" d="M 198.925781 100.011719 C 198.925781 45.382812 154.640625 1.097656 100.011719 1.097656 C 45.382812 1.097656 1.097656 45.382812 1.097656 100.011719 C 1.097656 154.640625 45.382812 198.925781 100.011719 198.925781 C 154.640625 198.925781 198.925781 154.640625 198.925781 100.011719 Z M 198.925781 100.011719 "/>
<path style=" stroke:none;fill-rule:nonzero;fill:rgb(0.392157%,38.039216%,61.960787%);fill-opacity:1;" d="M 194.96875 100.011719 C 194.96875 47.570312 152.457031 5.054688 100.011719 5.054688 C 47.570312 5.054688 5.054688 47.570312 5.054688 100.011719 C 5.054688 152.457031 47.570312 194.96875 100.011719 194.96875 C 152.457031 194.96875 194.96875 152.457031 194.96875 100.011719 Z M 194.96875 100.011719 "/>
<path style=" stroke:none;fill-rule:nonzero;fill:rgb(100%,100%,100%);fill-opacity:1;" d="M 136.316406 44.734375 C 133.609375 44.734375 131.027344 45.269531 128.679688 46.253906 L 120.824219 32.582031 L 122.316406 28.480469 C 126.234375 28.097656 127.648438 24.5 127.648438 23.890625 C 127.648438 23.28125 126.921875 23.28125 126.921875 23.28125 L 109.933594 23.28125 C 109.554688 23.28125 108.304688 23.601562 108.304688 24.9375 C 108.304688 26.273438 109.730469 26.507812 109.730469 26.507812 L 117.175781 28.144531 L 115.371094 33.105469 L 79.277344 33.105469 C 79.722656 31.4375 80 30.410156 80 30.410156 C 80 30.410156 80.308594 29.402344 80.308594 28.976562 C 80.308594 26.957031 78.808594 25.449219 78.175781 25.109375 C 78.050781 25.039062 77.628906 24.851562 77.628906 24.285156 C 77.628906 23.71875 77.957031 23.242188 78.679688 23.242188 L 86.203125 23.242188 L 86.203125 18.242188 L 76.742188 18.242188 C 76.742188 18.242188 71.777344 18.710938 71.777344 23.785156 C 71.777344 26.753906 73.25 27.425781 74.414062 28.125 C 74.800781 28.355469 75.148438 29.324219 74.996094 29.867188 C 74.90625 30.183594 72.59375 38.84375 70.6875 46 C 68.515625 45.183594 66.164062 44.734375 63.707031 44.734375 C 52.800781 44.734375 43.960938 53.566406 43.960938 64.460938 C 43.960938 75.355469 52.800781 84.1875 63.707031 84.1875 C 74.613281 84.1875 83.457031 75.355469 83.457031 64.460938 C 83.457031 57.835938 80.1875 51.976562 75.175781 48.398438 C 75.390625 47.597656 75.609375 46.78125 75.828125 45.957031 L 98.761719 61.964844 C 98.511719 62.75 98.375 63.589844 98.375 64.460938 C 98.375 69.023438 102.078125 72.71875 106.644531 72.71875 C 107.460938 72.71875 108.25 72.601562 108.996094 72.382812 L 110.222656 75.046875 L 108.113281 75.046875 L 108.113281 77.722656 L 110.476562 77.722656 C 110.847656 78.304688 111.5 78.695312 112.246094 78.695312 C 112.988281 78.695312 113.644531 78.304688 114.015625 77.722656 L 116.316406 77.722656 L 116.316406 75.046875 L 112.867188 75.046875 L 111.144531 71.390625 C 112.921875 70.238281 114.226562 68.417969 114.710938 66.292969 L 116.597656 66.320312 C 117.550781 76.328125 126.046875 84.1875 136.316406 84.1875 C 147.222656 84.1875 156.0625 75.355469 156.0625 64.460938 C 156.0625 53.566406 147.222656 44.734375 136.316406 44.734375 "/>
<path style=" stroke:none;fill-rule:nonzero;fill:rgb(0.392157%,38.039216%,61.960787%);fill-opacity:1;" d="M 106.96875 56.207031 C 106.859375 56.203125 106.753906 56.199219 106.644531 56.199219 C 105.78125 56.199219 104.953125 56.332031 104.167969 56.574219 L 102.941406 53.96875 L 105.191406 53.96875 L 105.191406 51.296875 L 102.886719 51.296875 C 102.515625 50.710938 101.863281 50.320312 101.117188 50.320312 C 100.375 50.320312 99.71875 50.710938 99.347656 51.296875 L 96.988281 51.296875 L 96.988281 53.96875 L 100.53125 53.96875 L 102.164062 57.515625 C 101.96875 57.644531 101.78125 57.777344 101.597656 57.917969 L 77.191406 40.882812 C 77.453125 39.902344 77.707031 38.949219 77.953125 38.042969 L 113.574219 38.042969 L 106.96875 56.207031 "/>
<path style=" stroke:none;fill-rule:nonzero;fill:rgb(0.392157%,38.039216%,61.960787%);fill-opacity:1;" d="M 124.378906 48.746094 L 118.609375 38.667969 L 111.625 57.867188 C 113.171875 59.035156 114.292969 60.730469 114.722656 62.6875 L 116.648438 62.6875 C 117.15625 57.003906 120.078125 52.011719 124.378906 48.746094 "/>
<path style=" stroke:none;fill-rule:nonzero;fill:rgb(0.392157%,38.039216%,61.960787%);fill-opacity:1;" d="M 127.277344 53.890625 C 124.710938 56.097656 122.90625 59.171875 122.472656 62.703125 L 132.359375 62.703125 L 127.277344 53.890625 "/>
<path style=" stroke:none;fill-rule:nonzero;fill:rgb(0.392157%,38.039216%,61.960787%);fill-opacity:1;" d="M 131.621094 51.410156 L 138.527344 63.386719 C 138.527344 63.386719 138.863281 63.9375 138.863281 64.53125 C 138.863281 66.292969 137.058594 66.292969 136.199219 66.292969 L 122.511719 66.316406 C 123.433594 73.121094 129.253906 78.390625 136.316406 78.390625 C 144.019531 78.390625 150.261719 72.152344 150.261719 64.460938 C 150.261719 56.765625 144.019531 50.527344 136.316406 50.527344 C 134.648438 50.527344 133.101562 50.871094 131.621094 51.410156 "/>
<path style=" stroke:none;fill-rule:nonzero;fill:rgb(0.392157%,38.039216%,61.960787%);fill-opacity:1;" d="M 73.523438 54.5625 C 72.847656 57.070312 72.382812 58.804688 72.320312 59.042969 C 70.792969 64.703125 64.976562 66.445312 63.785156 66.445312 C 62.507812 66.445312 61.730469 65.59375 61.730469 64.390625 C 61.730469 63.191406 62.699219 62.84375 63.050781 62.570312 C 67.472656 59.121094 68.167969 55.441406 68.167969 55.441406 C 68.167969 55.441406 68.570312 53.929688 69.179688 51.640625 C 67.5 50.925781 65.652344 50.527344 63.707031 50.527344 C 56.007812 50.527344 49.761719 56.765625 49.761719 64.460938 C 49.761719 72.152344 56.007812 78.390625 63.707031 78.390625 C 71.410156 78.390625 77.65625 72.152344 77.65625 64.460938 C 77.65625 60.589844 76.074219 57.085938 73.523438 54.5625 "/>
<path style=" stroke:none;fill-rule:nonzero;fill:rgb(0.392157%,38.039216%,61.960787%);fill-opacity:1;" d="M 111.820312 64.449219 C 111.820312 61.589844 109.5 59.269531 106.636719 59.269531 C 103.777344 59.269531 101.457031 61.589844 101.457031 64.449219 C 101.457031 67.3125 103.777344 69.632812 106.636719 69.632812 C 109.5 69.632812 111.820312 67.3125 111.820312 64.449219 Z M 111.820312 64.449219 "/>
<path style=" stroke:none;fill-rule:nonzero;fill:rgb(100%,100%,100%);fill-opacity:1;" d="M 110.769531 90.78125 C 106.910156 90.78125 104.046875 93.851562 104.046875 97.636719 C 104.046875 100.007812 106.503906 103.417969 106.71875 103.675781 C 106.933594 103.933594 107.234375 105.054688 106.460938 105.3125 C 104.570312 105.945312 101.738281 106.804688 99.566406 108.203125 C 98.960938 108.589844 97.710938 109.195312 97.453125 110.488281 L 90.105469 141.894531 C 90.105469 141.894531 88.273438 142.011719 88.273438 143.523438 C 88.273438 144.644531 88.554688 144.707031 88.554688 144.707031 C 88.554688 144.707031 84.871094 145 83.707031 144.675781 C 82.542969 144.351562 82.058594 143.640625 82.996094 142.734375 C 83.933594 141.828125 84.546875 140.601562 84.546875 139.242188 C 84.546875 137.882812 82.929688 134.585938 79.859375 134.585938 C 76.789062 134.585938 75.109375 137.332031 75.109375 139.144531 C 75.109375 140.957031 76.144531 142.378906 76.566406 142.800781 C 76.984375 143.21875 77.308594 143.835938 76.175781 144.386719 C 71.78125 146.519531 71.109375 148.933594 70.550781 154.183594 C 70.390625 155.703125 70.292969 162.949219 70.359375 163.53125 C 70.421875 164.113281 71.230469 165.40625 72.589844 165.40625 C 73.945312 165.40625 74.558594 164.566406 74.558594 163.921875 C 74.558594 163.273438 74.042969 162.949219 73.816406 162.722656 C 73.589844 162.496094 73.332031 161.882812 73.492188 161.398438 C 73.65625 160.910156 74.59375 155.445312 74.558594 155.027344 C 74.753906 154.863281 75.304688 153.925781 75.625 153.375 C 77.382812 156.667969 76.113281 162.382812 75.367188 166.605469 C 75.269531 167.152344 75.238281 167.511719 76.175781 167.769531 C 76.175781 168.058594 76.144531 179.640625 76.144531 179.640625 C 76.144531 179.640625 76.078125 180.480469 75.886719 180.675781 C 75.691406 180.867188 75.175781 181.320312 75.175781 181.773438 C 75.175781 182.226562 75.53125 182.421875 75.855469 182.421875 C 76.175781 182.421875 76.371094 182.257812 76.566406 182.128906 C 76.757812 182 78.4375 180.804688 78.4375 180.804688 C 78.4375 180.804688 79.050781 180.253906 79.246094 179.445312 L 81.054688 170.9375 C 81.054688 170.9375 81.054688 170.421875 81.445312 170.066406 C 81.832031 169.710938 82.089844 169.484375 82.316406 169.386719 C 82.542969 169.289062 82.867188 169.191406 82.867188 169.644531 C 82.867188 170.097656 82.867188 179.800781 82.867188 179.800781 C 82.867188 179.800781 82.898438 180.351562 83.191406 180.609375 C 83.480469 180.867188 86.261719 182.679688 86.355469 182.808594 C 86.453125 182.9375 86.90625 183.066406 87.035156 183.066406 C 87.164062 183.066406 87.746094 182.875 87.746094 182.386719 C 87.746094 181.902344 87.488281 181.644531 87.328125 181.417969 C 87.164062 181.191406 86.519531 180.382812 86.421875 180.285156 C 86.324219 180.1875 85.894531 179.5625 86.164062 178.570312 C 86.261719 178.214844 87.519531 171.328125 87.554688 170.613281 C 87.941406 170.484375 90.847656 169.226562 89.914062 165.828125 L 86.261719 150.820312 C 86.261719 150.820312 85.851562 149.925781 86.679688 149.625 C 90.136719 148.363281 92.175781 147.425781 95.050781 145.257812 C 95.398438 144.996094 96.40625 144.0625 94.597656 142.765625 L 103.195312 120.675781 L 102.679688 144.773438 C 102.679688 144.773438 102.550781 146.261719 102.644531 147.457031 L 105.230469 179.023438 C 105.230469 179.023438 105.167969 179.476562 105.003906 179.703125 C 104.84375 179.929688 103.777344 181.515625 103.648438 181.644531 C 103.519531 181.773438 103.324219 182.097656 103.421875 182.355469 C 103.519531 182.613281 103.84375 183.101562 104.230469 183.101562 C 104.617188 183.101562 104.8125 182.90625 105.101562 182.742188 L 109.820312 179.28125 C 109.820312 179.28125 110.46875 178.929688 110.5 177.570312 C 110.5 177.570312 110.691406 167.875 110.886719 161.882812 C 111.113281 154.992188 111.535156 153.183594 113.019531 146.453125 L 114.023438 159.714844 C 114.023438 159.714844 114.28125 165.730469 114.28125 166.183594 C 114.28125 169.214844 114.359375 175.761719 113.796875 178.765625 C 113.699219 179.28125 113.859375 179.316406 113.988281 179.445312 C 114.121094 179.574219 117.09375 182.421875 117.222656 182.613281 C 117.351562 182.808594 117.835938 183.066406 118.0625 183.066406 C 118.289062 183.066406 119.257812 182.777344 119.257812 182.195312 C 119.257812 182 119.226562 181.710938 119.03125 181.417969 C 118.835938 181.125 118.484375 180.511719 118.417969 180.414062 C 118.351562 180.316406 118.222656 180.15625 118.320312 179.605469 C 118.417969 179.058594 120.808594 158.960938 120.9375 158.398438 C 121.066406 157.839844 121.84375 145.246094 121.84375 143.824219 C 121.84375 142.402344 119.6875 120.710938 119.6875 120.363281 C 119.6875 120.363281 125.03125 127.152344 125.03125 136.792969 C 125.03125 138.304688 124.882812 140.550781 124.816406 140.933594 C 124.773438 141.191406 124.730469 141.667969 124.601562 141.96875 C 124.472656 142.273438 124.128906 143.21875 124.128906 143.867188 C 124.128906 144.515625 124.6875 146.628906 127.015625 146.628906 C 128.308594 146.628906 129.621094 145.054688 129.621094 144.019531 C 129.621094 142.984375 129.339844 142.359375 129.210938 142.183594 C 129.082031 142.011719 128.953125 141.191406 129.125 140.375 C 129.300781 139.554688 129.6875 133.863281 129.6875 132.4375 C 129.6875 127.1875 127.789062 118.335938 126.539062 112.816406 C 126.375 112.09375 125.550781 110.53125 124.472656 109.800781 C 121.355469 107.679688 118.59375 105.980469 115.378906 105.441406 C 114.863281 105.355469 113.785156 104.925781 114.691406 103.503906 C 115.59375 102.078125 117.234375 99.75 117.234375 97.292969 C 117.234375 94.835938 115.464844 90.78125 110.769531 90.78125 "/>
</g>
</svg>
