<?xml version="1.0" encoding="UTF-8"?>
<svg xmlns="http://www.w3.org/2000/svg" xmlns:xlink="http://www.w3.org/1999/xlink" width="200px" height="px" viewBox="0 0 200 200" version="1.1">
<g id="surface1">
<path style=" stroke:none;fill-rule:nonzero;fill:rgb(0%,0%,0%);fill-opacity:1;" d="M 199.585938 100.011719 C 199.585938 45.019531 155.003906 0.441406 100.011719 0.441406 C 45.019531 0.441406 0.441406 45.019531 0.441406 100.011719 C 0.441406 155.003906 45.019531 199.585938 100.011719 199.585938 C 155.003906 199.585938 199.585938 155.003906 199.585938 100.011719 Z M 199.585938 100.011719 "/>
<path style=" stroke:none;fill-rule:nonzero;fill:rgb(100%,100%,100%);fill-opacity:1;" d="M 198.925781 100.011719 C 198.925781 45.382812 154.640625 1.097656 100.011719 1.097656 C 45.382812 1.097656 1.097656 45.382812 1.097656 100.011719 C 1.097656 154.640625 45.382812 198.925781 100.011719 198.925781 C 154.640625 198.925781 198.925781 154.640625 198.925781 100.011719 Z M 198.925781 100.011719 "/>
<path style=" stroke:none;fill-rule:nonzero;fill:rgb(0.392157%,38.039216%,61.960787%);fill-opacity:1;" d="M 194.96875 100.011719 C 194.96875 47.570312 152.457031 5.054688 100.011719 5.054688 C 47.570312 5.054688 5.054688 47.570312 5.054688 100.011719 C 5.054688 152.457031 47.570312 194.96875 100.011719 194.96875 C 152.457031 194.96875 194.96875 152.457031 194.96875 100.011719 Z M 194.96875 100.011719 "/>
<path style=" stroke:none;fill-rule:nonzero;fill:rgb(100%,100%,100%);fill-opacity:1;" d="M 115.839844 14.289062 L 122.433594 14.289062 L 122.433594 185.738281 L 115.839844 185.738281 Z M 115.839844 14.289062 "/>
<path style=" stroke:none;fill-rule:nonzero;fill:rgb(100%,100%,100%);fill-opacity:1;" d="M 148.691406 49.894531 C 152.164062 49.894531 154.742188 52.660156 154.742188 56.066406 C 154.742188 58.203125 152.53125 61.269531 152.335938 61.5 C 152.144531 61.734375 151.871094 62.742188 152.570312 62.976562 C 154.269531 63.542969 156.820312 64.316406 158.773438 65.578125 C 159.316406 65.925781 160.441406 66.46875 160.675781 67.632812 L 167.289062 95.898438 C 167.289062 95.898438 168.9375 96.003906 168.9375 97.363281 C 168.9375 98.371094 168.683594 98.429688 168.683594 98.429688 C 168.683594 98.429688 172 98.691406 173.046875 98.402344 C 174.09375 98.113281 174.53125 97.46875 173.6875 96.65625 C 172.84375 95.839844 172.289062 94.734375 172.289062 93.511719 C 172.289062 92.289062 173.746094 89.320312 176.507812 89.320312 C 179.269531 89.320312 180.785156 91.792969 180.785156 93.425781 C 180.785156 95.054688 179.851562 96.335938 179.476562 96.714844 C 179.097656 97.089844 178.804688 97.644531 179.824219 98.140625 C 183.78125 100.0625 184.382812 102.234375 184.886719 106.960938 C 185.03125 108.328125 185.117188 114.847656 185.058594 115.371094 C 185 115.898438 184.273438 117.058594 183.054688 117.058594 C 181.832031 117.058594 181.277344 116.304688 181.277344 115.722656 C 181.277344 115.140625 181.742188 114.847656 181.949219 114.644531 C 182.152344 114.441406 182.382812 113.886719 182.238281 113.453125 C 182.09375 113.015625 181.25 108.09375 181.277344 107.71875 C 181.105469 107.570312 180.609375 106.726562 180.320312 106.230469 C 178.738281 109.195312 179.882812 114.339844 180.550781 118.136719 C 180.640625 118.632812 180.667969 118.953125 179.824219 119.1875 C 179.824219 119.445312 179.851562 129.867188 179.851562 129.867188 C 179.851562 129.867188 179.910156 130.625 180.085938 130.800781 C 180.261719 130.976562 180.726562 131.382812 180.726562 131.789062 C 180.726562 132.199219 180.40625 132.371094 180.113281 132.371094 C 179.824219 132.371094 179.648438 132.226562 179.476562 132.109375 C 179.300781 131.992188 177.789062 130.917969 177.789062 130.917969 C 177.789062 130.917969 177.234375 130.421875 177.0625 129.695312 L 175.433594 122.039062 C 175.433594 122.039062 175.433594 121.574219 175.082031 121.253906 C 174.734375 120.933594 174.5 120.726562 174.296875 120.640625 C 174.09375 120.554688 173.804688 120.464844 173.804688 120.875 C 173.804688 121.28125 173.804688 130.015625 173.804688 130.015625 C 173.804688 130.015625 173.773438 130.507812 173.511719 130.742188 C 173.25 130.976562 170.75 132.605469 170.660156 132.722656 C 170.574219 132.835938 170.167969 132.953125 170.050781 132.953125 C 169.933594 132.953125 169.410156 132.78125 169.410156 132.34375 C 169.410156 131.90625 169.644531 131.675781 169.789062 131.46875 C 169.933594 131.265625 170.515625 130.539062 170.605469 130.449219 C 170.691406 130.363281 171.078125 129.800781 170.835938 128.910156 C 170.75 128.585938 169.613281 122.386719 169.585938 121.746094 C 169.238281 121.632812 166.617188 120.496094 167.460938 117.4375 L 170.75 103.933594 C 170.75 103.933594 171.117188 103.128906 170.371094 102.855469 C 167.257812 101.71875 165.425781 100.875 162.835938 98.925781 C 162.523438 98.691406 161.617188 97.847656 163.246094 96.683594 L 155.507812 76.804688 L 155.972656 98.488281 C 155.972656 98.488281 156.089844 99.828125 156.003906 100.90625 L 153.675781 129.316406 C 153.675781 129.316406 153.734375 129.722656 153.878906 129.925781 C 154.023438 130.132812 154.984375 131.558594 155.101562 131.675781 C 155.21875 131.789062 155.390625 132.082031 155.304688 132.3125 C 155.21875 132.546875 154.925781 132.984375 154.578125 132.984375 C 154.226562 132.984375 154.050781 132.808594 153.792969 132.664062 L 149.542969 129.546875 C 149.542969 129.546875 148.960938 129.230469 148.933594 128.003906 C 148.933594 128.003906 148.761719 119.28125 148.585938 113.886719 C 148.378906 107.6875 148.003906 106.058594 146.664062 100.003906 L 145.761719 111.9375 C 145.761719 111.9375 145.53125 117.351562 145.53125 117.757812 C 145.53125 120.488281 145.460938 126.382812 145.964844 129.082031 C 146.054688 129.546875 145.910156 129.578125 145.792969 129.695312 C 145.675781 129.808594 143 132.371094 142.882812 132.546875 C 142.765625 132.722656 142.332031 132.953125 142.128906 132.953125 C 141.921875 132.953125 141.050781 132.691406 141.050781 132.167969 C 141.050781 131.992188 141.082031 131.730469 141.253906 131.46875 C 141.429688 131.207031 141.75 130.652344 141.808594 130.566406 C 141.867188 130.480469 141.980469 130.335938 141.894531 129.839844 C 141.808594 129.34375 139.65625 111.257812 139.539062 110.753906 C 139.421875 110.25 138.722656 98.914062 138.722656 97.636719 C 138.722656 96.355469 140.664062 76.832031 140.664062 76.523438 C 140.664062 76.523438 135.855469 82.632812 135.855469 91.308594 C 135.855469 92.667969 135.988281 94.6875 136.046875 95.035156 C 136.085938 95.265625 136.125 95.695312 136.242188 95.964844 C 136.359375 96.238281 136.667969 97.089844 136.667969 97.675781 C 136.667969 98.257812 136.164062 100.160156 134.070312 100.160156 C 132.90625 100.160156 131.722656 98.742188 131.722656 97.808594 C 131.722656 96.878906 131.976562 96.316406 132.089844 96.160156 C 132.207031 96.003906 132.324219 95.265625 132.167969 94.53125 C 132.015625 93.792969 131.664062 88.667969 131.664062 87.390625 C 131.664062 82.664062 133.371094 74.699219 134.496094 69.730469 C 134.644531 69.078125 135.390625 67.671875 136.359375 67.011719 C 139.164062 65.105469 141.648438 63.574219 144.542969 63.09375 C 145.007812 63.015625 145.976562 62.628906 145.164062 61.347656 C 144.347656 60.066406 142.875 57.96875 142.875 55.757812 C 142.875 53.546875 144.464844 49.898438 148.691406 49.898438 "/>
<path style=" stroke:none;fill-rule:nonzero;fill:rgb(100%,100%,100%);fill-opacity:1;" d="M 90.808594 101.421875 C 88.644531 101.421875 86.578125 101.851562 84.699219 102.640625 L 78.414062 91.699219 L 79.609375 88.417969 C 82.742188 88.113281 83.875 85.234375 83.875 84.746094 C 83.875 84.257812 83.292969 84.257812 83.292969 84.257812 L 69.703125 84.257812 C 69.398438 84.257812 68.398438 84.515625 68.398438 85.585938 C 68.398438 86.65625 69.539062 86.839844 69.539062 86.839844 L 75.496094 88.152344 L 74.054688 92.117188 L 45.175781 92.117188 C 45.535156 90.785156 45.753906 89.964844 45.753906 89.964844 C 45.753906 89.964844 46.003906 89.15625 46.003906 88.816406 C 46.003906 87.199219 44.804688 85.992188 44.296875 85.722656 C 44.195312 85.667969 43.859375 85.515625 43.859375 85.0625 C 43.859375 84.609375 44.121094 84.230469 44.699219 84.230469 L 50.71875 84.230469 L 50.71875 80.230469 L 43.148438 80.230469 C 43.148438 80.230469 39.175781 80.601562 39.175781 84.664062 C 39.175781 87.035156 40.355469 87.578125 41.285156 88.132812 C 41.597656 88.320312 41.875 89.09375 41.753906 89.527344 C 41.679688 89.78125 39.832031 96.710938 38.304688 102.4375 C 36.570312 101.78125 34.6875 101.421875 32.722656 101.421875 C 23.996094 101.421875 16.925781 108.488281 16.925781 117.203125 C 16.925781 125.917969 23.996094 132.984375 32.722656 132.984375 C 41.449219 132.984375 48.519531 125.917969 48.519531 117.203125 C 48.519531 111.902344 45.90625 107.214844 41.894531 104.351562 C 42.066406 103.714844 42.242188 103.058594 42.417969 102.402344 L 60.765625 115.207031 C 60.566406 115.835938 60.457031 116.507812 60.457031 117.203125 C 60.457031 120.851562 63.417969 123.8125 67.070312 123.8125 C 67.726562 123.8125 68.355469 123.714844 68.953125 123.539062 L 69.933594 125.671875 L 68.246094 125.671875 L 68.246094 127.8125 L 70.136719 127.8125 C 70.433594 128.28125 70.957031 128.589844 71.550781 128.589844 C 72.148438 128.589844 72.671875 128.28125 72.96875 127.8125 L 74.808594 127.8125 L 74.808594 125.671875 L 72.050781 125.671875 L 70.671875 122.746094 C 72.09375 121.824219 73.136719 120.371094 73.523438 118.667969 L 75.035156 118.691406 C 75.796875 126.699219 82.59375 132.984375 90.808594 132.984375 C 99.535156 132.984375 106.605469 125.917969 106.605469 117.203125 C 106.605469 108.488281 99.535156 101.421875 90.808594 101.421875 "/>
<path style=" stroke:none;fill-rule:nonzero;fill:rgb(0.392157%,38.039216%,61.960787%);fill-opacity:1;" d="M 67.332031 110.601562 C 67.246094 110.597656 67.160156 110.59375 67.070312 110.59375 C 66.382812 110.59375 65.71875 110.699219 65.089844 110.894531 L 64.109375 108.808594 L 65.910156 108.808594 L 65.910156 106.671875 L 64.066406 106.671875 C 63.769531 106.203125 63.246094 105.890625 62.648438 105.890625 C 62.054688 105.890625 61.53125 106.203125 61.234375 106.671875 L 59.347656 106.671875 L 59.347656 108.808594 L 62.179688 108.808594 L 63.484375 111.648438 C 63.332031 111.75 63.179688 111.855469 63.035156 111.96875 L 43.507812 98.339844 C 43.71875 97.558594 43.921875 96.792969 44.117188 96.070312 L 72.617188 96.070312 L 67.332031 110.597656 "/>
<path style=" stroke:none;fill-rule:nonzero;fill:rgb(0.392157%,38.039216%,61.960787%);fill-opacity:1;" d="M 81.257812 104.632812 L 76.644531 96.566406 L 71.058594 111.925781 C 72.292969 112.863281 73.191406 114.21875 73.535156 115.785156 L 75.074219 115.785156 C 75.480469 111.238281 77.816406 107.246094 81.257812 104.632812 "/>
<path style=" stroke:none;fill-rule:nonzero;fill:rgb(0.392157%,38.039216%,61.960787%);fill-opacity:1;" d="M 83.578125 108.75 C 81.527344 110.511719 80.082031 112.972656 79.734375 115.796875 L 87.644531 115.796875 L 83.578125 108.75 "/>
<path style=" stroke:none;fill-rule:nonzero;fill:rgb(0.392157%,38.039216%,61.960787%);fill-opacity:1;" d="M 87.050781 106.761719 L 92.578125 116.34375 C 92.578125 116.34375 92.84375 116.785156 92.84375 117.261719 C 92.84375 118.667969 91.402344 118.667969 90.714844 118.667969 L 79.765625 118.6875 C 80.503906 124.132812 85.160156 128.347656 90.808594 128.347656 C 96.972656 128.347656 101.964844 123.359375 101.964844 117.203125 C 101.964844 111.046875 96.972656 106.058594 90.808594 106.058594 C 89.472656 106.058594 88.238281 106.332031 87.050781 106.761719 "/>
<path style=" stroke:none;fill-rule:nonzero;fill:rgb(0.392157%,38.039216%,61.960787%);fill-opacity:1;" d="M 40.574219 109.285156 C 40.035156 111.289062 39.664062 112.679688 39.609375 112.871094 C 38.390625 117.394531 33.734375 118.792969 32.785156 118.792969 C 31.761719 118.792969 31.140625 118.109375 31.140625 117.148438 C 31.140625 116.1875 31.914062 115.910156 32.195312 115.691406 C 35.734375 112.933594 36.292969 109.988281 36.292969 109.988281 C 36.292969 109.988281 36.613281 108.777344 37.101562 106.949219 C 35.757812 106.375 34.277344 106.058594 32.722656 106.058594 C 26.5625 106.058594 21.566406 111.046875 21.566406 117.203125 C 21.566406 123.359375 26.5625 128.347656 32.722656 128.347656 C 38.882812 128.347656 43.878906 123.359375 43.878906 117.203125 C 43.878906 114.105469 42.613281 111.304688 40.574219 109.285156 "/>
<path style=" stroke:none;fill-rule:nonzero;fill:rgb(0.392157%,38.039216%,61.960787%);fill-opacity:1;" d="M 71.210938 117.195312 C 71.210938 114.90625 69.355469 113.050781 67.066406 113.050781 C 64.777344 113.050781 62.921875 114.90625 62.921875 117.195312 C 62.921875 119.484375 64.777344 121.339844 67.066406 121.339844 C 69.355469 121.339844 71.210938 119.484375 71.210938 117.195312 Z M 71.210938 117.195312 "/>
</g>
</svg>
