<?xml version="1.0" encoding="UTF-8"?>
<svg xmlns="http://www.w3.org/2000/svg" xmlns:xlink="http://www.w3.org/1999/xlink" width="200px" height="120px" viewBox="0 0 200 120" version="1.1">
<g id="surface1">
<path style="fill-rule:evenodd;fill:rgb(100%,100%,100%);fill-opacity:1;stroke-width:3.2032;stroke-linecap:butt;stroke-linejoin:miter;stroke:rgb(0%,43.921569%,71.764708%);stroke-opacity:1;stroke-miterlimit:10;" d="M 732.195267 160.698028 C 746.001515 160.698028 757.39916 172.095673 757.39916 185.901921 L 757.39916 454.098079 C 757.39916 468.203962 746.001515 479.301972 732.195267 479.301972 L 227.794723 479.301972 C 214 479.301972 202.602354 468.203962 202.602354 454.098079 L 202.602354 185.901921 C 202.602354 172.003478 213.89628 160.698028 227.794723 160.698028 Z M 732.195267 160.698028 " transform="matrix(0.338954,0,0,0.338954,-62.696383,-48.465387)"/>
<path style=" stroke:none;fill-rule:evenodd;fill:rgb(0%,43.921569%,71.764708%);fill-opacity:1;" d="M 10.179688 14.546875 C 10.179688 12.207031 12.078125 10.308594 14.414062 10.308594 C 14.449219 10.308594 14.484375 10.308594 14.515625 10.308594 L 87.15625 10.308594 L 87.15625 109.757812 L 14.515625 109.757812 C 12.109375 109.757812 10.210938 107.828125 10.210938 105.453125 L 10.210938 14.546875 Z M 10.179688 14.546875 "/>
<path style=" stroke:none;fill-rule:evenodd;fill:rgb(0%,43.921569%,71.764708%);fill-opacity:1;" d="M 189.722656 105.453125 C 189.722656 107.859375 187.789062 109.757812 185.484375 109.757812 L 95.664062 109.757812 L 95.664062 10.308594 L 185.484375 10.308594 C 187.789062 10.308594 189.722656 12.242188 189.722656 14.546875 Z M 189.722656 105.453125 "/>
<path style=" stroke:none;fill-rule:evenodd;fill:rgb(100%,100%,100%);fill-opacity:1;" d="M 124 38.171875 C 125.015625 34.578125 126.101562 30.984375 127.21875 27.324219 C 127.21875 27.324219 127.21875 27.324219 127.21875 27.222656 C 127.21875 27.054688 127.117188 26.851562 127.050781 26.851562 C 127.050781 26.851562 127.050781 26.851562 126.949219 26.851562 C 125.660156 26.308594 124.847656 25.019531 124.847656 23.628906 C 124.847656 21.800781 126.40625 20.242188 128.238281 20.242188 C 128.609375 20.242188 129.050781 20.242188 129.523438 20.242188 C 131.082031 20.242188 132.644531 20.242188 134.203125 20.242188 C 134.203125 21.359375 134.203125 22.445312 134.203125 23.628906 C 132.8125 23.628906 131.457031 23.628906 129.964844 23.628906 C 129.695312 23.628906 129.421875 23.628906 129.050781 23.628906 C 128.878906 23.628906 128.675781 23.800781 128.675781 24.105469 C 128.675781 24.207031 128.675781 24.375 128.847656 24.476562 C 129.964844 25.121094 130.675781 25.867188 130.675781 27.054688 C 130.675781 27.597656 130.574219 27.800781 130.507812 28.339844 C 130.40625 28.613281 129.964844 30.003906 129.964844 30.003906 C 137.695312 30.003906 145.488281 30.003906 153.320312 30.003906 C 153.792969 28.882812 154.234375 27.800781 154.707031 26.679688 C 152.945312 26.207031 151.21875 25.765625 149.457031 25.292969 C 149.082031 25.1875 148.8125 24.816406 148.8125 24.476562 C 148.8125 24.003906 149.183594 23.664062 149.625 23.664062 C 153.589844 23.664062 157.523438 23.664062 161.589844 23.664062 C 161.589844 25.597656 160.132812 27.054688 158.199219 27.054688 C 157.828125 27.96875 157.453125 28.984375 157.015625 30.003906 C 158.472656 32.679688 159.960938 35.425781 161.421875 38.171875 C 162.980469 37.628906 164.640625 37.257812 166.300781 37.257812 C 173.386719 37.257812 179.078125 42.949219 179.078125 50.035156 C 179.078125 57.117188 173.386719 62.8125 166.300781 62.8125 C 159.691406 62.8125 154.167969 57.863281 153.523438 51.324219 C 153.046875 51.324219 152.605469 51.324219 152.066406 51.324219 C 151.691406 52.507812 150.945312 53.527344 149.964844 54.273438 C 150.335938 55.085938 150.777344 55.933594 151.25 56.847656 C 151.894531 56.847656 152.539062 56.847656 153.285156 56.847656 C 153.285156 57.390625 153.285156 57.964844 153.285156 58.507812 C 152.8125 58.507812 152.371094 58.507812 151.894531 58.507812 C 151.625 58.78125 151.25 58.984375 150.878906 58.984375 C 150.507812 58.984375 150.234375 58.8125 149.964844 58.507812 C 149.421875 58.507812 148.777344 58.507812 148.132812 58.507812 C 148.132812 57.964844 148.132812 57.390625 148.132812 56.847656 C 148.675781 56.847656 149.25 56.847656 149.792969 56.847656 C 149.523438 56.203125 149.148438 55.558594 148.777344 54.8125 C 148.03125 55.085938 147.863281 55.085938 147.015625 55.085938 C 144.269531 55.085938 141.964844 52.882812 141.964844 50.035156 C 141.964844 49.492188 142.066406 49.019531 142.132812 48.578125 C 142.132812 48.578125 142.132812 48.578125 142.132812 48.476562 C 137.253906 45.152344 132.40625 41.867188 127.523438 38.441406 C 127.421875 38.917969 127.253906 39.359375 127.050781 39.832031 C 127.050781 39.832031 127.050781 39.832031 127.152344 39.933594 C 130.269531 42.410156 132.101562 46 132.101562 50.035156 C 132.101562 57.117188 126.304688 62.8125 119.21875 62.8125 C 112.136719 62.8125 106.441406 57.117188 106.441406 50.035156 C 106.441406 42.949219 112.136719 37.257812 119.21875 37.257812 C 121.253906 37.257812 122.066406 37.425781 123.898438 38.171875 C 123.898438 38.171875 123.898438 38.171875 124 38.171875 Z M 143.589844 50.035156 C 143.589844 51.863281 145.152344 53.425781 146.980469 53.425781 C 148.914062 53.425781 150.472656 51.863281 150.472656 50.035156 C 150.472656 48.203125 148.914062 46.644531 146.980469 46.644531 C 145.152344 46.609375 143.589844 48.203125 143.589844 50.035156 Z M 125.828125 43.96875 C 125.660156 44.714844 125.457031 45.425781 125.1875 46.273438 C 124.441406 48.679688 121.964844 50.578125 119.492188 51.324219 C 119.492188 51.324219 119.320312 51.324219 119.21875 51.324219 C 118.578125 51.324219 117.933594 50.679688 117.933594 50.035156 C 117.933594 49.558594 118.203125 49.222656 118.476562 49.019531 C 118.476562 49.019531 118.578125 48.917969 118.644531 48.847656 C 120.101562 47.832031 121.390625 46.746094 121.863281 45.253906 C 122.136719 44.136719 122.507812 43.050781 122.882812 41.867188 C 121.761719 41.390625 120.472656 41.121094 119.21875 41.121094 C 114.273438 41.121094 110.304688 45.085938 110.304688 50.035156 C 110.304688 54.984375 114.273438 58.949219 119.21875 58.949219 C 124.167969 58.949219 128.238281 54.984375 128.238281 50.035156 C 128.238281 47.730469 127.320312 45.628906 125.828125 44.070312 C 125.828125 44.035156 125.828125 44.035156 125.828125 43.96875 Z M 150.472656 46.171875 C 152.132812 42.035156 153.792969 37.796875 155.523438 33.5625 C 156.539062 35.59375 157.625 37.59375 158.742188 39.628906 C 158.742188 39.628906 158.742188 39.628906 158.742188 39.730469 C 155.726562 41.832031 153.863281 45.050781 153.488281 48.746094 C 153.015625 48.746094 152.472656 48.746094 151.929688 48.746094 C 151.929688 48.746094 151.929688 48.746094 152.03125 48.746094 C 151.761719 47.730469 151.285156 46.984375 150.472656 46.273438 C 150.472656 46.273438 150.472656 46.273438 150.472656 46.171875 Z M 160.574219 43.121094 C 158.742188 44.578125 157.726562 46.441406 157.351562 48.710938 C 159.386719 48.710938 161.488281 48.710938 163.589844 48.710938 C 162.574219 46.882812 161.554688 44.949219 160.574219 43.019531 C 160.574219 43.050781 160.574219 43.050781 160.574219 43.121094 Z M 167.488281 49.457031 C 167.488281 49.628906 167.589844 49.832031 167.589844 50 C 167.589844 50.644531 166.945312 51.289062 166.300781 51.289062 C 163.351562 51.289062 160.402344 51.289062 157.386719 51.289062 C 157.386719 51.289062 157.386719 51.289062 157.386719 51.390625 C 158.03125 55.695312 161.792969 58.914062 166.300781 58.914062 C 171.25 58.914062 175.214844 54.949219 175.214844 50 C 175.214844 45.050781 171.25 41.085938 166.300781 41.085938 C 165.285156 41.085938 164.199219 41.253906 163.285156 41.5625 C 164.640625 44.136719 165.996094 46.816406 167.488281 49.457031 Z M 144.203125 45.796875 C 143.828125 44.984375 143.386719 44.136719 142.914062 43.222656 C 142.269531 43.222656 141.523438 43.222656 140.8125 43.222656 C 140.8125 42.679688 140.8125 42.101562 140.8125 41.460938 C 141.285156 41.460938 141.726562 41.460938 142.203125 41.460938 C 142.203125 41.460938 142.203125 41.460938 142.304688 41.460938 C 142.472656 41.1875 142.84375 41.085938 143.21875 41.085938 C 143.589844 41.085938 143.863281 41.1875 144.132812 41.460938 C 144.675781 41.460938 145.320312 41.460938 145.964844 41.460938 C 145.964844 42 145.964844 42.578125 145.964844 43.222656 C 145.421875 43.222656 144.84375 43.222656 144.304688 43.222656 C 144.574219 43.867188 144.945312 44.511719 145.320312 45.253906 C 145.320312 45.253906 145.320312 45.253906 145.421875 45.152344 C 145.964844 44.984375 146.539062 44.882812 146.980469 44.882812 C 147.082031 44.882812 147.148438 44.882812 147.25 44.882812 C 147.25 44.882812 147.25 44.882812 147.25 44.984375 C 148.8125 41.019531 150.472656 37.085938 152.132812 33.019531 C 144.507812 33.019531 136.777344 33.019531 129.050781 33.019531 C 128.878906 33.765625 128.675781 34.578125 128.40625 35.425781 C 133.558594 38.917969 138.710938 42.511719 143.863281 46.101562 C 143.929688 45.96875 144.03125 45.898438 144.203125 45.796875 Z M 144.203125 45.796875 "/>
<path style=" stroke:none;fill-rule:evenodd;fill:rgb(100%,100%,100%);fill-opacity:1;" d="M 145.488281 68.609375 L 145.488281 91.285156 L 151.117188 85.589844 L 151.117188 94.066406 L 142.574219 102.605469 L 134.203125 94.066406 L 134.203125 85.589844 L 139.796875 91.285156 L 139.796875 68.609375 Z M 145.488281 68.609375 "/>
<path style=" stroke:none;fill-rule:evenodd;fill:rgb(100%,100%,100%);fill-opacity:1;" d="M 26.449219 85.589844 L 26.449219 49.558594 L 18.921875 57.117188 L 18.921875 45.796875 L 30.246094 34.476562 L 41.632812 45.796875 L 41.632812 57.117188 L 34.074219 49.558594 L 34.074219 85.589844 Z M 26.449219 85.589844 "/>
<path style=" stroke:none;fill-rule:evenodd;fill:rgb(100%,100%,100%);fill-opacity:1;" d="M 63.429688 85.589844 L 63.429688 49.558594 L 55.800781 57.117188 L 55.800781 45.796875 L 67.191406 34.476562 L 78.476562 45.796875 L 78.476562 57.117188 L 70.953125 49.558594 L 70.953125 85.589844 Z M 63.429688 85.589844 "/>
</g>
</svg>
