<?xml version="1.0" encoding="UTF-8"?>
<svg xmlns="http://www.w3.org/2000/svg" xmlns:xlink="http://www.w3.org/1999/xlink" width="200px" height="150px" viewBox="0 0 200 150" version="1.1">
<g id="surface1">
<path style="fill-rule:evenodd;fill:rgb(100%,100%,100%);fill-opacity:1;stroke-width:3.893;stroke-linecap:butt;stroke-linejoin:miter;stroke:rgb(0%,43.921569%,71.764708%);stroke-opacity:1;stroke-miterlimit:10;" d="M 215.804652 482.696315 L 215.502702 482.998265 C 215.704002 499.605516 229.202285 513.003149 245.798352 513.003149 C 245.899002 513.003149 245.999652 513.003149 246.100302 513.003149 L 246.100302 513.305099 L 714.100438 513.305099 L 714.100438 513.003149 C 730.595855 512.801849 743.904021 499.504866 744.105321 482.998265 L 744.396088 482.998265 L 744.396088 157.294864 L 744.105321 157.294864 C 744.105321 157.205397 744.105321 157.104747 744.105321 157.004097 C 744.105321 140.396847 730.696505 126.898563 714.100438 126.697263 L 246.100302 126.697263 C 245.999652 126.697263 245.899002 126.697263 245.798352 126.697263 C 229.101635 126.697263 215.502702 140.296197 215.502702 157.004097 C 215.502702 157.104747 215.502702 157.205397 215.502702 157.294864 L 215.502702 482.998265 Z M 215.804652 482.696315 " transform="matrix(0.349292,0,0,0.349292,-67.644485,-36.769978)"/>
<path style=" stroke:none;fill-rule:evenodd;fill:rgb(0%,43.921569%,71.764708%);fill-opacity:1;" d="M 18.351562 137.210938 L 181.820312 137.210938 L 181.820312 137.109375 C 184.683594 137.109375 187.058594 134.800781 187.128906 131.9375 L 187.128906 18.171875 C 187.128906 18.140625 187.128906 18.105469 187.128906 18.070312 C 187.128906 15.136719 184.753906 12.757812 181.820312 12.757812 L 18.351562 12.757812 C 18.316406 12.757812 18.28125 12.757812 18.246094 12.757812 C 15.3125 12.757812 12.9375 15.136719 12.9375 18.070312 C 12.9375 18.105469 12.9375 18.140625 12.9375 18.171875 L 12.9375 131.9375 C 13.007812 134.800781 15.347656 137.109375 18.246094 137.109375 C 18.28125 137.109375 18.316406 137.109375 18.351562 137.109375 Z M 18.351562 137.210938 "/>
<path style=" stroke:none;fill-rule:evenodd;fill:rgb(100%,100%,100%);fill-opacity:1;" d="M 39.625 43.042969 L 53.804688 57.222656 L 53.804688 71.511719 L 44.339844 61.941406 L 44.339844 107.070312 L 34.90625 107.070312 L 34.90625 61.941406 L 25.371094 71.511719 L 25.371094 57.222656 Z M 39.625 43.042969 "/>
<path style=" stroke:none;fill-rule:evenodd;fill:rgb(100%,100%,100%);fill-opacity:1;" d="M 132.882812 85.65625 L 132.882812 114.089844 L 140.042969 107.070312 L 140.042969 117.652344 L 129.320312 128.375 L 118.738281 117.652344 L 118.738281 107.070312 L 125.863281 114.089844 L 125.863281 85.65625 Z M 132.882812 85.65625 "/>
<path style=" stroke:none;fill-rule:evenodd;fill:rgb(100%,100%,100%);fill-opacity:1;" d="M 137.597656 73.222656 C 137.914062 73.746094 138.507812 74.027344 139.101562 74.027344 C 139.695312 74.027344 140.289062 73.710938 140.601562 73.222656 L 142.558594 73.222656 L 142.558594 71.160156 L 139.695312 71.160156 L 138.296875 68.15625 L 138.296875 68.050781 C 139.765625 67.144531 140.8125 65.675781 141.230469 64.035156 L 141.195312 64.035156 L 142.804688 64.035156 L 142.734375 64.035156 C 143.46875 72.3125 150.382812 78.636719 158.660156 78.636719 C 167.5 78.636719 174.660156 71.476562 174.660156 62.636719 C 174.660156 53.800781 167.5 46.640625 158.660156 46.640625 C 156.53125 46.640625 154.402344 47.058594 152.445312 47.898438 L 146.121094 36.964844 L 147.378906 33.507812 L 147.378906 33.367188 C 149.40625 33.226562 151.152344 31.867188 151.675781 29.945312 L 151.5 29.804688 C 151.5 29.769531 151.5 29.734375 151.5 29.699219 C 151.5 29.492188 151.363281 29.316406 151.152344 29.246094 L 137.390625 29.246094 C 136.621094 29.246094 135.992188 29.804688 135.992188 30.503906 C 135.992188 31.097656 136.410156 31.585938 137.039062 31.726562 L 137.039062 31.867188 L 143.257812 33.261719 L 141.757812 37.28125 L 112.625 37.28125 L 113.183594 34.871094 L 113.148438 34.871094 C 113.253906 34.519531 113.289062 34.171875 113.289062 33.855469 C 113.289062 32.597656 112.625 31.410156 111.578125 30.75 C 111.367188 30.609375 111.226562 30.328125 111.226562 30.085938 C 111.226562 29.628906 111.578125 29.28125 112.03125 29.28125 L 118.144531 29.28125 L 118.144531 25.265625 L 110.667969 25.265625 C 108.328125 25.265625 106.40625 27.183594 106.40625 29.527344 C 106.40625 31.0625 107.246094 32.496094 108.574219 33.226562 L 108.503906 33.296875 C 108.851562 33.542969 109.0625 33.925781 109.0625 34.347656 C 109.0625 34.449219 109.0625 34.554688 109.027344 34.695312 L 109.203125 34.695312 L 105.742188 47.6875 C 103.929688 46.992188 102.007812 46.640625 100.085938 46.640625 C 91.25 46.640625 84.089844 53.800781 84.089844 62.636719 C 84.089844 71.476562 91.25 78.636719 100.085938 78.636719 C 108.921875 78.636719 116.082031 71.476562 116.082031 62.636719 C 116.082031 57.433594 113.535156 52.542969 109.273438 49.539062 L 109.273438 49.503906 L 109.832031 47.550781 L 128.378906 60.542969 L 128.34375 60.542969 C 128.132812 61.171875 128.027344 61.835938 128.027344 62.5 C 128.027344 66.132812 131.03125 69.066406 134.699219 69.066406 C 135.363281 69.066406 136.027344 68.960938 136.65625 68.785156 L 136.65625 68.960938 L 137.566406 71.160156 L 135.851562 71.160156 L 135.851562 73.222656 Z M 134.734375 58.378906 C 137.074219 58.378906 138.996094 60.296875 138.996094 62.636719 C 138.996094 64.980469 137.074219 66.898438 134.734375 66.898438 C 132.394531 66.898438 130.472656 64.980469 130.472656 62.636719 C 130.472656 60.261719 132.394531 58.378906 134.734375 58.378906 Z M 107 58.027344 C 106.128906 61.171875 103.542969 63.546875 100.332031 64.105469 L 100.332031 64 C 100.261719 64 100.191406 64 100.085938 64 C 99.210938 64 98.480469 63.335938 98.480469 62.5 C 98.480469 62.011719 98.757812 61.519531 99.175781 61.242188 L 99.175781 61.136719 C 101.378906 59.703125 102.949219 57.539062 103.648438 55.023438 L 103.683594 55.023438 L 104.488281 52.265625 L 104.488281 52.300781 C 103.089844 51.671875 101.550781 51.355469 99.980469 51.355469 C 93.832031 51.355469 88.804688 56.351562 88.804688 62.535156 C 88.804688 68.679688 93.796875 73.710938 99.980469 73.710938 C 106.164062 73.710938 111.15625 68.714844 111.15625 62.535156 C 111.15625 59.601562 110.003906 56.769531 107.945312 54.710938 L 107.140625 58.0625 Z M 160.652344 61.835938 L 154.890625 52.054688 L 154.890625 52.019531 C 156.113281 51.566406 157.40625 51.355469 158.695312 51.355469 C 164.84375 51.355469 169.875 56.351562 169.875 62.535156 C 169.875 68.679688 164.878906 73.710938 158.695312 73.710938 C 153.109375 73.710938 148.394531 69.589844 147.625 64.035156 L 159.359375 64.035156 L 159.359375 63.929688 C 160.09375 63.859375 160.617188 63.265625 160.617188 62.570312 C 160.617188 62.359375 160.582031 62.183594 160.476562 62.011719 Z M 151.429688 54.011719 L 155.589844 61.136719 L 147.625 61.136719 C 147.9375 58.378906 149.300781 55.828125 151.429688 54.011719 Z M 132.78125 56.175781 L 131.730469 54.117188 L 133.582031 54.117188 L 133.582031 51.914062 L 131.730469 51.914062 L 131.765625 51.914062 C 131.417969 51.425781 130.859375 51.113281 130.265625 51.113281 C 129.671875 51.113281 129.078125 51.425781 128.761719 51.914062 L 126.910156 51.914062 L 126.910156 54.117188 L 129.671875 54.117188 L 131.066406 56.980469 L 131.101562 57.015625 C 130.964844 57.085938 130.824219 57.191406 130.71875 57.292969 L 130.753906 57.328125 L 110.949219 43.496094 L 111.507812 41.191406 L 140.394531 41.191406 L 134.945312 55.96875 C 134.875 55.96875 134.804688 55.96875 134.699219 55.96875 C 134.035156 55.96875 133.375 56.070312 132.746094 56.246094 Z M 142.804688 61.136719 L 141.195312 61.136719 L 141.265625 61.136719 C 140.917969 59.601562 140.042969 58.238281 138.789062 57.292969 L 138.753906 57.328125 L 144.410156 41.785156 L 149.019531 49.855469 L 149.054688 49.855469 C 145.492188 52.542969 143.1875 56.628906 142.769531 61.101562 Z M 142.804688 61.136719 "/>
</g>
</svg>
