<?xml version="1.0" encoding="UTF-8"?>
<svg xmlns="http://www.w3.org/2000/svg" xmlns:xlink="http://www.w3.org/1999/xlink" width="200px" height="px" viewBox="0 0 200 214" version="1.1">
<g id="surface1">
<path style="fill-rule:evenodd;fill:rgb(100%,100%,100%);fill-opacity:1;stroke-width:4.2436;stroke-linecap:butt;stroke-linejoin:miter;stroke:rgb(0%,43.921569%,71.764708%);stroke-opacity:1;stroke-miterlimit:10;" d="M 690.495764 516.403847 C 690.495764 533.60412 676.104202 547.99581 658.496239 547.99581 L 301.101204 547.99581 C 283.50238 547.99581 269.50373 533.60412 269.50373 516.403847 L 269.50373 124.000832 C 269.50373 123.89987 269.50373 123.697946 269.50373 123.596984 C 269.50373 106.203966 283.703405 91.995843 301.101204 91.995843 L 658.596752 91.995843 C 676.195577 91.995843 690.596276 106.396711 690.596276 124.000832 L 690.596276 516.403847 Z M 690.495764 516.403847 " transform="matrix(0.427497,0,0,0.425593,-105.219736,-29.191833)"/>
<path style=" stroke:none;fill-rule:evenodd;fill:rgb(0%,43.921569%,71.764708%);fill-opacity:1;" d="M 183.082031 190.414062 C 183.082031 194.246094 180.175781 197.308594 176.328125 197.308594 L 23.628906 197.308594 C 19.78125 197.308594 16.703125 194.246094 16.703125 190.414062 L 16.703125 23.582031 C 16.703125 19.878906 19.738281 16.855469 23.457031 16.855469 C 23.5 16.855469 23.542969 16.855469 23.628906 16.855469 L 176.285156 16.855469 C 180.132812 16.855469 183.042969 19.75 183.042969 23.582031 Z M 183.082031 190.414062 "/>
<path style=" stroke:none;fill-rule:evenodd;fill:rgb(100%,100%,100%);fill-opacity:1;" d="M 97.070312 35.074219 L 91.214844 35.074219 L 91.214844 52.523438 L 96.902344 52.523438 C 99.980469 52.523438 102.886719 49.628906 102.886719 44.09375 C 102.886719 38.433594 100.148438 35.074219 97.070312 35.074219 Z M 97.542969 31.070312 L 86.769531 31.070312 L 86.769531 56.480469 L 97.542969 56.480469 C 102.757812 56.480469 107.203125 51.414062 107.375 43.925781 C 107.332031 36.433594 102.585938 31.070312 97.542969 31.070312 Z M 97.542969 31.070312 "/>
<path style=" stroke:none;fill-rule:evenodd;fill:rgb(100%,100%,100%);fill-opacity:1;" d="M 40.214844 31.070312 L 32.390625 31.070312 L 32.390625 56.480469 L 48.851562 56.480469 L 48.851562 52.480469 L 36.710938 52.480469 L 36.710938 45.628906 L 47.3125 45.628906 L 47.3125 41.625 L 36.710938 41.625 L 36.710938 35.199219 L 48.378906 35.199219 L 48.378906 31.070312 Z M 40.214844 31.070312 "/>
<path style=" stroke:none;fill-rule:evenodd;fill:rgb(100%,100%,100%);fill-opacity:1;" d="M 162.050781 31.242188 L 154.183594 31.242188 L 154.183594 56.480469 L 158.503906 56.480469 L 158.503906 45.585938 L 169.105469 45.585938 L 169.105469 41.625 L 158.503906 41.625 L 158.503906 35.074219 L 170.171875 35.074219 L 170.171875 31.242188 Z M 162.050781 31.242188 "/>
<path style=" stroke:none;fill-rule:evenodd;fill:rgb(100%,100%,100%);fill-opacity:1;" d="M 77.535156 44.394531 L 77.535156 31.242188 L 73.261719 31.242188 L 73.261719 49.414062 L 61.289062 31.242188 L 56.203125 31.242188 L 56.203125 56.480469 L 60.519531 56.480469 L 60.519531 38.09375 L 72.492188 56.480469 L 77.535156 56.480469 Z M 77.535156 44.394531 "/>
<path style=" stroke:none;fill-rule:evenodd;fill:rgb(100%,100%,100%);fill-opacity:1;" d="M 136.230469 30.773438 C 142.855469 30.773438 148.371094 36.136719 148.371094 43.753906 C 148.371094 51.371094 142.984375 57.074219 136.230469 57.074219 C 129.304688 57.074219 124.089844 51.414062 124.089844 43.753906 C 124.089844 36.09375 129.605469 30.773438 136.230469 30.773438 Z M 136.230469 34.730469 C 141.316406 34.730469 143.925781 39.796875 143.925781 43.753906 C 143.925781 47.882812 141.488281 53.074219 136.230469 53.074219 C 131.015625 53.074219 128.535156 47.882812 128.535156 43.753906 C 128.535156 39.796875 131.144531 34.730469 136.230469 34.730469 Z M 136.230469 34.730469 "/>
<path style=" stroke:none;fill-rule:evenodd;fill:rgb(100%,100%,100%);fill-opacity:1;" d="M 50.816406 161.347656 L 45.898438 161.347656 L 45.898438 169.132812 L 50.816406 169.132812 C 53.125 169.132812 54.664062 167.007812 54.664062 165.132812 C 54.664062 163.261719 52.824219 161.347656 50.816406 161.347656 Z M 51.585938 157.515625 L 41.285156 157.515625 L 41.285156 182.882812 L 45.898438 182.882812 L 45.898438 172.964844 L 50.21875 172.964844 L 54.964844 182.921875 L 59.707031 182.921875 L 54.492188 172.367188 C 55.859375 171.601562 59.109375 169.476562 59.109375 165.175781 C 59.109375 160.921875 55.605469 157.515625 51.585938 157.515625 Z M 51.585938 157.515625 "/>
<path style=" stroke:none;fill-rule:evenodd;fill:rgb(100%,100%,100%);fill-opacity:1;" d="M 128.40625 182.921875 L 130.375 182.921875 L 130.375 161.515625 L 137.128906 161.515625 L 137.128906 157.515625 L 119.046875 157.515625 L 119.046875 161.515625 L 125.925781 161.515625 L 125.925781 182.921875 Z M 128.40625 182.921875 "/>
<path style=" stroke:none;fill-rule:evenodd;fill:rgb(100%,100%,100%);fill-opacity:1;" d="M 114.257812 173.730469 L 114.257812 157.515625 L 109.8125 157.515625 L 109.8125 173.730469 C 109.8125 176.921875 107.503906 179.519531 104.296875 179.519531 C 101.089844 179.519531 99.082031 176.921875 99.082031 173.730469 L 99.082031 157.515625 L 94.636719 157.515625 L 94.636719 173.730469 C 94.636719 178.453125 98.609375 183.519531 104.46875 183.519531 C 110.28125 183.519531 114.257812 178.496094 114.257812 173.730469 Z M 114.257812 173.730469 "/>
<path style=" stroke:none;fill-rule:evenodd;fill:rgb(100%,100%,100%);fill-opacity:1;" d="M 77.234375 157.089844 C 83.691406 157.089844 89.375 162.582031 89.375 170.242188 C 89.375 177.902344 83.992188 183.5625 77.234375 183.5625 C 70.308594 183.5625 64.964844 177.902344 64.964844 170.242188 C 64.964844 162.582031 70.652344 157.089844 77.234375 157.089844 Z M 77.234375 161.21875 C 82.324219 161.21875 84.757812 166.28125 84.757812 170.242188 C 84.757812 174.371094 82.324219 179.5625 77.234375 179.5625 C 72.019531 179.5625 69.539062 174.371094 69.539062 170.242188 C 69.582031 166.242188 72.019531 161.21875 77.234375 161.21875 Z M 77.234375 161.21875 "/>
<path style=" stroke:none;fill-rule:evenodd;fill:rgb(100%,100%,100%);fill-opacity:1;" d="M 150.679688 157.515625 L 142.8125 157.515625 L 142.8125 182.921875 L 159.273438 182.921875 L 159.273438 178.921875 L 147.132812 178.921875 L 147.132812 171.902344 L 157.5625 171.902344 L 157.5625 168.070312 L 147.132812 168.070312 L 147.132812 161.515625 L 158.632812 161.515625 L 158.632812 157.515625 Z M 150.679688 157.515625 "/>
<path style=" stroke:none;fill-rule:evenodd;fill:rgb(100%,100%,100%);fill-opacity:1;" d="M 67.875 100.484375 C 69.710938 94.359375 71.550781 88.273438 73.386719 81.972656 C 73.386719 81.972656 73.386719 81.972656 73.386719 81.804688 C 73.386719 81.503906 73.21875 81.207031 72.917969 81.207031 C 70.78125 80.269531 69.242188 78.144531 69.242188 75.84375 C 69.242188 72.609375 71.847656 70.015625 75.097656 70.015625 C 75.695312 70.015625 76.464844 70.015625 77.234375 70.015625 C 79.84375 70.015625 82.453125 70.015625 85.230469 70.015625 C 85.230469 71.84375 85.230469 73.675781 85.230469 75.675781 C 82.921875 75.675781 80.484375 75.675781 78.003906 75.675781 C 77.535156 75.675781 77.066406 75.675781 76.464844 75.675781 C 76.167969 75.675781 75.867188 76.140625 75.867188 76.441406 C 75.867188 76.738281 76.039062 76.910156 76.167969 77.035156 C 78.003906 78.101562 79.246094 79.460938 79.246094 81.460938 C 79.246094 82.398438 79.246094 82.695312 78.945312 83.589844 C 78.773438 84.058594 78.003906 86.484375 78.003906 86.484375 C 91.214844 86.484375 104.425781 86.484375 117.632812 86.484375 C 118.402344 84.652344 119.171875 82.824219 120.070312 80.824219 C 117.164062 80.058594 114.085938 79.292969 111.007812 78.527344 C 110.410156 78.355469 109.9375 77.757812 109.9375 77.164062 C 109.9375 76.398438 110.707031 75.632812 111.476562 75.632812 C 118.234375 75.632812 124.988281 75.632812 131.742188 75.632812 C 131.742188 78.824219 129.132812 81.460938 125.925781 81.460938 C 125.328125 83.164062 124.6875 84.824219 123.917969 86.527344 C 126.355469 91.125 128.835938 95.71875 131.441406 100.445312 C 134.050781 99.378906 136.828125 98.742188 139.566406 98.742188 C 151.535156 98.742188 161.367188 108.53125 161.367188 120.445312 C 161.367188 132.363281 151.535156 142.152344 139.566406 142.152344 C 128.363281 142.152344 119.003906 133.726562 117.890625 122.746094 C 117.121094 122.746094 116.351562 122.746094 115.453125 122.746094 C 115.453125 122.746094 115.453125 122.746094 115.28125 122.574219 C 114.8125 124.703125 113.574219 126.40625 111.734375 127.640625 C 112.332031 129 113.101562 130.53125 113.871094 132.066406 C 114.941406 132.066406 116.179688 132.066406 117.421875 132.066406 C 117.421875 133 117.421875 133.894531 117.421875 134.960938 C 116.652344 134.960938 115.882812 134.960938 115.113281 134.960938 C 114.640625 135.425781 114.042969 135.554688 113.402344 135.554688 C 112.804688 135.554688 112.164062 135.425781 111.691406 134.960938 C 110.75 134.960938 109.855469 134.960938 108.785156 134.960938 C 108.785156 134.023438 108.785156 133.128906 108.785156 132.066406 C 109.726562 132.066406 110.625 132.066406 111.5625 132.066406 C 110.964844 131 110.324219 129.9375 109.726562 128.703125 C 108.484375 129.171875 108.1875 129.171875 106.945312 129.171875 C 102.03125 129.171875 98.183594 125.214844 98.183594 120.445312 C 98.183594 119.679688 98.355469 118.746094 98.480469 118.019531 C 98.480469 118.019531 98.480469 118.019531 98.480469 117.851562 C 90.359375 112.191406 82.066406 106.53125 73.773438 100.871094 C 73.601562 101.636719 73.304688 102.402344 73.003906 103.167969 C 73.003906 103.167969 73.003906 103.167969 73.003906 103.335938 C 78.519531 107.464844 81.46875 113.722656 81.46875 120.445312 C 81.46875 132.363281 71.804688 142.152344 59.792969 142.152344 C 47.824219 142.152344 37.992188 132.363281 37.992188 120.445312 C 37.992188 108.53125 47.824219 98.742188 59.792969 98.742188 C 63.171875 98.742188 64.539062 99.039062 67.617188 100.273438 C 67.703125 100.359375 67.703125 100.359375 67.875 100.484375 Z M 101.21875 120.53125 C 101.21875 123.722656 103.824219 126.363281 107.074219 126.363281 C 110.152344 126.363281 112.761719 123.765625 112.761719 120.53125 C 112.761719 117.339844 110.152344 114.699219 107.074219 114.699219 C 103.824219 114.699219 101.21875 117.339844 101.21875 120.53125 Z M 71.121094 110.273438 C 70.824219 111.507812 70.351562 112.699219 69.882812 114.105469 C 68.644531 118.234375 64.496094 121.597656 60.351562 122.660156 C 60.179688 122.660156 60.050781 122.660156 59.878906 122.660156 C 58.640625 122.660156 57.742188 121.722656 57.742188 120.53125 C 57.742188 119.765625 58.042969 119.167969 58.683594 118.828125 C 58.683594 118.828125 58.851562 118.703125 58.980469 118.53125 C 61.417969 116.828125 63.425781 115 64.367188 112.574219 C 64.839844 110.742188 65.4375 108.742188 66.078125 106.742188 C 66.078125 106.742188 66.078125 106.742188 66.078125 106.574219 C 64.238281 105.804688 62.101562 105.339844 59.921875 105.339844 C 51.457031 105.339844 44.703125 112.234375 44.703125 120.488281 C 44.703125 128.914062 51.457031 135.640625 59.921875 135.640625 C 68.214844 135.640625 75.140625 128.914062 75.140625 120.488281 C 75.140625 116.660156 73.601562 113 71.164062 110.402344 C 71.121094 110.445312 71.121094 110.445312 71.121094 110.273438 Z M 112.71875 114.105469 C 115.625 107.082031 118.574219 99.890625 121.480469 92.699219 C 123.191406 96.058594 125.03125 99.421875 126.867188 102.953125 C 126.867188 102.953125 126.867188 102.953125 126.867188 103.082031 C 121.78125 106.742188 118.574219 112.105469 117.976562 118.359375 C 117.207031 118.359375 116.265625 118.359375 115.367188 118.359375 C 115.070312 116.660156 114.128906 115.296875 112.933594 114.0625 C 112.890625 114.105469 112.890625 114.105469 112.71875 114.105469 Z M 129.945312 108.914062 C 126.867188 111.339844 125.199219 114.402344 124.558594 118.402344 C 128.109375 118.402344 131.613281 118.402344 135.160156 118.402344 C 133.453125 115.210938 131.785156 111.976562 129.945312 108.785156 C 129.945312 108.742188 129.945312 108.742188 129.945312 108.914062 Z M 141.617188 119.59375 C 141.746094 119.894531 141.746094 120.191406 141.746094 120.53125 C 141.746094 121.765625 140.804688 122.660156 139.609375 122.660156 C 134.691406 122.660156 129.605469 122.660156 124.558594 122.660156 C 124.558594 122.660156 124.558594 122.660156 124.558594 122.828125 C 125.628906 130.320312 132.082031 135.683594 139.609375 135.683594 C 148.070312 135.683594 154.828125 128.957031 154.828125 120.53125 C 154.828125 112.273438 148.070312 105.378906 139.609375 105.378906 C 137.941406 105.378906 136.058594 105.679688 134.519531 106.316406 C 136.828125 110.742188 139.136719 115.167969 141.617188 119.59375 Z M 102.117188 113.339844 C 101.519531 111.976562 100.75 110.574219 99.980469 109.039062 C 98.910156 109.039062 97.671875 109.039062 96.429688 109.039062 C 96.429688 108.105469 96.429688 107.210938 96.429688 106.148438 C 97.199219 106.148438 97.96875 106.148438 98.867188 106.148438 C 98.867188 106.148438 98.867188 106.148438 98.867188 105.976562 C 99.335938 105.679688 99.808594 105.378906 100.40625 105.378906 C 101.003906 105.378906 101.644531 105.679688 102.117188 105.976562 C 102.117188 105.976562 102.117188 105.976562 102.117188 106.148438 C 103.054688 106.148438 104.125 106.148438 105.195312 106.148438 C 105.195312 107.082031 105.195312 107.976562 105.195312 109.039062 C 104.253906 109.039062 103.355469 109.039062 102.414062 109.039062 C 102.886719 110.105469 103.484375 111.167969 104.125 112.402344 C 104.125 112.402344 104.125 112.402344 104.296875 112.234375 C 105.238281 111.933594 106.132812 111.933594 107.074219 111.933594 C 107.074219 111.933594 107.246094 111.933594 107.375 111.933594 C 110.152344 105.210938 112.890625 98.484375 115.667969 91.589844 C 102.628906 91.589844 89.546875 91.589844 76.507812 91.589844 C 76.210938 92.953125 75.910156 94.359375 75.441406 95.71875 C 84.03125 101.679688 92.796875 107.636719 101.558594 113.765625 C 101.6875 113.636719 101.816406 113.507812 102.117188 113.339844 Z M 102.117188 113.339844 "/>
</g>
</svg>
