<?xml version="1.0" encoding="UTF-8"?>
<svg xmlns="http://www.w3.org/2000/svg" xmlns:xlink="http://www.w3.org/1999/xlink" width="200px" height="138px" viewBox="0 0 299 138" version="1.1">
<g id="surface1">
<path style=" stroke:none;fill-rule:evenodd;fill:rgb(0%,43.921569%,71.764708%);fill-opacity:1;" d="M 2.09375 15.117188 L 2.34375 12.605469 L 3.097656 10.144531 L 4.253906 7.933594 L 5.859375 5.976562 L 7.816406 4.367188 L 10.078125 3.164062 L 12.488281 2.410156 L 15.046875 2.160156 L 283.960938 2.160156 L 286.472656 2.410156 L 288.933594 3.164062 L 291.191406 4.367188 L 293.152344 5.976562 L 294.707031 7.933594 L 295.914062 10.144531 L 296.664062 12.605469 L 296.917969 15.117188 L 296.917969 122.894531 L 296.664062 125.40625 L 295.914062 127.867188 L 294.707031 130.074219 L 293.152344 132.035156 L 291.191406 133.640625 L 288.933594 134.847656 L 286.472656 135.601562 L 283.960938 135.851562 L 15.046875 135.851562 L 12.488281 135.601562 L 10.078125 134.847656 L 7.816406 133.640625 L 5.859375 132.035156 L 4.253906 130.074219 L 3.097656 127.867188 L 2.34375 125.40625 L 2.09375 122.894531 L 2.09375 15.117188 "/>
<path style=" stroke:none;fill-rule:evenodd;fill:rgb(100%,100%,100%);fill-opacity:1;" d="M 78.410156 24.105469 L 76.503906 24.359375 L 74.695312 25.109375 L 74.09375 25.511719 L 72.886719 26.667969 L 72.082031 28.074219 L 71.429688 30.835938 L 71.28125 33.246094 L 71.480469 36.007812 L 72.082031 38.320312 L 72.9375 39.824219 L 74.09375 40.929688 L 75.800781 41.835938 L 77.65625 42.335938 L 78.410156 42.335938 L 80.015625 42.136719 L 81.472656 41.535156 L 82.777344 40.527344 L 83.730469 39.273438 L 84.335938 37.816406 L 88.300781 38.621094 L 87.449219 40.730469 L 86.191406 42.539062 L 84.535156 44.09375 L 82.578125 45.199219 L 80.46875 45.851562 L 78.410156 46.054688 L 75.5 45.753906 L 75.195312 45.703125 L 73.039062 44.796875 L 71.078125 43.441406 L 69.523438 41.683594 L 69.324219 41.382812 L 68.167969 39.121094 L 67.617188 37.164062 L 67.164062 34 L 67.164062 33.246094 L 67.414062 30.082031 L 67.617188 29.277344 L 68.367188 26.867188 L 69.324219 25.058594 L 70.828125 23.253906 L 72.6875 21.796875 L 74.84375 20.84375 L 75.195312 20.742188 L 78.109375 20.390625 L 78.410156 20.390625 L 80.667969 20.640625 L 82.777344 21.292969 L 84.738281 22.449219 L 86.34375 24.054688 L 87.597656 25.914062 L 88.300781 27.824219 L 84.335938 28.574219 L 83.683594 27.121094 L 82.726562 25.863281 L 81.421875 24.859375 L 79.917969 24.257812 L 78.410156 24.105469 "/>
<path style=" stroke:none;fill-rule:evenodd;fill:rgb(100%,100%,100%);fill-opacity:1;" d="M 102.910156 45.300781 L 102.910156 35.65625 L 110.695312 21.144531 L 106.324219 21.144531 L 100.851562 31.386719 L 95.332031 21.144531 L 90.910156 21.144531 L 98.746094 35.65625 L 98.746094 45.300781 L 102.910156 45.300781 "/>
<path style=" stroke:none;fill-rule:evenodd;fill:rgb(100%,100%,100%);fill-opacity:1;" d="M 125.152344 24.105469 L 123.246094 24.359375 L 121.4375 25.109375 L 120.785156 25.511719 L 119.632812 26.667969 L 118.828125 28.074219 L 118.175781 30.835938 L 117.972656 33.246094 L 118.226562 36.007812 L 118.828125 38.320312 L 119.632812 39.824219 L 120.785156 40.929688 L 122.492188 41.835938 L 124.402344 42.335938 L 125.152344 42.335938 L 126.710938 42.136719 L 128.214844 41.535156 L 129.472656 40.527344 L 130.476562 39.273438 L 131.078125 37.816406 L 135.046875 38.621094 L 134.191406 40.730469 L 132.9375 42.539062 L 131.28125 44.09375 L 129.320312 45.199219 L 127.164062 45.851562 L 125.152344 46.054688 L 122.242188 45.753906 L 121.941406 45.703125 L 119.730469 44.796875 L 117.824219 43.441406 L 116.265625 41.683594 L 116.066406 41.382812 L 114.863281 39.121094 L 114.308594 37.164062 L 113.90625 34 L 113.855469 33.246094 L 114.160156 30.082031 L 114.308594 29.277344 L 115.0625 26.867188 L 116.066406 25.058594 L 117.574219 23.253906 L 119.429688 21.796875 L 121.589844 20.84375 L 121.941406 20.742188 L 124.851562 20.390625 L 125.152344 20.390625 L 127.363281 20.640625 L 129.523438 21.292969 L 131.429688 22.449219 L 133.035156 24.054688 L 134.292969 25.914062 L 135.046875 27.824219 L 131.078125 28.574219 L 130.425781 27.121094 L 129.421875 25.863281 L 128.167969 24.859375 L 126.660156 24.257812 L 125.152344 24.105469 "/>
<path style=" stroke:none;fill-rule:evenodd;fill:rgb(100%,100%,100%);fill-opacity:1;" d="M 141.320312 45.300781 L 154.878906 45.300781 L 154.878906 41.632812 L 145.488281 41.632812 L 145.488281 21.144531 L 141.320312 21.144531 L 141.320312 45.300781 "/>
<path style=" stroke:none;fill-rule:evenodd;fill:rgb(100%,100%,100%);fill-opacity:1;" d="M 163.914062 45.300781 L 159.796875 45.300781 L 159.796875 21.144531 L 163.914062 21.144531 L 163.914062 45.300781 "/>
<path style=" stroke:none;fill-rule:evenodd;fill:rgb(100%,100%,100%);fill-opacity:1;" d="M 177.421875 30.234375 L 183.949219 31.738281 L 185.453125 32.292969 L 186.808594 33.195312 L 187.863281 34.402344 L 188.566406 35.859375 L 188.867188 37.464844 L 188.769531 39.023438 L 188.71875 39.222656 L 188.566406 39.824219 L 187.863281 41.683594 L 187.011719 42.988281 L 185.707031 44.246094 L 184.097656 45.148438 L 182.542969 45.550781 L 180.03125 45.800781 L 177.472656 45.5 L 175.0625 44.746094 L 174.207031 44.394531 L 172.046875 42.941406 L 170.292969 41.132812 L 173.554688 38.519531 L 175.109375 40.226562 L 177.070312 41.535156 L 178.828125 41.984375 L 180.632812 42.035156 L 182.390625 41.632812 L 183.195312 41.28125 L 183.445312 41.082031 L 184.25 40.429688 L 184.699219 39.472656 L 184.851562 38.46875 L 184.652344 37.464844 L 184.097656 36.5625 L 183.296875 35.957031 L 182.542969 35.65625 L 176.066406 34.199219 L 174.457031 33.496094 L 173.101562 32.394531 L 172.046875 30.988281 L 171.394531 29.378906 L 171.195312 27.621094 L 171.246094 26.769531 L 171.746094 25.058594 L 172.652344 23.503906 L 173.90625 22.296875 L 175.460938 21.394531 L 175.664062 21.34375 L 178.273438 20.742188 L 180.933594 20.691406 L 182.894531 20.992188 L 184.75 21.546875 L 186.457031 22.5 L 187.8125 23.855469 L 188.417969 24.660156 L 185.203125 27.269531 L 184.25 26.015625 L 182.945312 25.058594 L 181.488281 24.457031 L 181.386719 24.40625 L 179.53125 24.257812 L 177.671875 24.507812 L 177.121094 24.710938 L 176.265625 25.160156 L 175.664062 25.914062 L 175.3125 26.816406 L 175.261719 27.773438 L 175.3125 27.921875 L 175.5625 28.828125 L 176.164062 29.582031 L 176.96875 30.082031 L 177.421875 30.234375 "/>
<path style=" stroke:none;fill-rule:evenodd;fill:rgb(100%,100%,100%);fill-opacity:1;" d="M 203.226562 45.300781 L 203.226562 24.808594 L 209.90625 24.808594 L 209.90625 21.144531 L 192.433594 21.144531 L 192.433594 24.808594 L 199.109375 24.808594 L 199.109375 45.300781 L 203.226562 45.300781 "/>
<path style=" stroke:none;fill-rule:evenodd;fill:rgb(100%,100%,100%);fill-opacity:1;" d="M 219.796875 30.234375 L 226.375 31.738281 L 227.878906 32.292969 L 229.234375 33.195312 L 230.289062 34.402344 L 230.992188 35.859375 L 231.292969 37.464844 L 231.195312 39.023438 L 231.144531 39.222656 L 230.992188 39.824219 L 230.289062 41.683594 L 229.4375 42.988281 L 228.082031 44.246094 L 226.523438 45.148438 L 224.96875 45.550781 L 222.457031 45.800781 L 219.898438 45.5 L 217.4375 44.746094 L 216.582031 44.394531 L 214.472656 42.941406 L 212.71875 41.132812 L 215.929688 38.519531 L 217.539062 40.226562 L 219.496094 41.535156 L 221.253906 41.984375 L 223.058594 42.035156 L 224.816406 41.632812 L 225.570312 41.28125 L 225.871094 41.082031 L 226.675781 40.429688 L 227.125 39.472656 L 227.277344 38.46875 L 227.078125 37.464844 L 226.523438 36.5625 L 225.722656 35.957031 L 224.96875 35.65625 L 218.492188 34.199219 L 216.882812 33.496094 L 215.527344 32.394531 L 214.425781 30.988281 L 213.820312 29.378906 L 213.621094 27.621094 L 213.671875 26.769531 L 214.171875 25.058594 L 215.078125 23.503906 L 216.332031 22.296875 L 217.886719 21.394531 L 218.089844 21.34375 L 220.648438 20.742188 L 223.3125 20.691406 L 225.320312 20.992188 L 227.175781 21.546875 L 228.835938 22.5 L 230.238281 23.855469 L 230.84375 24.660156 L 227.628906 27.269531 L 226.625 26.015625 L 225.371094 25.058594 L 223.914062 24.457031 L 223.761719 24.40625 L 221.90625 24.257812 L 220.097656 24.507812 L 219.546875 24.710938 L 218.691406 25.160156 L 218.039062 25.914062 L 217.6875 26.816406 L 217.6875 27.773438 L 217.738281 27.921875 L 217.988281 28.828125 L 218.589844 29.582031 L 219.394531 30.082031 L 219.796875 30.234375 "/>
<path style=" stroke:none;fill-rule:evenodd;fill:rgb(100%,100%,100%);fill-opacity:1;" d="M 97.390625 59.3125 L 92.117188 59.3125 L 92.117188 66.695312 L 98.394531 66.695312 L 98.996094 66.59375 L 99.398438 66.34375 L 100.199219 65.539062 L 100.753906 64.535156 L 100.953125 63.429688 L 100.953125 62.878906 L 100.804688 61.773438 L 100.300781 60.769531 L 99.546875 59.964844 L 98.542969 59.460938 L 97.390625 59.3125 M 88 79.804688 L 88 55.644531 L 97.339844 55.644531 L 99.144531 55.847656 L 100.851562 56.5 L 102.359375 57.554688 L 103.566406 58.910156 L 104.167969 59.914062 L 104.769531 61.671875 L 104.96875 63.53125 L 104.71875 65.339844 L 104.015625 67.046875 L 103.765625 67.449219 L 102.910156 68.554688 L 101.757812 69.355469 L 100.5 69.808594 L 105.472656 79.804688 L 101.105469 79.804688 L 96.382812 70.359375 L 92.117188 70.359375 L 92.117188 79.804688 L 88 79.804688 "/>
<path style=" stroke:none;fill-rule:evenodd;fill:rgb(100%,100%,100%);fill-opacity:1;" d="M 112.300781 79.804688 L 128.167969 79.804688 L 128.167969 76.085938 L 116.417969 76.085938 L 116.417969 69.457031 L 126.558594 69.457031 L 126.558594 65.789062 L 116.417969 65.789062 L 116.417969 59.3125 L 127.464844 59.3125 L 127.464844 55.644531 L 112.300781 55.644531 L 112.300781 79.804688 "/>
<path style=" stroke:none;fill-rule:evenodd;fill:rgb(100%,100%,100%);fill-opacity:1;" d="M 134.945312 76.386719 L 137.003906 76.386719 L 137.355469 76.335938 L 138.109375 75.886719 L 138.660156 75.28125 L 138.960938 74.480469 L 139.011719 73.925781 L 139.011719 55.644531 L 143.179688 55.644531 L 143.179688 74.53125 L 142.929688 76.035156 L 142.324219 77.441406 L 141.269531 78.648438 L 139.964844 79.5 L 139.261719 79.804688 L 136.550781 80.105469 L 133.890625 79.953125 L 131.28125 79.199219 L 132.535156 75.886719 L 134.945312 76.386719 "/>
<path style=" stroke:none;fill-rule:evenodd;fill:rgb(100%,100%,100%);fill-opacity:1;" d="M 160.601562 80.507812 L 163.511719 80.253906 L 163.8125 80.203125 L 166.023438 79.300781 L 167.980469 77.945312 L 169.539062 76.1875 L 169.738281 75.886719 L 170.894531 73.625 L 171.445312 71.667969 L 171.847656 68.554688 L 171.847656 67.75 L 171.597656 64.585938 L 171.445312 63.78125 L 170.691406 61.371094 L 169.738281 59.5625 L 168.234375 57.753906 L 166.375 56.296875 L 164.214844 55.34375 L 163.863281 55.242188 L 160.953125 54.941406 L 160.652344 54.941406 L 157.738281 55.195312 L 157.4375 55.242188 L 155.230469 56.148438 L 153.320312 57.503906 L 151.714844 59.261719 L 151.511719 59.5625 L 150.359375 61.824219 L 149.804688 63.78125 L 149.40625 66.894531 L 149.40625 67.699219 L 149.707031 70.863281 L 149.855469 71.667969 L 150.609375 74.078125 L 151.5625 75.886719 L 153.070312 77.695312 L 154.976562 79.148438 L 157.136719 80.15625 L 157.488281 80.253906 L 160.398438 80.554688 L 160.601562 80.507812 M 160.601562 76.839844 L 162.507812 76.589844 L 164.265625 75.835938 L 164.917969 75.433594 L 166.125 74.277344 L 166.925781 72.871094 L 167.578125 70.160156 L 167.730469 67.75 L 167.53125 64.9375 L 166.925781 62.625 L 166.125 61.171875 L 164.96875 60.015625 L 163.261719 59.109375 L 161.40625 58.660156 L 160.652344 58.609375 L 158.742188 58.859375 L 156.984375 59.613281 L 156.332031 60.015625 L 155.128906 61.171875 L 154.324219 62.578125 L 153.671875 65.339844 L 153.523438 67.75 L 153.773438 70.5625 L 154.375 72.871094 L 155.179688 74.328125 L 156.332031 75.484375 L 158.039062 76.386719 L 159.898438 76.839844 L 160.601562 76.839844 "/>
<path style=" stroke:none;fill-rule:evenodd;fill:rgb(100%,100%,100%);fill-opacity:1;" d="M 182.140625 79.804688 L 177.972656 79.804688 L 177.972656 55.644531 L 182.140625 55.644531 L 182.140625 79.804688 "/>
<path style=" stroke:none;fill-rule:evenodd;fill:rgb(100%,100%,100%);fill-opacity:1;" d="M 194.691406 79.804688 L 194.691406 62.324219 L 206.441406 79.804688 L 211.011719 79.804688 L 211.011719 55.644531 L 206.894531 55.644531 L 206.894531 73.125 L 195.144531 55.644531 L 190.574219 55.644531 L 190.574219 79.804688 L 194.691406 79.804688 "/>
<path style=" stroke:none;fill-rule:evenodd;fill:rgb(100%,100%,100%);fill-opacity:1;" d="M 32.921875 93.0625 L 30.964844 93.3125 L 29.207031 94.066406 L 28.554688 94.46875 L 27.398438 95.671875 L 26.59375 97.078125 L 25.890625 99.792969 L 25.742188 102.203125 L 25.992188 105.015625 L 26.59375 107.324219 L 27.398438 108.78125 L 28.554688 109.9375 L 30.261719 110.839844 L 32.117188 111.292969 L 32.921875 111.34375 L 34.476562 111.140625 L 35.984375 110.488281 L 37.238281 109.535156 L 38.242188 108.230469 L 38.796875 106.824219 L 42.761719 107.574219 L 41.960938 109.683594 L 40.703125 111.542969 L 39.046875 113.050781 L 37.089844 114.203125 L 34.929688 114.859375 L 32.921875 115.007812 L 30.007812 114.757812 L 29.707031 114.707031 L 27.5 113.804688 L 25.589844 112.449219 L 24.035156 110.691406 L 23.785156 110.339844 L 22.628906 108.128906 L 22.078125 106.121094 L 21.675781 103.003906 L 21.625 102.203125 L 21.925781 99.039062 L 22.078125 98.285156 L 22.828125 95.875 L 23.785156 94.066406 L 25.289062 92.207031 L 27.199219 90.800781 L 29.355469 89.796875 L 29.707031 89.695312 L 32.621094 89.394531 L 32.921875 89.394531 L 35.128906 89.597656 L 37.289062 90.300781 L 39.199219 91.453125 L 40.804688 93.011719 L 42.058594 94.917969 L 42.761719 96.777344 L 38.796875 97.582031 L 38.195312 96.074219 L 37.1875 94.820312 L 35.882812 93.863281 L 34.429688 93.261719 L 32.921875 93.0625 "/>
<path style=" stroke:none;fill-rule:evenodd;fill:rgb(100%,100%,100%);fill-opacity:1;" d="M 61.441406 109.785156 L 62.894531 114.253906 L 67.011719 114.253906 L 59.128906 90.148438 L 54.058594 90.148438 L 46.125 114.304688 L 50.242188 114.304688 L 51.75 109.835938 L 61.441406 109.835938 M 60.285156 106.320312 L 52.855469 106.320312 L 56.570312 95.019531 L 60.285156 106.320312 "/>
<path style=" stroke:none;fill-rule:evenodd;fill:rgb(100%,100%,100%);fill-opacity:1;" d="M 81.976562 93.816406 L 76.703125 93.816406 L 76.703125 101.148438 L 82.980469 101.148438 L 83.582031 101.046875 L 83.984375 100.796875 L 84.785156 99.992188 L 85.339844 98.988281 L 85.539062 97.882812 L 85.539062 97.332031 L 85.390625 96.226562 L 84.886719 95.222656 L 84.132812 94.417969 L 83.128906 93.914062 L 82.023438 93.714844 M 72.535156 114.253906 L 72.535156 90.097656 L 81.875 90.097656 L 83.683594 90.300781 L 85.390625 90.953125 L 86.894531 92.007812 L 88.101562 93.363281 L 88.703125 94.367188 L 89.304688 96.125 L 89.507812 97.984375 L 89.253906 99.792969 L 88.550781 101.5 L 88.300781 101.902344 L 87.449219 103.003906 L 86.34375 103.808594 L 85.085938 104.261719 L 90.058594 114.253906 L 85.691406 114.253906 L 80.972656 104.8125 L 76.703125 104.8125 L 76.703125 114.253906 L 72.535156 114.253906 "/>
<path style=" stroke:none;fill-rule:evenodd;fill:rgb(100%,100%,100%);fill-opacity:1;" d="M 106.277344 93.816406 L 101.003906 93.816406 L 101.003906 101.148438 L 107.28125 101.148438 L 107.882812 101.046875 L 108.285156 100.796875 L 109.085938 99.992188 L 109.640625 98.988281 L 109.839844 97.882812 L 109.839844 97.332031 L 109.691406 96.226562 L 109.1875 95.222656 L 108.382812 94.417969 L 107.378906 93.914062 L 106.277344 93.714844 M 96.886719 114.253906 L 96.886719 90.097656 L 106.226562 90.097656 L 108.03125 90.300781 L 109.738281 90.953125 L 111.246094 92.007812 L 112.453125 93.363281 L 113.054688 94.367188 L 113.65625 96.125 L 113.855469 97.984375 L 113.605469 99.792969 L 112.902344 101.5 L 112.652344 101.902344 L 111.796875 103.003906 L 110.644531 103.808594 L 109.386719 104.261719 L 114.359375 114.253906 L 109.992188 114.253906 L 105.273438 104.8125 L 101.054688 104.8125 L 101.054688 114.253906 L 96.886719 114.253906 "/>
<path style=" stroke:none;fill-rule:evenodd;fill:rgb(100%,100%,100%);fill-opacity:1;" d="M 125.304688 114.253906 L 121.1875 114.253906 L 121.1875 90.148438 L 125.304688 90.148438 L 125.304688 114.253906 "/>
<path style=" stroke:none;fill-rule:evenodd;fill:rgb(100%,100%,100%);fill-opacity:1;" d="M 146.089844 109.785156 L 147.597656 114.253906 L 151.714844 114.253906 L 143.78125 90.097656 L 138.710938 90.097656 L 130.777344 114.253906 L 134.894531 114.253906 L 136.402344 109.785156 L 146.089844 109.785156 M 144.9375 106.320312 L 137.503906 106.320312 L 141.21875 95.019531 L 144.9375 106.320312 "/>
<path style=" stroke:none;fill-rule:evenodd;fill:rgb(100%,100%,100%);fill-opacity:1;" d="M 168.886719 114.859375 L 166.527344 115.007812 L 163.613281 114.757812 L 163.3125 114.707031 L 161.101562 113.804688 L 159.195312 112.449219 L 157.640625 110.691406 L 157.386719 110.339844 L 156.28125 108.128906 L 155.679688 106.121094 L 155.277344 103.003906 L 155.230469 102.203125 L 155.53125 99.039062 L 155.679688 98.285156 L 156.433594 95.875 L 157.386719 94.066406 L 158.945312 92.207031 L 160.800781 90.800781 L 162.960938 89.796875 L 163.3125 89.695312 L 166.222656 89.394531 L 166.527344 89.394531 L 169.386719 89.644531 L 169.6875 89.695312 L 171.898438 90.601562 L 173.855469 91.957031 L 175.414062 93.714844 L 175.613281 94.066406 L 176.214844 95.070312 L 172.75 96.929688 L 171.898438 95.472656 L 170.84375 94.46875 L 169.136719 93.5625 L 167.277344 93.113281 L 166.527344 93.0625 L 164.617188 93.3125 L 162.808594 94.066406 L 162.15625 94.46875 L 161.003906 95.671875 L 160.199219 97.078125 L 159.546875 99.792969 L 159.347656 102.203125 L 159.597656 105.015625 L 160.199219 107.324219 L 161.003906 108.78125 L 162.15625 109.9375 L 163.863281 110.839844 L 165.773438 111.292969 L 166.527344 111.34375 L 168.433594 111.089844 L 170.191406 110.339844 L 170.84375 109.9375 L 171.144531 109.683594 L 171.949219 108.78125 L 172.449219 107.675781 L 172.550781 106.773438 L 172.550781 104.410156 L 165.671875 104.410156 L 165.671875 100.695312 L 176.214844 100.695312 L 176.214844 114.253906 L 172.550781 114.253906 L 172.550781 112.246094 L 171.546875 113.453125 L 170.191406 114.355469 L 168.886719 114.859375 "/>
<path style=" stroke:none;fill-rule:evenodd;fill:rgb(100%,100%,100%);fill-opacity:1;" d="M 183.949219 114.253906 L 199.8125 114.253906 L 199.8125 110.589844 L 188.066406 110.589844 L 188.066406 103.910156 L 198.15625 103.910156 L 198.15625 100.242188 L 188.066406 100.242188 L 188.066406 93.816406 L 199.109375 93.816406 L 199.109375 90.148438 L 183.949219 90.148438 L 183.949219 114.253906 "/>
<path style=" stroke:none;fill-rule:evenodd;fill:rgb(100%,100%,100%);fill-opacity:1;" d="M 214.726562 114.253906 L 210.105469 114.253906 L 204.484375 90.148438 L 208.75 90.148438 L 212.617188 106.773438 L 216.433594 90.148438 L 221.050781 90.148438 L 224.867188 106.773438 L 228.785156 90.148438 L 233 90.148438 L 227.378906 114.253906 L 222.757812 114.253906 L 218.742188 96.324219 L 214.726562 114.253906 "/>
<path style=" stroke:none;fill-rule:evenodd;fill:rgb(100%,100%,100%);fill-opacity:1;" d="M 251.578125 109.785156 L 253.085938 114.253906 L 257.203125 114.253906 L 249.269531 90.097656 L 244.199219 90.097656 L 236.265625 114.253906 L 240.382812 114.253906 L 241.886719 109.785156 L 251.578125 109.785156 M 250.472656 106.320312 L 243.042969 106.320312 L 246.757812 95.019531 L 250.472656 106.320312 "/>
<path style=" stroke:none;fill-rule:evenodd;fill:rgb(100%,100%,100%);fill-opacity:1;" d="M 271.007812 114.253906 L 271.007812 104.613281 L 278.792969 90.148438 L 274.421875 90.148438 L 268.949219 100.34375 L 263.425781 90.148438 L 259.007812 90.148438 L 266.839844 104.613281 L 266.839844 114.253906 L 271.007812 114.253906 "/>
<path style=" stroke:none;fill-rule:evenodd;fill:rgb(100%,100%,100%);fill-opacity:1;" d="M 2.09375 15.117188 L 2.34375 12.605469 L 3.097656 10.195312 L 4.304688 7.933594 L 5.910156 5.976562 L 7.867188 4.367188 L 10.078125 3.164062 L 12.488281 2.410156 L 14.996094 2.160156 L 283.960938 2.160156 L 286.472656 2.410156 L 288.882812 3.164062 L 291.140625 4.367188 L 293.101562 5.976562 L 294.707031 7.933594 L 295.914062 10.195312 L 296.664062 12.605469 L 296.917969 15.117188 L 296.917969 122.894531 L 296.664062 125.40625 L 295.914062 127.816406 L 294.707031 130.074219 L 293.101562 132.035156 L 291.140625 133.640625 L 288.882812 134.847656 L 286.472656 135.601562 L 283.960938 135.851562 L 15.046875 135.851562 L 12.535156 135.601562 L 10.128906 134.847656 L 7.917969 133.640625 L 5.960938 132.035156 L 4.351562 130.074219 L 3.148438 127.816406 L 2.394531 125.40625 L 2.144531 122.894531 L 2.144531 15.117188 M 8.570312 15.117188 L 8.769531 13.460938 L 9.425781 11.902344 L 10.429688 10.546875 L 11.785156 9.492188 L 13.339844 8.839844 L 14.996094 8.636719 L 283.960938 8.636719 L 285.667969 8.839844 L 287.226562 9.492188 L 288.582031 10.546875 L 289.585938 11.902344 L 290.238281 13.460938 L 290.441406 15.117188 L 290.441406 122.894531 L 290.238281 124.550781 L 289.585938 126.109375 L 288.582031 127.464844 L 287.226562 128.519531 L 285.667969 129.171875 L 283.960938 129.371094 L 15.046875 129.371094 L 13.390625 129.171875 L 11.835938 128.519531 L 10.476562 127.464844 L 9.472656 126.109375 L 8.820312 124.550781 L 8.621094 122.894531 L 8.570312 15.117188 "/>
<path style="fill:none;stroke-width:3.4342;stroke-linecap:round;stroke-linejoin:round;stroke:rgb(0%,43.921569%,71.764708%);stroke-opacity:1;stroke-miterlimit:10;" d="M 186.40013 212.701294 L 186.898056 207.700088 L 188.399615 202.799995 L 190.702525 198.39769 L 193.900147 194.500949 L 197.797977 191.296444 L 202.302655 188.900843 L 207.102977 187.399704 L 212.198943 186.901916 L 747.796628 186.901916 L 752.799233 187.399704 L 757.700696 188.900843 L 762.197594 191.296444 L 766.103205 194.500949 L 769.199685 198.39769 L 771.603736 202.799995 L 773.097515 207.700088 L 773.603222 212.701294 L 773.603222 427.302021 L 773.097515 432.303226 L 771.603736 437.203319 L 769.199685 441.597847 L 766.103205 445.502365 L 762.197594 448.699092 L 757.700696 451.102471 L 752.799233 452.603611 L 747.796628 453.101398 L 212.198943 453.101398 L 207.102977 452.603611 L 202.302655 451.102471 L 197.797977 448.699092 L 193.900147 445.502365 L 190.702525 441.597847 L 188.399615 437.203319 L 186.898056 432.303226 L 186.40013 427.302021 L 186.40013 212.701294 " transform="matrix(0.502082,0,0,0.502223,-91.494437,-91.706218)"/>
</g>
</svg>
