<?xml version="1.0" encoding="UTF-8"?>
<svg xmlns="http://www.w3.org/2000/svg" xmlns:xlink="http://www.w3.org/1999/xlink" width="200px" height="px" viewBox="0 0 200 137" version="1.1">
<defs>
<clipPath id="clip1">
  <path d="M 0 0 L 199.753906 0 L 199.753906 136.78125 L 0 136.785156 Z M 0 0 "/>
</clipPath>
</defs>
<g id="surface1">
<path style=" stroke:none;fill-rule:nonzero;fill:rgb(100%,100%,100%);fill-opacity:1;" d="M 199.257812 123.382812 C 199.257812 130.519531 193.492188 136.304688 186.378906 136.304688 L 13.375 136.304688 C 6.265625 136.304688 0.5 130.519531 0.5 123.382812 L 0.5 13.421875 C 0.5 6.285156 6.265625 0.5 13.375 0.5 L 186.378906 0.5 C 193.492188 0.5 199.257812 6.285156 199.257812 13.425781 L 199.257812 123.382812 "/>
<g clip-path="url(#clip1)" clip-rule="nonzero">
<path style="fill:none;stroke-width:1;stroke-linecap:butt;stroke-linejoin:miter;stroke:rgb(0%,47.450981%,75.686276%);stroke-opacity:1;stroke-miterlimit:4;" d="M 0.0018689 -0.00117487 C 0.0018689 -7.169149 -5.809881 -12.979642 -12.980069 -12.979642 L -187.368006 -12.979642 C -194.534256 -12.979642 -200.346006 -7.169149 -200.346006 -0.00117487 L -200.346006 110.441343 C -200.346006 117.609318 -194.534256 123.419811 -187.368006 123.419811 L -12.980069 123.419811 C -5.809881 123.419811 0.0018689 117.609318 0.0018689 110.43742 Z M 0.0018689 -0.00117487 " transform="matrix(0.992063,0,0,-0.99564,199.255958,123.381643)"/>
</g>
<path style=" stroke:none;fill-rule:nonzero;fill:rgb(0%,47.450981%,75.686276%);fill-opacity:1;" d="M 192.570312 123.382812 C 192.570312 126.8125 189.796875 129.59375 186.382812 129.59375 L 13.375 129.59375 C 9.957031 129.59375 7.1875 126.8125 7.1875 123.382812 L 7.1875 13.421875 C 7.1875 9.992188 9.957031 7.210938 13.375 7.210938 L 186.382812 7.210938 C 189.800781 7.210938 192.570312 9.988281 192.570312 13.425781 L 192.570312 123.382812 "/>
<path style=" stroke:none;fill-rule:nonzero;fill:rgb(100%,100%,100%);fill-opacity:1;" d="M 150.386719 59.765625 C 146.65625 59.765625 143.101562 60.511719 139.867188 61.871094 L 129.046875 42.949219 L 131.101562 37.273438 C 136.5 36.746094 138.445312 31.769531 138.445312 30.921875 C 138.445312 30.078125 137.445312 30.078125 137.445312 30.078125 L 114.042969 30.078125 C 113.523438 30.078125 111.796875 30.519531 111.796875 32.371094 C 111.796875 34.222656 113.761719 34.542969 113.761719 34.542969 L 124.019531 36.8125 L 121.535156 43.671875 L 71.8125 43.671875 C 72.429688 41.367188 72.808594 39.945312 72.808594 39.945312 C 72.808594 39.945312 73.234375 38.550781 73.234375 37.960938 C 73.234375 35.167969 71.167969 33.078125 70.296875 32.605469 C 70.125 32.511719 69.542969 32.25 69.542969 31.46875 C 69.542969 30.683594 69.996094 30.027344 70.992188 30.027344 L 81.355469 30.027344 L 81.355469 23.109375 L 68.320312 23.109375 C 68.320312 23.109375 61.480469 23.753906 61.480469 30.777344 C 61.480469 34.882812 63.511719 35.816406 65.113281 36.78125 C 65.648438 37.101562 66.128906 38.445312 65.914062 39.195312 C 65.789062 39.632812 62.605469 51.617188 59.980469 61.523438 C 56.988281 60.386719 53.753906 59.765625 50.367188 59.765625 C 35.34375 59.765625 23.167969 71.988281 23.167969 87.066406 C 23.167969 102.144531 35.34375 114.363281 50.367188 114.363281 C 65.390625 114.363281 77.570312 102.144531 77.570312 87.066406 C 77.570312 77.898438 73.070312 69.789062 66.164062 64.839844 C 66.460938 63.730469 66.761719 62.601562 67.066406 61.460938 L 98.652344 83.613281 C 98.308594 84.703125 98.121094 85.863281 98.121094 87.066406 C 98.121094 93.378906 103.222656 98.496094 109.515625 98.496094 C 110.636719 98.496094 111.726562 98.332031 112.753906 98.027344 L 114.441406 101.71875 L 111.539062 101.71875 L 111.539062 105.417969 L 114.789062 105.417969 C 115.300781 106.226562 116.203125 106.765625 117.226562 106.765625 C 118.253906 106.765625 119.152344 106.226562 119.664062 105.417969 L 122.835938 105.417969 L 122.835938 101.71875 L 118.085938 101.71875 L 115.714844 96.65625 C 118.160156 95.0625 119.957031 92.546875 120.625 89.597656 L 123.222656 89.640625 C 124.535156 103.488281 136.242188 114.363281 150.386719 114.363281 C 165.410156 114.363281 177.589844 102.144531 177.589844 87.066406 C 177.589844 71.988281 165.410156 59.765625 150.386719 59.765625 "/>
<path style=" stroke:none;fill-rule:nonzero;fill:rgb(0%,47.450981%,75.686276%);fill-opacity:1;" d="M 109.515625 79.898438 C 113.457031 79.898438 116.65625 83.109375 116.65625 87.066406 C 116.65625 91.023438 113.457031 94.230469 109.515625 94.230469 C 105.570312 94.230469 102.371094 91.023438 102.371094 87.066406 C 102.371094 83.109375 105.570312 79.898438 109.515625 79.898438 "/>
<path style=" stroke:none;fill-rule:nonzero;fill:rgb(0%,47.450981%,75.686276%);fill-opacity:1;" d="M 109.960938 75.644531 C 109.8125 75.636719 109.664062 75.632812 109.515625 75.632812 C 108.328125 75.632812 107.179688 75.816406 106.105469 76.15625 L 104.414062 72.546875 L 107.511719 72.546875 L 107.511719 68.847656 L 104.339844 68.847656 C 103.828125 68.039062 102.925781 67.5 101.902344 67.5 C 100.875 67.5 99.976562 68.039062 99.464844 68.847656 L 96.210938 68.847656 L 96.210938 72.546875 L 101.09375 72.546875 L 103.339844 77.457031 C 103.074219 77.632812 102.8125 77.816406 102.5625 78.011719 L 68.941406 54.4375 C 69.300781 53.082031 69.65625 51.765625 69.988281 50.511719 L 119.0625 50.511719 L 109.960938 75.644531 "/>
<path style=" stroke:none;fill-rule:nonzero;fill:rgb(0%,47.450981%,75.686276%);fill-opacity:1;" d="M 133.949219 65.320312 L 126 51.371094 L 116.378906 77.941406 C 118.507812 79.554688 120.054688 81.90625 120.644531 84.613281 L 123.300781 84.613281 C 123.996094 76.746094 128.019531 69.839844 133.949219 65.320312 "/>
<path style=" stroke:none;fill-rule:nonzero;fill:rgb(0%,47.450981%,75.686276%);fill-opacity:1;" d="M 137.9375 72.441406 C 134.402344 75.492188 131.914062 79.75 131.316406 84.632812 L 144.9375 84.632812 L 137.9375 72.441406 "/>
<path style=" stroke:none;fill-rule:nonzero;fill:rgb(0%,47.450981%,75.686276%);fill-opacity:1;" d="M 143.917969 69.007812 L 153.433594 85.578125 C 153.433594 85.578125 153.898438 86.34375 153.898438 87.167969 C 153.898438 89.597656 151.410156 89.597656 150.230469 89.597656 L 131.375 89.636719 C 132.644531 99.050781 140.660156 106.347656 150.390625 106.347656 C 161 106.347656 169.601562 97.714844 169.601562 87.066406 C 169.601562 76.417969 161 67.785156 150.390625 67.785156 C 148.089844 67.785156 145.964844 68.261719 143.917969 69.007812 "/>
<path style=" stroke:none;fill-rule:nonzero;fill:rgb(0%,47.450981%,75.686276%);fill-opacity:1;" d="M 63.886719 73.367188 C 62.957031 76.839844 62.316406 79.242188 62.230469 79.570312 C 60.128906 87.398438 52.109375 89.8125 50.472656 89.8125 C 48.710938 89.8125 47.644531 88.632812 47.644531 86.972656 C 47.644531 85.308594 48.976562 84.828125 49.460938 84.449219 C 55.550781 79.679688 56.511719 74.585938 56.511719 74.585938 C 56.511719 74.585938 57.066406 72.492188 57.90625 69.328125 C 55.59375 68.335938 53.042969 67.785156 50.367188 67.785156 C 39.757812 67.785156 31.15625 76.417969 31.15625 87.066406 C 31.15625 97.714844 39.757812 106.347656 50.367188 106.347656 C 60.976562 106.347656 69.578125 97.714844 69.578125 87.066406 C 69.578125 81.707031 67.402344 76.863281 63.886719 73.367188 "/>
</g>
</svg>
