<?xml version="1.0" encoding="UTF-8"?>
<svg xmlns="http://www.w3.org/2000/svg" xmlns:xlink="http://www.w3.org/1999/xlink" width="200px" height="px" viewBox="0 0 200 344" version="1.1">
<defs>
<clipPath id="clip1">
  <path d="M 0 0 L 200 0 L 200 203 L 0 203 Z M 0 0 "/>
</clipPath>
<clipPath id="clip2">
  <path d="M 0 0 L 199.71875 0 L 199.71875 343.878906 L 0 343.882812 L 0 -0.00390625 Z M 0 0 "/>
</clipPath>
<clipPath id="clip3">
  <path d="M 0 207 L 200 207 L 200 344 L 0 344 Z M 0 207 "/>
</clipPath>
<clipPath id="clip4">
  <path d="M 0 0 L 199.71875 0 L 199.71875 343.878906 L 0 343.882812 L 0 -0.00390625 Z M 0 0 "/>
</clipPath>
</defs>
<g id="surface1">
<path style=" stroke:none;fill-rule:nonzero;fill:rgb(100%,100%,100%);fill-opacity:1;" d="M 199.367188 184.644531 C 199.367188 192.539062 192.960938 198.9375 185.058594 198.9375 L 14.660156 198.9375 C 6.757812 198.9375 0.351562 192.539062 0.351562 184.644531 L 0.351562 14.644531 C 0.351562 6.753906 6.757812 0.355469 14.660156 0.355469 L 185.058594 0.355469 C 192.957031 0.347656 199.363281 6.75 199.363281 14.640625 L 199.363281 184.644531 "/>
<g clip-path="url(#clip1)" clip-rule="nonzero">
<g clip-path="url(#clip2)" clip-rule="nonzero">
<path style="fill:none;stroke-width:1;stroke-linecap:butt;stroke-linejoin:miter;stroke:rgb(0%,47.450981%,75.686276%);stroke-opacity:1;stroke-miterlimit:4;" d="M -0.0011189 0.00218527 C -0.0011189 -11.252112 -9.123619 -20.373605 -20.376556 -20.373605 L -263.023931 -20.373605 C -274.276869 -20.373605 -283.399369 -11.252112 -283.399369 0.00218527 L -283.399369 242.351022 C -283.399369 253.599751 -274.276869 262.721244 -263.023931 262.721244 L -20.376556 262.721244 C -9.129181 262.732381 -0.0066814 253.605319 -0.0066814 242.356591 L -0.0066814 0.00218527 Z M -0.0011189 0.00218527 " transform="matrix(0.702247,0,0,-0.701468,199.367973,184.646064)"/>
</g>
</g>
<path style=" stroke:none;fill-rule:nonzero;fill:rgb(0%,47.450981%,75.686276%);fill-opacity:1;" d="M 191.9375 184.644531 C 191.9375 188.441406 188.859375 191.515625 185.058594 191.515625 L 14.660156 191.515625 C 10.859375 191.515625 7.78125 188.441406 7.78125 184.644531 L 7.78125 14.644531 C 7.78125 10.851562 10.859375 7.773438 14.660156 7.773438 L 185.058594 7.773438 C 188.859375 7.773438 191.9375 10.851562 191.9375 14.644531 L 191.933594 184.644531 "/>
<path style=" stroke:none;fill-rule:nonzero;fill:rgb(100%,100%,100%);fill-opacity:1;" d="M 52.683594 25.320312 L 133.160156 25.320312 C 152.425781 25.320312 168.042969 40.921875 168.042969 60.164062 L 168.042969 83.566406 C 168.042969 102.808594 152.425781 118.410156 133.160156 118.410156 L 84.761719 118.410156 L 84.761719 177.691406 L 52.679688 177.691406 L 52.679688 25.328125 "/>
<path style=" stroke:none;fill-rule:nonzero;fill:rgb(0%,47.450981%,75.686276%);fill-opacity:1;" d="M 84.929688 50.425781 L 121 50.425781 C 129.226562 50.425781 135.898438 57.089844 135.898438 65.308594 L 135.898438 78.703125 C 135.898438 86.921875 129.226562 93.582031 121 93.582031 L 84.929688 93.582031 L 84.929688 50.425781 "/>
<g clip-path="url(#clip3)" clip-rule="nonzero">
<g clip-path="url(#clip4)" clip-rule="nonzero">
<path style=" stroke:none;fill-rule:nonzero;fill:rgb(13.725491%,12.156863%,12.54902%);fill-opacity:1;" d="M 199.382812 331.042969 C 199.382812 338.140625 193.621094 343.894531 186.515625 343.894531 L 13.179688 343.894531 C 6.074219 343.894531 0.316406 338.140625 0.316406 331.042969 L 0.316406 220.484375 C 0.316406 213.386719 6.074219 207.632812 13.179688 207.632812 L 186.515625 207.632812 C 193.621094 207.632812 199.382812 213.382812 199.382812 220.484375 L 199.382812 331.042969 "/>
</g>
</g>
<path style=" stroke:none;fill-rule:nonzero;fill:rgb(100%,100%,100%);fill-opacity:1;" d="M 192.695312 331.042969 C 192.695312 334.453125 189.929688 337.21875 186.511719 337.21875 L 13.175781 337.21875 C 9.761719 337.21875 6.992188 334.453125 6.992188 331.042969 L 6.992188 220.484375 C 6.992188 217.070312 9.761719 214.304688 13.175781 214.304688 L 186.511719 214.304688 C 189.929688 214.304688 192.695312 217.070312 192.695312 220.484375 L 192.699219 331.042969 "/>
<path style=" stroke:none;fill-rule:nonzero;fill:rgb(13.725491%,12.156863%,12.54902%);fill-opacity:1;" d="M 143.371094 268.324219 C 140.101562 268.324219 136.988281 268.972656 134.152344 270.160156 L 124.671875 253.65625 L 126.472656 248.707031 C 131.203125 248.25 132.90625 243.90625 132.90625 243.171875 C 132.90625 242.433594 132.03125 242.433594 132.03125 242.433594 L 111.523438 242.433594 C 111.066406 242.433594 109.558594 242.820312 109.558594 244.433594 C 109.558594 246.046875 111.277344 246.328125 111.277344 246.328125 L 120.269531 248.304688 L 118.089844 254.289062 L 74.523438 254.289062 C 75.0625 252.277344 75.394531 251.039062 75.394531 251.039062 C 75.394531 251.039062 75.769531 249.824219 75.769531 249.308594 C 75.769531 246.871094 73.957031 245.046875 73.195312 244.636719 C 73.042969 244.554688 72.53125 244.328125 72.53125 243.644531 C 72.53125 242.960938 72.929688 242.386719 73.800781 242.386719 L 82.886719 242.386719 L 82.886719 236.355469 L 71.460938 236.355469 C 71.460938 236.355469 65.46875 236.914062 65.46875 243.042969 C 65.46875 246.621094 67.25 247.4375 68.652344 248.28125 C 69.121094 248.558594 69.542969 249.730469 69.355469 250.382812 C 69.246094 250.765625 66.457031 261.21875 64.152344 269.855469 C 61.535156 268.867188 58.695312 268.324219 55.730469 268.324219 C 42.570312 268.324219 31.898438 278.984375 31.898438 292.132812 C 31.898438 305.28125 42.570312 315.941406 55.730469 315.941406 C 68.894531 315.941406 79.566406 305.28125 79.566406 292.132812 C 79.566406 284.140625 75.621094 277.066406 69.574219 272.746094 C 69.832031 271.78125 70.09375 270.796875 70.363281 269.804688 L 98.039062 289.121094 C 97.738281 290.070312 97.574219 291.082031 97.574219 292.132812 C 97.574219 297.636719 102.046875 302.101562 107.558594 302.101562 C 108.542969 302.101562 109.496094 301.957031 110.394531 301.691406 L 111.875 304.910156 L 109.328125 304.910156 L 109.328125 308.136719 L 112.179688 308.136719 C 112.628906 308.84375 113.417969 309.3125 114.316406 309.3125 C 115.214844 309.3125 116.003906 308.84375 116.453125 308.136719 L 119.230469 308.136719 L 119.230469 304.910156 L 115.066406 304.910156 L 112.988281 300.496094 C 115.132812 299.105469 116.710938 296.910156 117.292969 294.34375 L 119.570312 294.375 C 120.71875 306.457031 130.976562 315.941406 143.371094 315.941406 C 156.535156 315.941406 167.207031 305.28125 167.207031 292.132812 C 167.210938 278.980469 156.539062 268.320312 143.375 268.320312 "/>
<path style=" stroke:none;fill-rule:nonzero;fill:rgb(100%,100%,100%);fill-opacity:1;" d="M 107.554688 285.878906 C 111.011719 285.878906 113.8125 288.679688 113.8125 292.128906 C 113.8125 295.582031 111.011719 298.378906 107.554688 298.378906 C 104.101562 298.378906 101.300781 295.582031 101.300781 292.128906 C 101.300781 288.679688 104.101562 285.878906 107.554688 285.878906 "/>
<path style=" stroke:none;fill-rule:nonzero;fill:rgb(100%,100%,100%);fill-opacity:1;" d="M 107.949219 282.167969 C 107.820312 282.164062 107.691406 282.160156 107.558594 282.160156 C 106.519531 282.160156 105.515625 282.320312 104.570312 282.613281 L 103.089844 279.46875 L 105.804688 279.46875 L 105.804688 276.242188 L 103.023438 276.242188 C 102.574219 275.535156 101.789062 275.066406 100.886719 275.066406 C 99.988281 275.066406 99.199219 275.535156 98.753906 276.242188 L 95.902344 276.242188 L 95.902344 279.46875 L 100.179688 279.46875 L 102.148438 283.75 C 101.914062 283.902344 101.6875 284.0625 101.46875 284.234375 L 72.007812 263.675781 C 72.324219 262.492188 72.632812 261.34375 72.925781 260.25 L 115.925781 260.25 L 107.949219 282.167969 "/>
<path style=" stroke:none;fill-rule:nonzero;fill:rgb(100%,100%,100%);fill-opacity:1;" d="M 128.96875 273.164062 L 122.003906 261 L 113.574219 284.171875 C 115.441406 285.582031 116.792969 287.628906 117.308594 289.992188 L 119.636719 289.992188 C 120.25 283.128906 123.773438 277.109375 128.96875 273.164062 "/>
<path style=" stroke:none;fill-rule:nonzero;fill:rgb(100%,100%,100%);fill-opacity:1;" d="M 132.464844 279.375 C 129.367188 282.035156 127.1875 285.746094 126.664062 290.007812 L 138.597656 290.007812 L 132.464844 279.375 "/>
<path style=" stroke:none;fill-rule:nonzero;fill:rgb(100%,100%,100%);fill-opacity:1;" d="M 137.703125 276.378906 L 146.042969 290.832031 C 146.042969 290.832031 146.445312 291.5 146.445312 292.21875 C 146.445312 294.339844 144.269531 294.339844 143.234375 294.339844 L 126.710938 294.371094 C 127.824219 302.582031 134.847656 308.945312 143.371094 308.945312 C 152.667969 308.945312 160.207031 301.414062 160.207031 292.128906 C 160.207031 282.84375 152.667969 275.316406 143.371094 275.316406 C 141.359375 275.316406 139.496094 275.730469 137.703125 276.378906 "/>
<path style=" stroke:none;fill-rule:nonzero;fill:rgb(100%,100%,100%);fill-opacity:1;" d="M 67.578125 280.183594 C 66.765625 283.210938 66.203125 285.308594 66.125 285.59375 C 64.285156 292.421875 57.261719 294.527344 55.828125 294.527344 C 54.28125 294.527344 53.34375 293.496094 53.34375 292.046875 C 53.34375 290.597656 54.515625 290.179688 54.9375 289.851562 C 60.273438 285.6875 61.117188 281.246094 61.117188 281.246094 C 61.117188 281.246094 61.601562 279.421875 62.339844 276.660156 C 60.308594 275.796875 58.078125 275.316406 55.734375 275.316406 C 46.4375 275.316406 38.898438 282.84375 38.898438 292.128906 C 38.898438 301.414062 46.4375 308.945312 55.734375 308.945312 C 65.03125 308.945312 72.566406 301.414062 72.566406 292.128906 C 72.566406 287.457031 70.65625 283.230469 67.578125 280.183594 "/>
</g>
</svg>
